<svg xmlns="http://www.w3.org/2000/svg" width="119.86" height="208.246" viewBox="0 0 119.86 208.246">
  <g id="Group_43" data-name="Group 43" transform="translate(-561.929 -339.665)">
    <path id="Path_1" data-name="Path 1" d="M629.431,430.736q-1.808,32.765-33.176,35.312-33.013-2.3-34.326-35.312,2.215-29.644,28.413-35.065V378.836q-1.89-14.207-14.986-17.45t-13.1-21.721h14.535q0,11.991,13.22,15.234t15.11,23.527v17.245Q626.719,401.091,629.431,430.736Zm-14.7,0q-.986-20.858-18.148-22.008-18.314,1.152-19.791,22.008,1.641,19.955,19.462,21.516Q613.334,450.691,614.731,430.736Z" transform="translate(0 0)" fill="#0c3d93"/>
    <path id="Path_2" data-name="Path 2" d="M656.444,499.7q-2.383,33.342-33.5,35.312-32.272-1.643-34.079-35.312V408.873h14.945V499.7q2.136,20.284,19.134,21.516,16.915-1.479,18.313-21.516,0-10.92-8.211-19.709t3.284-23.158l13.14,4.928q-9.854,8.459-1.438,17.9T656.444,499.7Z" transform="translate(5.021 12.903)" fill="#0c3d93"/>
    <path id="Path_3" data-name="Path 3" d="M673.531,466.772q-2.711,31.7-34.079,33.5-31.617-.822-33.669-33.5l2.463-12.646h15.11l-2.464,12.646q1.4,19.217,18.559,19.709,17.9-.659,19.052-19.709V460.2q-2.956-18.969-19.052-18.969h-8.458v-13.8h8.458q17.325-1.806,19.462-23.57-3.369-19.049-23.487-18.8V370.939q33.915-.08,38.185,32.929-1.642,21.763-18.476,29.482,15.439,5.419,18.395,26.853Z" transform="translate(8.176 5.831)" fill="#0c3d93"/>
  </g>
</svg>
