<?xml version="1.0" standalone="no"?>
<!DOCTYPE svg PUBLIC "-//W3C//DTD SVG 1.1//EN" "http://www.w3.org/Graphics/SVG/1.1/DTD/svg11.dtd" >
<svg xmlns="http://www.w3.org/2000/svg" xmlns:xlink="http://www.w3.org/1999/xlink" version="1.1">
<metadata>
Created by FontForge 20170731 at Sat Aug  8 21:39:46 2020
 By Aleksey,,,
Copyright 1997 International Typeface Corporation. All rights reserved.
</metadata>
<defs>
<font id="BradleyHandITCStd-Bold" horiz-adv-x="1024" >
  <font-face 
    font-family="Bradley Hand ITC Std"
    font-weight="700"
    font-stretch="normal"
    units-per-em="2048"
    panose-1="2 0 8 3 3 0 0 2 0 4"
    ascent="1638"
    descent="-410"
    x-height="827"
    cap-height="1063"
    bbox="-842 -817 2269 1741"
    underline-thickness="124"
    underline-position="-464"
    unicode-range="U+0020-FB02"
  />
<missing-glyph 
d="M25 0v1362h972v-1362h-972zM180 1266l332 -498l330 498h-662zM123 1178v-992q0 -1 82.5 123t164.5 249l83 124zM901 1178l-332 -496l332 -498v994zM842 98l-330 496l-332 -496h662z" />
    <glyph glyph-name="f_i" unicode="fi" horiz-adv-x="1513" 
d="M1495 227l-12 -8l-8 -29l-37 -12q-3 -27 -31 -35l-27 -26h-34l-19 -31l-2 -8q-37 -32 -74 -37l-22 -27q-29 -19 -66 -22l-6 -2l-12 -19h-43l-29 -22l-39 22l-51 39l-37 78l-2 105l-8 24l10 84l12 90l13 25l-6 43v47q0 4 -1 12t-1 12q0 25 20 48l6 6q0 1 -6 55l-39 -25
l-76 -4l-37 -16l-57 -14l-110 -17l-11 10q-17 -14 -43 -14h-10l4 -2l-12 2l-55 -22l-41 12q-12 -20 -41 -27l2 -14l-8 -29l12 -35l-27 -53l6 -82l-10 -28l6 -29l-20 -43l6 -27q2 -2 2 -10q0 -5 -7 -44t-7 -75v-24l18 -35l-12 -29l14 -41l-10 -33l22 -100l7 -110l24 -48
l-10 -39q24 -43 24 -69v-6q0 -4 1 -11t1 -10q0 -79 -90 -82l-16 33l-25 14l-4 37l-41 115v23q-8 36 -8 43q0 10 2 14l-6 35l6 34l-6 23v45l-20 131l4 2l-4 23l4 28l-15 27l13 20l-7 74l19 58l-12 47l16 32l-6 66l16 45v43q2 25 17 92l-9 -2l-26 8l-31 2l-57 -10l-35 8
l-59 -12l-21 4q-10 -2 -25 -2q-88 37 -96 64l-10 34q13 42 28 60t42 18q12 0 18 -2h12l43 -12l41 2l78 -4l62 14l45 -4h18l6 25l4 61l11 23l-7 41q0 21 17 38q0 9 -2 23l22 25l11 63l8 8l-6 27q24 27 24 47q0 3 -1 7t-1 5q0 6 4.5 18.5t12.5 34.5t14 44l8 -5q2 35 8 58l4 -8
v6q0 33 29 49l12 20l25 58h4q22 0 22 26v9l58 20h16q37 18 60 21l20 10l45 8l37 -4l43 6l31 -18l37 -2l26 -23l8 -2q15 6 25 6q13 0 28.5 -12.5t26.5 -34.5l27 -21l16 -43l29 -32q1 -17 3.5 -36t2.5 -22q0 -2 1 -6t1 -6q0 -24 -14 -41t-45 -37l-60 6l-51 35l-24 43
q-1 4 -2 8.5t-2 7.5t-1 5v8l-6 12l-67 45l-43 4l-19 -10l-67 -14q-11 -34 -51 -37q-31 -31 -78 -170l-6 -2l-9 -21l-10 -20l14 -39l-28 -37l-8 -31l-9 -18l2 -29l-28 -71q2 -8 2 -25q0 -23 -6 -41q-11 -15 -17 -35q11 4 33 8l12 -2q1 0 3.5 1.5t7 3t8.5 2.5h10
q8 0 30.5 -2.5t35.5 -2.5q27 9 36 9l41 4l43 18l50 -8l38 25q91 10 119 24q11 11 21 17h8q31 0 41 26l39 -14q8 8 8 22h59l37 -59l-24 -61v-39l-2 -27l12 -29v-4q0 -11 -3.5 -21t-12 -24.5t-9.5 -17.5l8 -27l-24 -80q-1 -13 -10 -78v-51l-13 -31l4 -20l-6 -47l6 -55l5 -9
l24 2l23 3l39 30l34 13l29 26l8 -4q42 22 47 23l21 14l10 -2l25 26l30 17l29 47l70 -14q28 -25 28 -54q0 -23 -14 -45z" />
    <glyph glyph-name="f_l" unicode="fl" horiz-adv-x="1499" 
d="M1380 248q23 26 52 26q71 0 71 -63q0 -36 -18 -49q-9 -16 -31 -25q-12 -35 -51 -61l-43 -45l-35 -11l-27 -20l-16 -4l-8 -8q-27 -21 -76 -27q-15 -12 -35 -12q-12 0 -18 2l-6 2q-12 -2 -27.5 -8t-21.5 -6q-44 0 -56 12l-28 31l-13 32q-16 21 -24 60l-11 35l-14 38l6 58
l-4 55q10 20 10 33q0 14 -16 24q0 67 6 113q-6 15 -6 31q0 6 4 26l2 60l-4 39l8 22l-30 43l20 33v72l6 67l-6 62l16 90l-6 12l-4 70l8 35l-10 30l-10 56q-13 20 -33 47l-4 8l-12 27l-8 -3q-2 0 -4 1.5t-6 3.5t-7 4q0 6 6 18l-41 -16l-16 8l-12 2l-27 -16l-43 12l-14 -6
q-26 -32 -54 -35l3 -4q-18 -37 -46 -62q-5 -46 -32 -104l-11 -29l-10 -14l19 -33l-37 -35l-8 -41l-9 -16l2 -29l-28 -73q0 -21 4 -41q-24 -50 -25 -56q12 6 33 6l12 -2q1 0 3.5 1.5t7 3t8.5 2.5h8q9 0 32 -2.5t36 -2.5q17 7 32 7q7 0 27 -4l-4 4l18 -9q36 9 51 9q12 0 27 -9
h19l26 -6q24 8 31 8q43 0 43 -61q0 -21 -6 -45l-78 -25l-47 2l-21 5q-35 -9 -75 -15l-11 10q-14 -14 -39 -14h-22l-8 2l-39 -24l-51 8q-16 -19 -39 -25l2 -12l-8 -29l12 -35l-27 -53l6 -82l-10 -28l6 -29l-20 -45l6 -25q4 -8 4 -14t-8 -40t-8 -65q0 -47 18 -67l-12 -31
l14 -41l-10 -33l22 -100l7 -110l24 -39l-10 -48q21 -35 24 -73q7 -25 7 -33q0 -61 -93 -76l-18 37l-25 14l-4 37l-41 115v23q-8 36 -8 43q0 10 2 14l-6 35l6 34l-6 23v45l-20 129l4 4l-4 23l4 28l-15 27l13 23l-4 65l12 43l-6 57l14 43l-6 64l8 24q1 6 3.5 26t8 56t13.5 74
h-9l-26 8q-5 0 -14 -1t-13 -1q-10 0 -26 4l-33 -10l-37 8l-59 -12l-27 6q-45 1 -76 18.5t-39 41.5l-10 34q14 46 29.5 62t50.5 16q3 0 14 -1t17 -1l20 -14l51 4l80 -4l57 12l50 -2l18 -2l6 27l4 59l11 25l-7 41q0 21 17 38l-2 23l22 25l11 61l8 10l-6 27q26 36 26 49l-2 16
l29 89l8 -3q2 35 8 58l4 -10v6q0 34 29 51l12 18l25 60h4q22 0 22 26v9l58 20h16q27 8 55 8h15l10 4l45 11l53 -13q2 -1 17 -6q20 8 30 8q33 0 64.5 -18.5t40.5 -46.5l8 -8l19 30l53 33l45 -25l35 -14l10 -74q-6 -77 -43 -114q14 -21 14 -35q0 -27 -18 -64l4 -36l12 -37
l-14 -47q4 -20 4 -31q0 -19 -6 -37l-23 -10v-21l-10 2l25 -37l-5 -14q5 -25 5 -31q0 -15 -7 -36l2 -17l-8 -59l19 -47l-15 -49l11 -39l-7 -93l9 -10l-9 -47q5 -20 5 -51q0 -36 -9 -70l4 -30v-39l-8 -23l13 -8v-8q0 -25 16 -47l18 -19h13q23 10 30 10q9 6 41 9l50 30
q16 29 47 41q14 22 47 33q10 23 26 31z" />
    <glyph glyph-name=".notdef" 
d="M25 0v1362h972v-1362h-972zM180 1266l332 -498l330 498h-662zM123 1178v-992q0 -1 82.5 123t164.5 249l83 124zM901 1178l-332 -496l332 -498v994zM842 98l-330 496l-332 -496h662z" />
    <glyph glyph-name=".null" horiz-adv-x="0" 
 />
    <glyph glyph-name="nonmarkingreturn" horiz-adv-x="682" 
 />
    <glyph glyph-name="space" unicode=" " horiz-adv-x="522" 
 />
    <glyph glyph-name="exclam" unicode="!" horiz-adv-x="638" 
d="M406 946l-7 -6l-6 -35h-10l-6 -22h6q4 -26 8 -37l-8 -19q4 -20 4 -28q0 -9 -4 -25l-4 -18l-6 -164l12 -21l-12 -51l12 -43l-10 -20q6 -21 6 -41l10 -35l-12 -6v-10q0 -19 -4 -27v-14q-12 -56 -60 -56q-27 0 -44 22t-17 58v39l-4 45l-12 41l10 23l-10 20l10 53l-21 9
l13 47l-4 18v37l-5 10l5 23q0 10 8 30l-4 7v12l-19 20l23 31l-8 23l6 20q0 11 -1 27.5t-1 21.5q0 8 1 19t1 14q-4 12 -4 16l-7 9q0 7 9 12l-7 8v25l-20 18l8 96l60 -8l32 6l76 -22l10 -29q2 -12 2 -35q0 -12 -2 -18l-6 -12l-4 -7zM446 80l-6 -29q-1 -4 -2 -10l-1.5 -9
t-0.5 -5l-53 -39l-35 10l-31 -14l-28 16h-43l-25 78l17 51l30 29l8 2l21 20q32 -4 45 -10q32 0 47 -10q-10 -7 -20 -10l45 -7l14 -26z" />
    <glyph glyph-name="quotedbl" unicode="&#x22;" horiz-adv-x="665" 
d="M565 946l-6 -8l2 -4l-6 -12l2 -7l-6 -20l4 -25l-16 -14q0 -10 -2 -20l2 -11l-9 -18v-25q2 -6 2 -16q0 -21 -12 -39l-2 -12l4 -56l-51 -30l-59 12l-21 74l6 26l-2 27l-18 43l8 29l-2 16l-8 12l4 39q-4 8 -4 25q0 11 14 22l-14 23l2 29q9 16 31 30q16 13 34 13q10 0 41 -7
l45 -8l21 -22l14 -25zM274 954q15 -12 15 -22t-6 -25l4 -39l-8 -12l-3 -16l9 -29l-17 -43l-2 -27l4 -26l-18 -74l-59 -12l-54 30l6 56l-2 12q-12 18 -12 37q0 12 2 18l-2 11l2 14l-10 18l4 11q-1 4 -2 8.5t-1.5 7t-0.5 4.5l-14 14l4 25l-9 20l5 7l-7 12v4l-6 8l4 41l13 25
l22 22l43 8q31 7 43 7q19 0 35 -13q11 -7 29 -30l4 -29z" />
    <glyph glyph-name="numbersign" unicode="#" horiz-adv-x="1290" 
d="M580 242q-11 -2 -23 -4t-18.5 -3.5t-8.5 -1.5l-30 9l-60 -19l-49 15l-4 -7l-12 -43l-23 -16l-10 -37l-27 -63l-8 -43l-14 -33l-6 -57l-35 -54l-25 -75l-4 -48l-53 -84l-94 37l30 86l-2 39l17 31l4 33l12 6l2 29l11 32l30 78l19 76l18 20l4 37l19 43l-29 13l-8 -2l-35 -9
l-33 13l-47 -9l-31 -14l-37 25l-32 22l-2 35q-4 8 -4 41q27 18 49 18l41 13l41 6l43 -8l37 4l63 -8l43 6l8 14l2 14l-4 7l2 10h6v30q7 26 17 46l8 4l-2 41l22 8v8q0 15 11 33q-21 -4 -37 -11l-35 13l-41 -10l-33 10l-47 -4l-31 -15l-39 25l-32 18l-2 35q-4 12 -4 23
q0 3 1 9.5t1 10.5q32 19 49 19l39 12l41 6l45 -10l35 4l63 -8l49 8l35 -4l10 45l45 92l2 76l39 18l8 64l33 55q6 6 88 59l74 -65l-33 -88l-43 -92l-18 -33l-17 -55l-36 -80l10 -2h12q7 0 47 -4q15 6 39 6q19 0 29 -2l6 -6l88 8q0 17 4 49l45 92l2 76l37 18l10 64l33 55
q24 21 88 59l74 -65l-33 -88l-43 -92l-18 -33l-17 -55l-37 -82l13 -6h16l39 2l25 -9l16 4l24 -12v6q14 4 48 4q33 0 51 -4q18 6 31 6q36 0 63 -4l10 -55l-16 -43l-33 -22l-35 24h-16q-16 -4 -27 -4h-10l-20 -6l-15 8q-10 -2 -31 -2q-18 0 -26 2l-82 -12l-25 8q-27 0 -43 -2
l-12 -31l-20 -26l-5 -72l-22 -23l-14 -49l-17 -10q-3 -11 -10 -18q4 0 11.5 -2.5t11.5 -2.5q6 2 16 2q16 0 29 -8h18l39 4l22 -10l17 6l26 -14l-2 8q24 4 39 4q32 0 62 -6q24 6 49 6q15 0 43 -4l35 -86l-43 -12l-29 -23l-35 25h-18q-16 -4 -23 -4q-2 0 -7 1t-7 1l-18 -8
l-17 8q-5 0 -16 -1t-15 -1q-5 0 -13.5 1t-12.5 1l-82 -12l-25 8q-40 0 -94 -13l-12 -8l-4 -8l6 -10l-12 -19l-21 -16l-10 -37l-27 -63l-6 -43l-18 -33l-4 -57l-35 -54l-25 -75l-4 -48l-53 -84l-94 37l30 86l-2 39l17 31l4 33l12 6l2 29l10 32l35 90q8 46 14 64l21 20l2 37
l18 43l-2 19q-18 -5 -32 -19zM690 410v10q0 33 17 72l8 4l-2 41l22 8q0 29 6 41q-40 8 -59 8q-28 0 -66 -10l-28 6l-62 -17l-4 -10l-20 -26l-4 -72l-23 -23l-14 -49l-17 -10l-6 -16l15 -9l22 7h23q36 0 63 -9q12 6 35 6q4 0 14 -1t17 -1l8 -4l33 2l18 27v35z" />
    <glyph glyph-name="dollar" unicode="$" horiz-adv-x="1376" 
d="M1290 324l-12 -27l-27 -10l2 -31q-83 -57 -141 -57h-12q-32 -19 -51 -19h-29l-53 -30l-15 10l-26 -10q-39 0 -56 -15q2 -19 8.5 -59.5t6.5 -55.5q0 -14 -5.5 -40t-5.5 -39q0 -16 21 -31l-14 -62l2 -12l-11 -20l11 -23l-6 -26l6 -27l-11 -23l9 -12l4 -41v-43l-13 -8
l21 -105l-33 -24l-33 27q-6 6 -10 6q-5 0 -8 -6q0 12 -1 36t-3 69.5t-4 84.5l-8 59l6 54q4 8 4 10q0 1 -1 3t-1 3q0 19 2 29h-17l7 53l-11 57l15 45l-13 17q0 4 -1 13t-1 13q0 5 1 14t1 13l-8 39l-4 2l-22 -12q-4 4 -7 4q-2 0 -20 -6l-35 -15q-8 -4 -24 -4q-13 0 -19 2
l-24 -8q2 -8 2 -23q0 -18 -11 -36l11 -37l-17 -86l8 -37l-8 -23l15 -22l-13 -64l13 -57l-13 -31l2 -4l11 -12l8 -41l-2 -23l12 -24q0 -12 1 -24l1 -13q0 -31 -29 -31q-21 0 -37 16t-16 37q0 30 -8 46l-14 32l-2 49l2 41v54l-11 30l-6 68l10 27q-4 8 -4 14l-4 68l8 32l-10 43
v17q-12 -4 -20 -4q-16 0 -29 8l-16 -8l-54 8l-28 -8l-43 -7l-82 11l-43 -4l-10 8q-21 0 -39 2l-37 -15l-23 27h-35l-32 19q-13 4 -37 18q-64 9 -64 76q0 23 15.5 41t40.5 22l39 6l6 19l98 -10l33 6q24 0 38.5 -12.5t14.5 -30.5q0 -17 -31 -39h15q30 0 47 -12l98 -15
q28 8 47 8q27 15 57 15h80l-4 22l8 84l-10 115q12 15 17 20l-2 7l-27 -3l-23 9l-63 -15l-14 21l-64 20l-16 15l-47 12l-19 22l-33 25l-4 55l-12 49l14 56l27 35l41 8l-12 10q4 3 17 14.5t19 16.5l39 10l64 25l41 4l43 14h20l4 16l-4 13q2 16 7.5 46.5t7.5 43.5l-19 41l23 39
l-4 18v57l-11 50l2 32q7 9 27 19q-2 12 -2 30q0 62 64 62q14 0 22 -7t25 -30l24 -41l-14 -20l-37 -23q14 -14 14 -98l-8 -23l6 -6l-6 -37l12 -20l-4 -51l-12 -15l4 -35l-10 -30l10 -2l21 20l51 -6l29 10l32 -4l-4 21l8 32l-8 60l8 30v37l2 43l23 72l-12 23v22l4 33l-6 49
l20 14l43 -6l29 -26h28l-8 -37l11 -27l4 -55l-17 -25l2 -33l-10 -12l18 -47q-23 -13 -26 -18l26 -70l-36 -35q6 -9 6 -12q0 -7 -8 -12l71 14l88 10l41 -18h23l55 -13q16 -11 16 -24q58 -16 58 -57q0 -14 -10 -31l2 12l-19 -29l-24 -12q-30 -18 -62 -18q-9 0 -45 8
q-7 5 -18 20l-21 -10l-18 29l-35 -4l-29 2l-18 -17l-37 19l-2 -4q-4 -36 -4 -60q0 -25 2 -37q0 -36 -8 -75l14 -35l-14 -41l-2 -25l2 -8l8 -4l6 2q12 2 45 10l31 -34q2 8 10 20q1 0 3 1t3 1q11 0 17 -16l51 8l6 -17h20l23 -14l29 6l28 -22l62 -8l8 -27l43 -51zM791 717
l-9 51l4 18h-34l-29 -6l-37 -14l-37 6l-8 -4l4 -35l-16 -69l16 -99l-4 -12l31 -2l45 -6l16 -4l17 4l34 -17v17l2 51l-2 43zM1120 340l-37 14h-36l-25 27h-55l-11 12l-34 -4l-39 17l8 -74q-21 -6 -21 -15q0 -2 3.5 -7.5t3.5 -8.5l2 -20l2 -7q4 1 13 4t13 3q4 1 43 8
q5 0 10 -1l5 -1q29 26 71 26h11q2 0 10 3t26 10t37 14zM535 729v4h-13q-37 -16 -59 -16l-17 -15l-12 -10q-29 -18 -43 -22l-20 -13l-31 -34l8 -2l-12 -7l57 -4l10 -8q35 -8 52 -22l43 -11l30 9l-2 63l4 4l-8 14zM786 391l-2 23l-43 -4l-6 6l-43 -2q-7 0 -43 8l-14 8l-14 -59
l8 -47l-11 -62l-4 -29l2 -22l31 10l41 -2l27 14l18 5l37 2l10 4v6l-8 6l4 35l-8 37l16 26z" />
    <glyph glyph-name="percent" unicode="%" horiz-adv-x="1454" 
d="M1276 373l-2 -58q4 -8 4 -26q0 -25 -10 -43q6 -18 6 -35q0 -12 -14 -33v-4q0 -39 -48 -90l-16 -31q-20 -7 -25 -16q-14 -35 -51 -47l-14 -15l-43 -22l-43 -31q-31 -22 -66 -22l-14 4l-41 -10l-80 8l-86 55l-24 88v45l-11 37l9 16l-5 25q8 22 18.5 51t16 43.5t10 30
t5.5 24.5l22 11v4q0 3 2 10t2 10v2q1 5 23 58q41 73 63 82v45l58 6l43 24h63l53 -16l64 -4l14 -35q3 -1 8 -2t7 -2q35 -15 53 -53zM1280 1315l-20 -43q-17 -34 -19 -51l-49 -15l-59 -47l-54 -33l-24 -34q-16 -37 -45 -54l-15 -51h-22l-4 -10l-15 -10l-4 -13l-30 -39v-10
q0 -22 -23 -45l-20 -20l8 -23l-35 -22v-21l-37 -45v-22l-63 -68l-5 -27l-43 -61l-26 -68l-43 -67l-6 -10l-9 8l5 -39l-25 -23l-4 -28q-40 -71 -57 -131l-11 -7l-4 -18l-39 -92v-33l-26 -27l2 -18l-41 -86v-35l-15 -20l-4 -15l-8 -14l4 -21q-9 -28 -12 -47q16 -26 16 -57
l-8 -25l6 -24l-8 -8l27 -56l-2 -18q9 -18 16 -39l31 -25l10 -20l55 -23l11 3l28 -21l6 2l2 6l7 -2l18 8q24 -12 47 -12q5 0 16 1t19 1q4 -2 14 -2q18 0 33 12l66 13q19 -13 24 -13v-10l53 -26l-6 -33l-63 -39h-68l-14 -4l-47 -4q-55 -15 -86 -15l-131 31l-45 27l-60 28
l-6 33l-37 35l-4 20l-18 15l-17 53l-16 22l4 89l-8 45l8 16l-8 12q15 100 22 129q25 38 25 78q0 6 4.5 16t12.5 27t14 33l47 96q0 3 -1 8.5t-1 8.5q0 21 14 49q1 0 4 -1t4 -1q13 0 13 28q0 15 -3 39l23 25l-4 14l39 60l24 51l9 4l36 67l33 74q9 10 18.5 17t14 10t4.5 4v2
l21 70l16 22l2 25l43 45l20 69l15 15l10 6q11 3 18.5 20.5t23 50.5t40.5 62l-4 4l26 57l-6 -4l4 8l-28 17q-5 -3 -19 -6q-24 -19 -47 -19q-16 0 -22 2q-30 -10 -62 -10l-47 8l33 -24l-6 -23q14 -25 14 -43q0 -10 -2 -16q8 -13 8 -35q0 -37 -24 -104l-45 -33l-31 -41l-19 -6
l-14 -33l-69 -19l-21 -22l-192 -16l-54 16l-67 51l-19 29l-39 41l6 35q-10 33 -10 53q7 21 23 53l4 6v31q2 -2 8 -2q12 0 12 6q0 4 -12 16q16 47 16 80l2 4q1 5 2.5 14.5t2.5 20.5q1 0 3 -1t3 -1q2 0 6 2t6 2l2 -2q29 20 39 35q3 1 23 35q12 23 26 33l6 6q20 48 51 63
q34 15 56 15q8 0 18 -2t18 -4.5t22.5 -9t23 -10.5t29 -13.5t30.5 -14.5l14 -41v4l27 13l66 -13h71l45 -12l52 10l47 7q67 34 90 34l2 -6q6 0 16 29l43 -8q26 11 27 12q10 15 20 23l-8 10q12 13 59 41.5t76 58.5q21 29 58 29q23 0 61 -23zM518 938l-10 39l-14 -16
q-5 15 -29 36q-9 33 -23 39q-18 0 -51 23q-35 -6 -55 -6q-19 0 -35 8q-2 -10 -2 -27l-25 -10l-14 -27l-4 -34l-25 -33l-14 -25l10 -16l-24 -41l4 -21l-4 -24q11 -34 20 -44.5t29 -10.5h6l74 2l30 -9q5 2 22.5 20.5t35.5 29.5h35q5 6 26 40q29 26 29 50v14l2 14zM1147 307
l-14 55l-19 27l-24 12q-4 6 -13 15l-28 -4l-25 8l-8 -33q-35 0 -51 19l-11 -48l-14 -10l-4 -24l-45 -43l-8 -43l-17 -13q-5 -28 -16 -59v-10q0 -16 -6 -31q2 -53 11 -78t32 -29q18 4 37 9q12 7 49 16l18 12l78 56q8 20 27 32q18 6 18 11q0 1 -1 2t-1 2q9 14 14 26l15 72v16z
" />
    <glyph glyph-name="ampersand" unicode="&#x26;" horiz-adv-x="1241" 
d="M287 743l-13 13l-8 14v25l-4 34q20 41 39 60q6 28 39 39l12 35q119 62 154 65q24 18 59 21q25 8 70 26l72 17l14 8l94 4q27 0 31 2l-2 6h10q23 0 39 -2l53 -29l64 -4l24 -28l41 -21l37 -43l55 -31l-10 -28l8 -33q-6 -50 -53 -64l-37 11h-55l-6 37l-41 4l-8 45l-15 16
q-8 4 -20 12l-64 9l-41 -5l-37 5l-45 -7l-2 5l-6 -7l-33 4l-40 -12l-35 -2l-49 -22l-43 -29l-23 -4l-14 -19l-27 -12q-9 -26 -33 -35l-16 -16l10 -43q-4 -15 -14 -25l76 -53l57 -10q26 0 57 -8l13 8l22 -4l23 10l22 -4l53 4q8 -4 23 -4t27 12q16 4 22 4q15 0 39 -18l22 -2
l23 -19l55 -28q-38 -90 -94 -90h-78l-45 -9l-4 4q-25 0 -37 5l-73 -5q-20 -8 -41 -12l-11 -6h-39l-24 -12l-31 -6l-41 -29l-63 -12l-99 -68q-3 -44 -20 -76l14 -35l17 -12l84 -12l6 -6q12 4 30 4q19 0 27 -4q3 -2 7 -5.5t6.5 -6t5.5 -3.5q2 1 7.5 3t12 4t12.5 4h35l23 -15
l26 15l27 -2l24 8l13 -6q40 16 65 16q5 0 37 -8q16 8 57 22t60 27l84 29l33 20l4 66l59 16l27 -10l20 10q2 0 5 1t5 1q11 0 20.5 -9.5t24.5 -33.5l33 -72l-26 -43l14 -24l-8 -25l2 -30l-2 -17l2 -24l-15 -37l41 -66l-28 -22l2 -39l-12 -15l4 -14l-7 -33q7 -25 7 -41
q0 -28 -15 -55q-4 -34 -14 -57h-12l16 -25l-18 -29l-15 -12q-12 -40 -75 -115l-35 -28l-25 -17l-53 -18l-39 -20l-49 8q-4 0 -11.5 -1t-11.5 -1q-3 0 -9 1t-9 1l-37 -21l-12 19l-13 -4l-38 16l-17 -6l-33 16h-37l-63 12l-37 -2l-55 21l-29 22l-39 9l-76 20q-38 23 -83 23
l-17 18l-37 10l-4 9l-33 4l-8 24l-47 17l-31 30l-34 23v39l-25 61q28 3 66.5 23t54.5 24q61 0 72 -53v-6q0 -19 -33 -45h18l10 -27l41 -20l93 -29l8 -16l37 8l22 -17h37l23 -18h16l63 -22l7 -3h10q48 0 94 -22l16 6q41 -3 84 -22l19 28q31 -22 53 -30l6 2l25 14h32
q20 14 52 18l10 39l27 10v7l24 32l-2 29l19 23l-9 16q31 25 31 51v4q8 19 8 33l-16 33l8 65l4 58l-4 24l-2 15l10 2l-4 4l-26 53l2 27h-5l-49 -37l-53 -2l-74 -13l-16 -16h-12q-66 0 -125 -27l-17 7l-39 -21l-12 18l-51 -12l-55 4l-15 4l-10 -6l-8 -16l-62 45l-28 -6
q-35 0 -49 14q-22 10 -47 25q-47 11 -86 62.5t-39 86.5v10l-15 21l6 20l-4 43q33 27 61 54t39.5 39t12.5 12q13 21 47 39l12 2q2 1 11.5 5.5t13.5 6.5l6 12l74 17q23 4 33 14l-11 10h-18l-62 29l-8 25q-20 26 -30 59z" />
    <glyph glyph-name="quotesingle" unicode="'" horiz-adv-x="442" 
d="M317 909l-10 -32l-12 -21l-2 -16l8 -29l-18 -43v-27l4 -26l-19 -74l-59 -12l-53 30l4 56v12q-13 19 -13 37q0 9 3 18l-3 11l3 14l-11 18l4 11q-2 6 -4 20l-14 14l2 25l-6 20l4 7l-6 12l2 4l-8 8l4 41l12 25l23 22l43 8q32 7 43 7q31 0 75 -56l-8 -32l8 -13z" />
    <glyph glyph-name="parenleft" unicode="(" horiz-adv-x="856" 
d="M776 1372q36 -2 50 -11.5t14 -35.5q0 -42 -43 -72l-9 -10l-22 -18q-10 -28 -55 -47q-25 -3 -25 -84l-18 4q-38 -33 -56 -74q-10 -30 -24 -47v-21l-23 -34l-2 -33l-26 -47v-21l-15 -51q-20 -82 -20 -139q0 -21 2 -29l6 -27l-10 -16l8 -16l-10 -21l8 -22l-8 -51l14 -50
l16 -67l19 -101l10 -16l-2 -10q23 -20 23 -41q0 -2 -1.5 -6t-1.5 -6l13 -29l28 -31l21 -53q13 -13 16 -27l15 -30h39v-17q0 -71 73 -127v-35q0 -21 -19 -40t-54 -31l-39 -11l-50 17l-10 26l-12 11l-55 75l-37 72l-43 60l6 20l-27 53v6l-16 9q-2 34 -31 86v2q0 6 -16 84
l-12 22v29q-3 -7 -7 -21l-8 127v47l-12 52l6 14q-6 18 -6 27q0 3 1.5 11.5l4.5 25.5l6 34l-18 56l18 30l10 107h15l6 28l14 70l19 41l26 41l11 43l18 43l31 45l22 10q34 85 111 136l6 4l6 18l35 14l22 23l19 29z" />
    <glyph glyph-name="parenright" unicode=")" horiz-adv-x="856" 
d="M578 432l-19 -31l-10 -106h-14l-5 -29l-16 -69l-16 -41l-29 -41l-10 -43l-19 -43l-30 -45l-21 -9q-34 -85 -113 -137l-6 -4l-4 -18l-37 -15l-20 -22l-21 -29l-55 -24q-39 1 -50 11t-11 40q0 34 41 67l8 11l24 18q8 30 54 49q26 3 26 82l17 -4q35 25 57 74q7 28 23 47v20
l22 35l2 33l27 47v20l16 52q21 102 21 145q0 17 -2 23l-9 26l11 17l-9 16l11 20l-6 23l8 51l-17 49l-14 70l-21 98l-10 17l2 10q-22 19 -22 41q0 2 1 6t1 6l-10 29l-31 31l-21 53q-13 10 -16 26l-12 33h-41v19q0 66 -74 123v34q0 22 19.5 42t54.5 30l41 10l49 -16l8 -27
l12 -8l56 -76l39 -71l41 -60l-7 -22l27 -54l2 -6l14 -8q8 -49 31 -86v-4l16 -82l13 -22v-29q0 2 2.5 8.5t3.5 11.5l10 -127v-47l10 -51l-6 -12q6 -18 6 -29q0 -9 -10 -74z" />
    <glyph glyph-name="asterisk" unicode="*" horiz-adv-x="1132" 
d="M1042 748q-23 -45 -73 -48l-19 13l-35 6l-51 22l-51 17l-2 6l-33 6l-133 70l-43 16l-22 10l-29 4q0 -17 10 -47l-8 -16q2 -8 2 -21q0 -10 -2 -16q4 -28 4 -31v-8q4 -5 8 -39v-47l10 -55q-9 -47 -53 -47q-33 0 -47.5 31t-19.5 102q-3 38 -6 78v43q0 28 -5 57l-34 -25
l-35 -20l-15 -18l-49 -37l-43 -43l-20 -4l-6 -9q-65 -80 -99 -80q-18 0 -31.5 15.5t-13.5 34.5q0 25 35 57l8 6l6 19l70 38q16 19 35 27q7 17 31 41h4l6 2q23 11 26 25l23 12v10l47 23v16l-20 -4q-65 -10 -113 -10l-61 -15l-31 7l-39 -11q-55 6 -55 41q0 9 8 25l24 39h43
l21 6l65 -2l86 8l-49 10l-10 23l-57 24v33l-19 33l64 33l30 -6l35 -39q3 7 13 10l45 -31l67 -51q-2 12 -2 33q0 20 2 30q-6 18 -18 39l16 41q-6 24 -6 41q0 11 8 47q0 4 -1 8t-1 5q0 2 1 4.5t1 3.5l4 12q12 6 27 6q13 0 31 -6h34l23 -26l29 -54l-15 -45l4 -39l-8 -8v-10
l-2 -16l6 -52q35 28 37 29l15 16l6 27q9 4 21.5 9.5t21 9t14.5 4.5h6q6 12 21 18q16 25 47 25q21 0 35 -11l16 -6l4 -2q1 0 21 -8v-10q0 -26 -15 -41l-8 -8q-2 -2 -8.5 -7t-9.5 -8l-74 -65q17 -6 47 -9l18 5h82l8 6h48l30 10l54 -16q18 -15 18 -33q0 -12 -5 -19t-18.5 -10
t-27 -4.5t-39.5 -4t-47 -5.5l-70 -2l-18 -8h-123l-23 -13h-47l78 -35l27 -16l24 -6l45 -29q43 -21 56 -24q10 -4 55 -4l12 -21q18 -12 53 -25.5t48 -21.5q27 -6 38 -20z" />
    <glyph glyph-name="plus" unicode="+" horiz-adv-x="1705" 
d="M782 1221h142v-541h528v-139h-528v-541h-142v541h-528v139h528v541z" />
    <glyph glyph-name="comma" unicode="," horiz-adv-x="542" 
d="M399 86l-30 -47l-29 -14l-12 -17l-31 -26l-12 -17l-37 -22l-70 -70l-37 -16q-16 -33 -39 -47l-8 -7l-14 -26l-29 -27q-33 -10 -51 -10q-7 0 -31 4q-2 8 -2 25t8 45l7 20l6 8q6 34 41 49l2 7l20 28l8 29l11 14l22 11l4 8q2 9 17 20l12 8v21l18 4q0 21 13 47l20 16
q0 7 4 19q0 4 1 10.5t1 9.5l13 17q15 21 31.5 29t43.5 8q30 0 76 -19l6 -8l39 -10z" />
    <glyph glyph-name="hyphen" unicode="-" horiz-adv-x="733" 
d="M678 420l-45 -33l-58 6l-26 -4l-55 -6l-70 4q-16 -4 -47 -4h-27l-49 -6l-14 4l-76 -8q-12 8 -21 8q-11 0 -28 -10l-35 6h-39l-35 45v41l27 2l20 27l52 -21l18 6q10 -2 29 -2h10l12 4v-8l21 -6l14 10l27 -4h43l94 4l4 -10l8 2l8 -6l27 8q16 -8 41 -8q17 0 35 6l32 -8h25
q70 0 78 -39z" />
    <glyph glyph-name="period" unicode="." horiz-adv-x="542" 
d="M383 98l-4 -28l4 -19l-14 -6v-14l-23 -17l-18 -24l-39 -2l-13 -2q-8 -4 -24 -4q-22 0 -43 12q-18 7 -21 10q-12 6 -18 25l-16 12l-9 2v57q0 13 14 29t36 25q12 11 47 34l34 -10l7 -6l6 6l12 -8h10q24 0 35 -16l14 -27z" />
    <glyph glyph-name="slash" unicode="/" horiz-adv-x="884" 
d="M874 1167q17 -39 17 -57q0 -33 -25 -49l-10 -6q-29 -19 -82 -117l-57 -68l-10 -34l-29 -31l-25 -39q-10 -23 -37 -33l-10 -37q0 7 4 17l-55 -64l-31 -37l-10 -28l-41 -58l-74 -90l-4 -6v-59l-41 -6l-51 -60l-10 -37l-25 -8l-35 -49v-27l-40 -39l-9 -14l-30 -35l-17 -30
l-10 -5l2 -10l-25 -18l2 -10l-28 -52l-15 -12q-21 -47 -57 -47q-45 0 -57 55l20 45l47 70q3 43 39 57l8 11v-7l19 25q6 36 39 53l14 49l25 17v6l41 47l12 33l12 8q3 7 9 16.5t8 12.5l8 12v31l35 65h14q13 21 33 37q22 35 28 41l7 37l32 8l17 18v23l24 37l33 29l14 24l35 21
l2 26q2 29 43 66h8q7 0 7 2q0 1 -2 3.5t-6 8t-7 10.5l56 56q7 18 20 30v17l19 32v52q18 12 28 12q6 0 8 -2l2 35l9 2l2 43l100 10l29 -18z" />
    <glyph glyph-name="zero" unicode="0" horiz-adv-x="1116" 
d="M1049 469l-19 -18l17 -21l-43 -45l-25 -61l-39 -33l-12 -25l-21 -16l-18 -27l-21 -6v-18l-43 -15l-24 -26l-33 -15l-18 -26h-23q-25 -8 -41 -11l-33 -30l-65 -23l-45 -26l-37 -7l-27 -14l-49 -6l-14 -2l-23 -23l-65 11l-17 -6l-35 6l-20 -4l-33 14h-20q-29 0 -58 33
q-37 15 -49 39l-8 12l-25 22l-28 68l4 14l-12 15l12 49q-6 15 -6 31q0 22 14 36v13q0 23 -2 37l29 59l8 49l20 27l13 47l16 37q5 40 39 82l16 16l-4 8l21 33l2 45l39 12l16 25q25 3 25 35l53 53l10 -4l10 37h33l4 18h13v23h20q40 0 45 20l82 23l47 18h19l43 8l12 -6
q20 8 31 8h8q42 -13 65 -59l27 -16l29 -25l34 -10l35 -60l33 -20l14 -33q2 -5 17 -12q32 -25 32 -80l29 -31l-8 -16l6 -6q16 -122 16 -148q0 -18 -10 -35zM907 563l-6 19l2 28l-20 37l4 29l-13 14l-4 29l-12 26q-43 22 -57 64l-13 6l-22 16l-45 3l-33 40l-6 7q-24 -4 -37 -4
h-12l-19 -13l-28 -6l-13 -16l-55 -29l-37 -14l-32 -25l-43 -45l-29 -18l-21 -41l-45 -43l4 -27l-39 -33l3 -28l-31 -21q-9 -67 -41 -84q4 -8 4 -10q0 -12 -12 -21l2 -16l-11 -22l5 -37l-23 -15l23 -14l-17 -25l15 -24l-17 -23l2 -8l-6 -22q22 -32 25 -43q15 -29 32 -35l25 4
q2 0 5.5 1t4.5 1q20 0 39 -16q35 6 39 6h-2l10 -2l8 6l58 2l26 6l29 23l16 -3l21 31l33 -6l16 16l23 -6q12 11 24 19q23 3 39 14q5 11 19 21v20q30 0 44 4.5t21 18.5l51 30q11 20 33 29q23 14 23 37q0 9 -3 18l35 15q3 6 15 22q-2 4 -2 12q0 18 24 58l-6 22z" />
    <glyph glyph-name="one" unicode="1" horiz-adv-x="1075" 
d="M981 4l-90 -2l-84 -16l-62 12l-28 4l10 10l-37 -16q-28 4 -45 4q-6 6 -10 27l-35 -31l-41 4q-7 0 -20 -1t-19 -1q-21 0 -53 4l-53 -8l-4 10l-23 -4l-35 -2l-41 -21l-10 11q-15 -6 -35 -6h-14l-6 8q-15 -6 -29 -6q-16 0 -31 6q-4 -2 -11 -4.5t-9 -3.5q-66 0 -82 32
q-23 7 -37 15v34q-8 16 -8 25q0 13 10 26.5t21 16.5l51 12l8 2q6 2 18 2q23 0 37 -14q1 1 4.5 2t8 3t8.5 5l37 4l41 13l61 -4q50 -15 74 -19l4 6l-21 35l5 31q-7 18 -7 27q0 11 9 20q-9 41 -9 59q0 23 23 43l-4 39q6 6 6 11q0 2 -1.5 4t-3 3t-5 4t-6.5 5l-9 68l7 2l16 30
l-14 39l24 27l8 43v10q0 22 11 41q-7 10 -7 21q0 2 1 7.5t1 8.5l-8 -4q-10 -4 -30 -8l-43 -17h-9q-21 -16 -51 -16h-10q-7 -7 -20 -22t-19 -19l-35 18l-20 -4q-34 -7 -74 -41q-24 26 -53 33l-62 21l-22 51q27 55 63 55q17 0 41 -8l25 -21q22 19 43 19q16 19 98 28h10
q19 0 38.5 15t29.5 18l-10 6l65 15l10 14q-2 2 -6 5.5t-7.5 7t-6.5 7.5l66 31h24l8 -10q8 -3 11 -8q-5 15 -5 35q0 32 25 57l76 18h80q57 -54 57 -84q0 -23 -23 -39l-51 -40q0 -2 -1 -6.5t-1 -6.5t1 -6t1 -6l-8 -4l-14 4l4 -59l-12 -9l-9 -18l-6 -6q-2 -2 -2 -6q0 -11 8 -19
q-16 -30 -23 -71.5t-14 -51.5l9 -14l-23 -43l4 -27l-10 -43l8 -16l-12 -35q6 -21 6 -37q0 -8 -2 -14q12 -37 14 -47l-22 -10v-4q4 -10 4 -33t-4 -35l22 -14q-7 -11 -14 -37l-4 6l2 -39l12 18l35 -10l59 10l3 -10l88 25l-17 -43q10 2 23 2q22 0 47 -10h6q52 10 74 10
q17 0 71 -13l13 13q55 -24 55 -64q0 -33 -41 -51z" />
    <glyph glyph-name="two" unicode="2" horiz-adv-x="1273" 
d="M1249 70l-10 -45l-31 -13l9 -2q-38 -28 -80 -33l-21 3q-24 -17 -45 -17q-10 0 -14 2q-4 0 -11 -1t-10 -1t-7.5 1t-6.5 1l-21 6h-28l-35 15l-20 -13l-17 9l-33 -7q-12 12 -12 23q-8 -2 -22 -2q-24 0 -41 14h-9q-12 0 -24 6l-10 -4l-7 -2q-30 19 -71 37q-28 0 -68 16h-43
l-6 15l-53 -4q-27 14 -27 16v4l-6 -12l-25 -8l-4 2q-22 -22 -55 -25h-4l-14 -18h-15q-23 0 -41 -6l-2 -17l-49 -2q-18 -18 -39 -18q-12 0 -24 6l-23 -8l-55 2l-86 33l-29 26l-12 37q-2 12 -2 29q0 3 1 8t1 8l6 43l-12 19q68 62 90 65l28 21l25 -5l12 9q54 8 60 8q2 0 5.5 -1
t4.5 -1q30 6 53 6q27 0 35 -4l49 -19l53 -8l66 -26q18 9 43 12l-2 6q44 21 61 25h6l13 26l51 27l33 14q4 22 20 33l2 16q30 9 35 9q7 0 10 -3l23 25v16l16 -8l8 49l45 7q11 24 41 34l25 17l8 24q1 10 7 20.5t6 12.5v2q0 25 12 35l-6 35l16 20v31l-31 47q-13 33 -98 64
l-16 -3l-37 25h-37l-10 14l-13 -2l-39 11l-16 -5l-25 7l-47 -7l-8 7l-16 -11l-19 11q-25 -2 -43 -2q-23 -13 -43 -13l-32 -18l-45 -8l-7 -9l-22 -10l-8 4q-1 -1 -7.5 -8t-11.5 -14h-8v-15l-29 -4v-24l-49 -15q-8 -6 -18 -16q0 -14 -25 -33l-80 -8l-37 35l-20 51v19
q0 39 31 61q12 36 49 45l4 12h27l2 7l106 49l14 -2l11 6v4q50 26 104 26q4 0 12.5 -1t12.5 -1q50 29 96 29h18l62 -6l55 4l58 -12q31 -4 47 -10l12 -5h-4l26 -14q34 -3 58 -14q1 -1 6 -8t10 -11l17 2l26 -28l55 -21l80 -82l13 -41l32 -12l-10 -31q4 -24 4 -34q0 -4 -1 -11
t-1 -10l12 -33l-14 -26l4 -23q-1 -17 -8 -31.5t-18.5 -29t-16.5 -23.5l-22 -37q-17 -32 -51 -47l-21 -45l-20 -6l-7 -10q-15 -27 -65 -41q-28 -22 -31 -39l-37 -25q-4 4 -12 4q-4 0 -13 -2t-14 -2q-2 0 -5 1t-5 1l-47 -37l10 -6q-2 -6 -7 -9.5t-16.5 -8t-19.5 -8.5
q-35 -15 -47 -19l74 -6l39 -18h39l8 -13l39 -2q3 -16 20 -16q7 0 19 4q4 -6 4 -18l-2 -2q0 -2 2.5 -3t8.5 -3.5t11 -4.5l31 19l18 -10l43 -3l41 7l27 -15l51 -10l31 12h29q22 11 47 11q24 0 45 -9zM358 158l-28 12l-64 14l-33 -6h-59l-39 -10l-31 -31l17 -18l-4 -17l37 -10
l57 6l61 11l45 20z" />
    <glyph glyph-name="three" unicode="3" horiz-adv-x="1234" 
d="M1145 233l-33 -34l-12 -37l-43 -21v-16l-37 -6l-23 -29q-16 -2 -29.5 -5.5t-20 -6t-7.5 -2.5t-6.5 -3.5t-16.5 -7.5t-26 -6q-27 -19 -66 -22q-37 -21 -98 -33l-25 6l-90 -24l-45 2l-37 8q-16 -4 -28 -8l-53 -6l-33 4l-21 -6q-4 1 -26 8l-7 2q-5 -2 -12.5 -4.5t-9.5 -3.5
q-17 0 -35 6l-18 -4q-13 0 -19 2q-4 -2 -12 -2q-14 0 -33 8l-35 -12l-22 22l-14 -8l-25 10q-18 -12 -33 -12q-17 0 -31 20q-36 6 -46.5 30t-10.5 79q0 68 62 74q21 12 51 12h14l60 6q32 -10 50.5 -27t18.5 -32q0 -18 -18 -33q11 0 26 -6l39 8q25 0 47 -19q37 11 74 11h39
q21 14 33 14q13 0 30 -10q19 13 41 16l39 -22l4 6q36 5 46 8h24l39 27q36 -4 43 -4q14 0 47 20h21l6 10l45 35l28 -4q58 27 74 45q4 12 4 29q0 12 -32 18l-37 27l-43 8l-62 -12l-16 20l-17 -4l-24 23l-8 -7q-35 7 -37 7q-18 -3 -39 -9q-8 4 -23 19l-10 -4q-34 -10 -72 -13
l-14 15l-47 4l-39 16l-45 -2l-45 23l-37 30l-14 45l20 48l47 14q50 26 88 33l50 18l114 21l21 14h37l18 22q4 -1 8.5 -4t5.5 -4q42 39 90 39q1 1 19 10l4 5q20 15 53 32v13q-16 26 -114 45l-52 -4q-36 8 -55 8q-24 0 -45 -6h-23l-38 -11l-35 11l-17 -19l-55 -4l-24 -2
l-50 -16q-19 -19 -39 -19q-12 0 -32 10q-3 -12 -11 -20h-12q-15 0 -25.5 -6.5t-15.5 -13.5t-18 -29q-15 0 -21 2l-14 -35l-78 35l-20 22l8 15l-15 -2q-12 18 -12 32q0 11 2 15l13 41l12 10q16 16 41 16h6l16 21l33 -6q26 20 57 20h11q0 13 12 25h41l18 10l33 4l29 -22l-2 18
h30l29 8q33 8 70 15l24 -3q40 11 86 11h27l-8 -6h10q16 0 31 -9l22 9l43 -5q15 0 41 1.5t37 1.5v-17l47 -16l58 -11l26 -38l39 -29l19 -45l-11 -45v-4q-12 -29 -22 -43q-27 -47 -80 -64l-16 -20l-54 -25l-47 -8l-29 -21l-45 -12l-32 -14l-41 6l-49 -16l51 -17h55l29 2h22
q31 0 47 -14q37 -12 86 -12q3 -2 6.5 -5.5l5.5 -5.5t3 -2q2 0 4 2q2 0 22 -4l47 -4l31 -22h25l49 -49l12 -50l29 -28l-8 -25z" />
    <glyph glyph-name="four" unicode="4" horiz-adv-x="1286" 
d="M1260 494q-8 -66 -58 -86l-6 -27q-41 -33 -70 -33q-13 -15 -57 -22l-16 -9l-56 -12l-26 -6l-25 10l-28 4l-31 -6l-39 15v-5l-14 -16l2 -22l-5 -23l3 -14l-17 -33l10 -8l-10 -13l12 -38l-18 -21l10 -29l-12 -37q8 -11 8 -24q0 -11 -8 -19l4 -20v-10q21 -30 47 -82l-24 -21
q-22 -18 -54 -18q-31 0 -63 14l-4 49l-19 25v25l-26 22l10 19l-10 10l8 20l-8 39l-8 17l16 30l-6 23l12 53q-8 11 -8 27q0 10 6 22l4 17q4 16 4 28q0 4 -1 12.5t-1 12.5l-31 16q-53 0 -102 15h-51l-12 8l-39 -11l-25 19l-43 -4l-16 12h-19q-27 -6 -45 -6q-58 -21 -59 -21
q-5 -2 -21 -10l-6 -16l-22 -4q-18 -8 -52 -8h-18q-15 -9 -33 -9q-19 0 -37 9l-4 10l-14 4l-25 59q16 42 60 68l2 8l20 21l49 22l72 4v-10l45 33l33 -6l12 24l19 14l-4 21l53 14q10 23 28 41l5 2q15 22 24 29l8 4q11 7 13 14l20 21l14 27l23 10q14 35 22 41q5 15 25 35
q-6 0 -6 4q0 8 16 24q4 6 39 25q-2 12 -2 37l37 22q13 44 26.5 63t37.5 19q10 0 43 -10l12 -25l10 -6q8 -4 8 -20v-58q-6 -12 -14 -26.5t-10 -18.5l-6 -4l-7 -35l-24 -8l-8 -18q-1 -18 -14.5 -36.5t-45.5 -53.5q-7 -7 -10 -11q0 -22 -9 -34t-32 -23l-6 -4q-21 -27 -29 -35
q-15 -23 -47 -37l-12 -8l-4 -14l-29 -17l-8 -8l10 -2l33 2l31 -12q21 -14 38 -14h7q7 -1 36 -8t46 -7q11 0 26 6l31 -8l8 17v18l21 22q0 7 6 31l-6 43l16 4l-6 17q20 17 20 26q0 3 -12 31q8 2 16.5 13t14.5 12l2 67l8 2l-2 10q14 21 20 27q-10 17 -10 35q0 10 2 16l15 23
l-5 24l9 45l-2 29q19 57 79 57q45 -19 74 -69q8 -24 8 -64l-18 -22l2 -53l-6 -17l-6 -18l-15 -27l7 -37l-15 -8l-2 -18l-18 -37l4 -33l-23 -86l-41 -90l2 -8l11 -4l49 -17l26 4q4 -1 12.5 -2t12.5 -2l94 33l21 14l51 13q25 32 63 32h13z" />
    <glyph glyph-name="five" unicode="5" horiz-adv-x="1247" 
d="M1333 1049q80 -24 80 -58q0 -35 -63 -53l-54 -2l-55 -21l-39 9l-33 -9l-51 -10q-15 3 -24 6l-23 -6l-51 6q-45 -15 -178 -30l-64 2l-28 -11l-15 9l-73 -11l-41 11l-37 -11l-19 4l-16 -14l-19 -2l-26 -59v-37l-31 -12q-3 -4 -5 -8.5t-3 -8t-2 -4.5q0 -16 -10 -29l-35 -14
v-16q0 -7 -27 -31q69 14 90 14q17 0 29 -4l12 4q8 4 29 4q16 0 37 -8l37 6l125 -4l20 -8q3 0 9 1t9 1q21 0 37 -8l54 -2l45 -10l73 -29l33 -43l43 -25l21 -71l18 -21l-6 -37l4 -61q-17 -7 -20 -51l-19 -13q-27 -76 -70 -90l-22 -22q-16 -16 -16 -43v-8q-35 -7 -41 -9h4
q-26 -37 -76 -43q-9 -4 -36.5 -23.5t-49.5 -19.5q-3 0 -8 1t-8 1l-64 -32l-61 -4q-2 0 -5.5 1t-5.5 1q-16 0 -47 -21l-39 12l-32 -12l-43 6l-13 -4q-28 0 -45 17q-36 4 -41 4q-2 0 -13 -2t-22 -2h-10l-26 18q-49 10 -70 25h-37l-39 32l-76 29l-20 39l-27 31l-26 75
q0 3 -1 8.5t-1 8.5q0 13 6 28l8 11v14l-21 -25q1 0 35 43q27 17 47 17q62 0 62 -78q0 -22 -2 -45l14 -23l10 -10l37 -12l17 -25l30 -4l37 -20h29l20 -13q33 -7 41 -12l68 -4l47 2l25 -4q42 14 49 14q4 0 28 -6q3 2 11.5 5t11.5 5h41l12 3l15 10q24 15 65 24l8 27h58
q18 12 22 14q9 33 51 39l6 2q12 18 15 29l31 59l16 -4q16 19 16 31q0 9 -12 33l16 8l-2 16l2 9l-6 8v32l-2 7l-63 32l-11 9q-15 6 -18 6l-29 -4l-16 8l-23 -10l-28 20l-15 -2l-61 8h-47l-19 6l-47 -14l-28 12l-6 2l-29 -10h-41l-74 -14l-18 8l-51 -14l-13 4l-10 -8l-18 -21
l-56 -10l-49 24q-12 24 -12 35v2l6 21v59l16 12v27l43 12q21 21 29 31q21 12 21 18t-7 9q21 53 62 73l6 17l14 30l-22 15l-19 45l-45 29l49 67l111 21l10 10l45 -6q25 10 52 10q43 0 114 -6l4 4l84 4l31 -12l154 16q68 -18 110 -18q34 0 55 14l103 4l63 6l54 4z" />
    <glyph glyph-name="six" unicode="6" horiz-adv-x="1302" 
d="M1231 408l-6 -33l-19 -35l-14 -12q-6 -22 -29 -39l-10 -13l-4 -28l-62 -25l-10 -10l-24 -6l-25 -19l-6 -2l-4 -18l-39 -4l-6 -8q-51 -28 -82 -37l-68 -33q-32 -17 -71 -20q-1 -1 -4 -3.5t-9.5 -8t-13.5 -11.5l-20 8q-31 -21 -152 -37l-47 -14l-37 -16l-37 6l-6 -8l-27 -5
l-28 -12l-60 19l-16 20l-19 -6l-30 27l-60 24l-63 72l-17 55l-12 49v19q0 12 1 24l1 13q0 7 -5 22t-5 25q0 26 20 43l15 37q8 3 8 6q0 8 -8 16l18 39l6 27l23 36l6 21l21 33l-2 6l45 59l12 43l6 6l6 17l31 41q47 35 49 35q-2 2 -2 6q0 5 14 30l29 9v16l35 10l28 29l11 4
q101 85 143 92l14 17l39 10q21 26 60 26q28 7 45 7q5 0 35 -5h51q71 -62 71 -100q0 -23 -22 -39q-6 -20 -92 -61l-43 26l-8 11l-23 -4h-16l-19 -9h-35l-26 -16l-27 -27l-43 -22l-31 -23l-4 -2q-3 -3 -6 -6.5t-7.5 -9.5t-10 -16.5t-10.5 -24.5h-27q-8 -10 -19.5 -22
t-13.5 -15q-4 -13 -24 -29l-7 -4q-18 -12 -30 -24v-33l-17 -10q-5 -26 -37 -39q-13 -13 -20 -49l-21 -37l5 -33l-19 -47l-12 -21l2 -24l-19 -23l-6 -22v-15l-4 -8l4 -20l2 -15l15 -16l8 -14q2 6 2 14t-2 10l4 17l18 10l17 55l28 33l84 66l19 8q20 33 67 39l13 -2l33 28
l43 17l34 6l19 24l45 2l55 33l68 8q20 23 51 23h8l25 4l18 -6l107 4l14 -6l35 6l59 -33q56 -19 78 -65l27 -25v-41zM1090 408v10l-5 12l-20 10l-4 15q-12 3 -29 12q-22 0 -45 10l-6 2l-53 -12q-3 0 -21.5 -1t-34.5 -1l-12 6q-57 -13 -69 -25l-46 -26l-49 -8l-16 -13l-18 -2
l-17 -12h-8q-28 0 -41 -29l-47 -10q-25 -32 -68 -45l-24 -37l-35 -14l-29 -41v-10q0 -25 -12 -43l-10 -6q-20 -16 -33 -21l47 -4l16 -8l15 2l37 -13l10 17q24 4 43 4q14 2 117 27q24 15 57 18l12 2q29 18 68 21l65 22l29 8l25 19l24 8l29 20l22 9q2 2 10 11.5t15 16.5l61 33
q11 18 19 29l18 12l4 6z" />
    <glyph glyph-name="seven" unicode="7" horiz-adv-x="1396" 
d="M1452 498l-90 -17l-72 -30l-61 8q-28 -4 -39 -4h-12l-15 -15l-73 -4l-27 10l-27 -8l-37 -2q-59 6 -104 6h-4q-4 -2 -14 -12l-11 -16l-10 -8l-10 -41l-27 -19q-15 -25 -47 -88l-22 -6q-15 -25 -17 -27l-2 -12l-29 -20l-22 -33l-10 -6l-11 -35h-18q-8 -15 -18 -23
q-20 -56 -54 -65q-10 -33 -47 -58l-28 -57l-39 -16l-15 -23h-10l-14 -12l-8 -27l-35 -14l-11 -19l-45 -20l-8 -10q-13 -15 -25 -29.5t-16.5 -20.5t-5.5 -6q-7 -5 -39 -8q-9 -15 -26 -18l-2 -4l-39 -37l-23 2l-12 -16l-35 -9l-47 -22l-72 -2l-69 26l4 31q3 27 32 33
q8 0 66 37l29 -2l16 24q9 0 16 -10q21 35 54 35h6q26 26 49 31q19 22 53 32l4 2l11 -12l4 39l41 27l16 41q14 20 23 20q4 0 4 -6l12 22q13 11 32 20.5l21 10.5q8 15 23 23l24 34l25 17q13 19 18 35q32 25 39 53l25 55q12 0 28 4q12 45 54 78h10l8 8l19 49l36 27l15 43l-8 4
l-15 -6l-61 6l-35 -6l-59 16q-18 9 -23 9q-14 0 -33 -19h-45l-24 15h-31l-55 57l16 12l-2 19q3 26 19 40.5t49 22.5q20 0 32 -6q50 8 64 8q21 0 35 -14h6q35 -12 67 -12h15l55 8l127 -15v17l25 6l4 8q3 31 30 49q9 44 25 64l-6 45l37 14l8 33l18 12q12 23 15 35l-7.5 -2.5
t-8 -2.5t-5.5 -1l-14 -23l-62 11l-47 -15l-28 -33l-45 23l-35 -12l-29 10l-39 -2l-33 -16q-38 10 -57 10q-5 0 -17 -1t-20 -1h-45l-74 -4l-20 14l-23 2q-18 -6 -34 -6q-20 0 -43 10q-13 0 -33 4l-6 -2l-62 12l-24 -8h-11q-44 0 -80 25q-40 30 -40 82q0 30 16 80l49 -11
l39 19l25 -25q23 -1 41.5 -13t31.5 -24t23 -12h4l51 12l55 -16l31 8l68 -12h112l19 -4l45 24l10 -16q15 6 31 6q6 0 22 -4l21 14l59 2l80 11l53 16h4q21 18 60 18q22 11 41 11q14 0 20 -2l-6 10q32 38 80 49q23 10 33 10q27 0 73 -32l27 -93l-67 -36l-13 -13l-33 -24l-6 -45
l-20 -17l-15 -57l-24 -12l-8 -17q-3 -14 -19 -26l-6 -7q1 -3 8 -19t11 -30q-44 -9 -45 -10l-31 -72l35 6l22 -12l70 -10q3 11 20 25l51 -3l25 -6q18 6 37 6q10 0 18 -2q35 5 41 5v-15l31 25l109 -10z" />
    <glyph glyph-name="eight" unicode="8" horiz-adv-x="1157" 
d="M1130 846l-10 -12l6 -27q-30 -55 -55 -74q-17 -25 -37 -41q-16 -18 -45 -39l-67 -43l-39 -39l-58 -20l-108 -59l-25 -27l-20 -4q-2 -1 -7.5 -6.5t-9.5 -8.5v-20q-4 -1 -8.5 -2t-7 -1.5t-4.5 -0.5l41 -27l98 -76l74 -43v-18l8 -8l27 -19l18 -34q37 -34 37 -80l-6 -39
q-10 -45 -43 -74t-70 -29q-21 -12 -65 -24q-45 3 -70 6q-19 -8 -57 -16l-9 8l-45 8l-36 -12l-31 10l-19 -4l-65 4l-21 10q-119 11 -125 12l-30 29l-31 6l-29 -8l-12 31l-29 4v35l-16 16q-16 16 -16 35q0 15 12 33q2 4 2 16q29 44 29 68l14 10l4 24l29 15q16 19 22 22l4 4
l13 6.5t20 8.5l-14 -4l31 28q9 18 28 23q20 21 49 26t35 15l-41 16l-28 25q-30 10 -54 45l-18 2l-6 20h-8l-19 33l-22 17l-37 77l-17 21q-32 22 -32 51q0 16 26 29l17 41l-7 -4q2 12 15 38l16 15l4 22l41 47q12 20 31 31q6 8 47 41l45 12l72 56l41 4l47 16l31 12l-13 -2l8 2
q5 1 25.5 6.5t43.5 9t48 3.5l35 4l53 -6q12 -6 29 -6q10 0 16 2l117 -19q26 -7 41 -20l35 -4l14 -23q45 -9 68 -45l28 -41l35 -39l-6 -20zM991 858q-25 26 -33 43q-7 7 -15.5 15t-13.5 12.5t-9.5 10t-6.5 9.5q-40 8 -43 8q-12 0 -24 -6l-72 29h-4l10 -8l-10 -27l12 -22
q-5 -31 -27.5 -49.5t-56.5 -18.5q-18 0 -47 16l-14 23l-16 -4l-17 16l-14 -2l-29 -22l-16 8q-18 1 -36 7.5t-20 6.5q-24 -29 -106 -41q-16 -25 -51 -28q-10 -19 -25 -27l-14 -39l-17 -8l-6 -17l25 -26l27 -88l32 -15l4 -22l17 -17l8 -14l29 -8l32 -27l37 -8l27 -12l74 35
l30 37l45 8q21 22 35 26q12 21 43 27l33 10l39 37l18 2v8l27 15q12 17 35 24l4 15h22q15 36 29 45l12 18q28 31 37 45zM799 109q2 4 2 14q0 19 -31 55l-35 17l-26 34l-64 33l-41 41l-67 31l-21 18q-29 -3 -53 -18q-12 -3 -19.5 -9t-14.5 -16t-11 -14l4 2l-86 -41l14 -25
l-59 -30q-9 -38 -43 -47q15 -6 19.5 -22.5t6.5 -18.5l11 -9l39 -16h47l16 -12l37 8l43 -10l31 2l39 -6l59 6l29 -2l41 2l41 -15l36 21q2 -2 11 -2q16 0 45 29z" />
    <glyph glyph-name="nine" unicode="9" horiz-adv-x="1116" 
d="M954 461l-6 -55l-2 -9q0 -36 -18 -57l-6 -16l8 -23q-25 -28 -25 -59q0 -9 4 -29l-20 -6l-19 -57v-48h-12l-24 -20l-11 -37l-22 -16l-2 -31l-19 -12l8 -17l-49 -45l-24 -51h-6v-6l-23 -17q-21 -27 -47 -40l-70 -97l-45 -26l-98 -78l-27 -10l-16 -21l-31 -8l-20 -23
l-86 -39l-21 -2q-40 -21 -65 -24l-19 -19l-57 -4q-44 -18 -84 -18l-27 -25l-63 2q-40 -18 -82 -18q-3 0 -10.5 1t-10.5 1l-4 -2q-6 -2 -20 -2l-43 -8l-29 8l-37 -2l-26 6l-39 2l-37 21l-29 -5l-90 54l-22 39q-9 18 -9 32q0 21 12.5 33t33.5 12q33 0 55 -32l28 -2l21 -17
l29 4l45 -20q32 0 75 -17q31 0 82 7q55 14 99 14h14q37 19 125 29q28 14 31 16q11 3 33.5 9t31.5 9v-6l17 19q52 6 82 49l40 4l82 61q31 6 43 33l27 19q19 12 41 18l20 35q27 23 37 53l43 49l19 8l16 27l21 23q8 12 12 16q0 10 8 31q41 41 41 90l35 39l6 6l-10 39l35 14
l26 86q8 24 8 29v16l17 96l6 15l-8 59l8 21l-8 28v41l-8 25l-13 -31l-35 -29l-8 -36l-41 -17l-26 -16l-49 -23l-15 -24l-71 -19l-7 -14l-53 -10l-78 -19l-104 -6l-41 6h-10q-49 0 -88 29l-2 20q-41 27 -43 29q-17 28 -17 62q0 17 6 38l-10 33l14 53v31l17 31l4 49l24 27
l13 34l26 17l7 33l24 8q11 25 35 49q2 2 14 8l25 25l35 41h24q19 34 60 41l4 12q17 3 33.5 6t24 4t9.5 2l4 2q13 13 29 33l37 -10l63 4l7 6l38 12l41 -12l76 -76l41 -80l41 -51l8 -31l29 -22l-8 -29l8 -14l4 -25l23 -26q-2 -9 -6 -20.5t-5 -14.5q27 -18 27 -55l6 -41l-4 -15
l2 -28l8 -21l-4 -22zM717 768l-8 37l4 31q-28 25 -33 55l-68 31q-12 24 -12 36l-2 7q-18 -5 -38 -11.5t-29 -9.5t-13 -4q-24 -6 -39 -33l-45 -6l-31 -29l-18 -8l-39 -59l-18 -4l-17 -27l-20 -16l4 -21l-37 -35l-6 -24l-12 -12l12 -13l-19 -67l7 -21l-4 -26v-7l8 -10
q46 -8 51 -8q18 7 96 10q24 9 68 13l8 6l35 12l16 29h19l18 20h31q11 11 35 23q15 38 43 41l30 30l8 31z" />
    <glyph glyph-name="colon" unicode=":" horiz-adv-x="542" 
d="M401 666q-10 -82 -49 -113q-16 -16 -47 -43l-84 2l-22 16l-33 9l-10 24l-17 27l-4 53l19 35l24 41h6l27 33l31 -15q17 10 47 10l49 -8l20 -37zM408 100l-31 -65l-33 -15q-28 -28 -74 -28h-18l-37 6q-10 7 -28.5 18t-25 16t-12.5 14t-6 20v4l4 57l9 8l-2 10q22 51 39 58
l10 6l6 6q17 13 49 16l25 -6l47 -6l26 -29l29 -12v-18l14 -25l-4 -26zM274 -10h-6l-10 2z" />
    <glyph glyph-name="semicolon" unicode=";" horiz-adv-x="542" 
d="M432 659v3l-10 -21v-27q0 -44 -57 -75l-46 -31l-34 4l-35 -12l-23 18l-32 -2l-9 33q-41 15 -41 53v10l13 15l-4 22l-2 62l26 24l23 6l26 33l49 -18l17 12l4 10l10 -4q16 4 23 4h6l10 -28q59 -43 86 -91zM399 117l-30 -51l-29 -15l-12 -20l-31 -27l-12 -20l-37 -23
l-70 -76l-37 -18q-15 -40 -37 -51l-10 -6l-14 -31l-29 -29q-33 -8 -51 -8q-21 0 -31 2v29q0 27 6 45l7 24l4 8q9 38 43 56l2 4l22 55l4 -10l13 35l22 10l4 8q7 23 29 33v22l18 5q0 24 13 53l20 16q0 7 4 23q0 4 1 9.5t1 8.5q30 62 88 62q25 0 76 -23l6 -8l39 -8z" />
    <glyph glyph-name="less" unicode="&#x3c;" horiz-adv-x="1705" 
d="M1442 1159v-153l-969 -396l969 -393v-154l-1178 484v129z" />
    <glyph glyph-name="equal" unicode="=" horiz-adv-x="1705" 
d="M254 879h1198v-140h-1198v140zM254 481h1198v-139h-1198v139z" />
    <glyph glyph-name="greater" unicode="&#x3e;" horiz-adv-x="1705" 
d="M264 1159l1178 -483v-129l-1178 -484v154l971 393l-971 396v153z" />
    <glyph glyph-name="question" unicode="?" horiz-adv-x="802" 
d="M705 862l-15 -47q-1 -5 -2 -14t-2 -13l6 -43q-36 -26 -71 -61l-9 -10l-22 -37h-17l-26 -19l-4 -16l-21 -10v-19l-47 -10l-18 -35h-4v-4l-15 -8l2 -6l-51 -39l-10 -25l-21 -34l9 -39l-5 -8l19 -15l20 -2q39 -19 39 -57v-64l-94 13l-49 30l-21 25q-19 11 -30 37l-29 6v41
l8 20l-22 29l12 33l2 24l33 33q3 12 18 21q8 8 11 14q3 18 22 41h6l12 22l15 5q16 26 43 32l-2 -6l20 23q-1 0 -2 -1t-2 -1q-2 2 -2 4q0 3 10 20l25 19l8 8l41 18v17l29 14l4 31q6 2 14.5 3t14 2t8.5 3l-4 24l-9 27l7 16l-13 21l-4 -2l-37 22l-6 17l-20 18l-8 13h-17l-6 4
l-12 -4l-29 4l-4 -6q-31 0 -39 2h-10q-24 -3 -51 -9l-5 -2q-2 1 -18 21q-8 -23 -29 -23q-71 -22 -94 -22q-49 0 -67 59q51 51 104 57l14 -12l9 29l12 4l29 29h24l19 10l43 12l30 -12q16 4 27 4q3 0 9 -1t9 -1l25 8q13 -20 29 -20q2 0 5 1t5 1l26 -9l11 5l6 -7h28
q16 -7 25 -24l31 -31l35 -45l30 -45l21 -18l4 -31zM449 59v-8q0 -35 -31 -51l-29 -8l-55 -12l-74 28l-37 27l15 41l-9 76l23 16l4 25l70 -19l6 4l37 -14l55 -49z" />
    <glyph glyph-name="at" unicode="@" horiz-adv-x="1402" 
d="M780 1171l58 -10l26 -8l15 12q20 -8 28 -8q11 0 27 8l24 -8l9 -8q20 0 41 -12l34 -11q53 -6 88 -36q33 -8 60 -39q3 -11 22.5 -16.5t28.5 -20.5l23 -39l30 -12l9 -41l28 -25l19 -53l-9 -17l15 -28q-10 -10 -10 -33v-12l18 -21l-4 -43q0 -1 -1 -3t-1 -3q0 -5 3 -17t3 -18
q0 -32 -10 -55l-8 -21l4 -34l-25 -23q-13 -11 -19 -27.5t-10.5 -40.5t-9.5 -38l-39 -37q-9 -45 -47 -70q-44 -30 -76 -82l-37 6q-27 -37 -67 -43l-55 -12l-17 12h-10l-4 -10l-16 -4l-19 -10l-6 6l-10 -6l-52 43l3 30l-9 11l6 51v90l7 25l8 71l-23 -45l-16 -12l-8 -16l-15 -7
l-20 -34l-37 -37l-14 -17l-29 -28l-8 -19l-47 -30l-51 -58l-25 -6l-21 -16q-26 6 -38 30q-54 23 -60 84l12 6l-2 15v22l-12 15l17 18l6 35l14 49v8q0 7 4 19v10q0 15 6 33l10 2q7 4 7 8q0 5 -7 12l-6 13q8 31 23 34q5 15 6 17v26l27 27q0 38 28 55l2 27q6 19 13 29l2 18
q4 -4 6 -4l2 2q0 6 -4 10q7 8 20.5 23t21 24t11.5 17l16 6q22 0 29 14l33 17l90 2v-11l41 -10q7 -1 13.5 -2.5t9.5 -2.5t4 -1q3 -14 18 -14h6l12 -13l39 -10l2 8l-10 -6l49 4l8 -26l17 -17l-12 -8l8 -35l-19 -20l-10 -31l-8 -12l6 -19q-3 -6 -8 -13t-7.5 -12.5t-2.5 -11.5
q0 -2 4 -14l-4 -8l2 -10l-6 -15v-16l-11 -12l2 -31l2 -6l-6 -6l-4 -13l4 -12l-12 -18l-4 -13l4 -20l-12 -14l12 -13l-16 -30l-5 -15l13 -2l-10 -24v-15h-7l4 -24h25l6 -17l12 2l33 11l10 -13l11 6q6 -2 14 -2q25 0 31 37h16l6 17q17 -7 25 -7q14 0 14 17q13 3 18.5 12
t10.5 29q13 39 43 45q6 35 22 41v14q0 42 25 58q12 12 12 30v6l13 25l-11 14v25q-6 6 -6 16q0 14 19 33l2 39l-27 25l18 43l-26 20l-8 68l-19 -2l-35 59l-18 4l-25 33l-16 -6l-27 16h-20l-14 21l-19 2l-26 26h-31l-25 17q-16 4 -45 4t-41 -4q-12 -1 -23 -2t-17.5 -2t-8.5 -1
q-5 0 -15 5.5t-14 5.5l-8 -4l-28 -21q-10 -2 -33 -2q-25 0 -37 4q-38 -13 -96 -43l-15 -24l-41 -2l-12 -11q-19 -1 -28 -11t-19 -34l-14 2q-15 -22 -64 -49l-14 -35l-25 -12q-23 -27 -26 -43q-8 -35 -35 -41v-12l-21 -8q2 -6 2 -17q0 -29 -30 -47l-4 -41l-25 -55l-35 -90
l-6 -23q8 -16 8 -22q0 -9 -6 -21l10 -16l-6 -23l-4 -26l14 -54l-4 -36l19 -35l4 -21h4l16 -37l8 -28v-15l9 -8l34 -51l31 -10l8 -15l11 -4q15 -26 31 -36.5t42 -10.5l15 -12l26 2l17 -18h24l23 -17l6 4l35 -10l12 4q12 4 21 4t32 -10l29 -14l29 -9l47 9l41 12q12 -6 26 -6
q13 0 33 10l39 12l31 2l37 21q74 12 133 51l20 16l53 25l48 -10q2 0 6 1t6 1q24 0 35 -16t14 -50q-15 -30 -43 -39l-6 -10q-21 -1 -52 -27t-59 -26h-12q-36 -10 -92 -37q-4 2 -12 2q-13 0 -31 -12l-39 -10l-64 -11q-28 -4 -36 -4q-20 0 -43 10h-66l-16 11h-19l-22 -2l-50 2
l-34 12l-19 10l-24 2q-5 7 -54 10l-30 17q-6 -2 -19 -2q-28 0 -47 22q-6 9 -12 9q-2 -1 -2 -5l-35 3l-12 32l-41 21l-17 26l-36 15l-7 22l-32 37l-23 37l-10 47l-15 16l-4 19l-16 8l2 27l-6 20l2 27h2q2 0 2 4q0 11 -12 41l-10 43l4 47l6 16l-2 27l16 33l4 22l-4 21l16 28
l5 50l47 98l32 90l37 35l37 55l47 51q10 11 37 44t47 50t45 23l60 29l43 30q39 25 53 25h18l25 23l55 18q3 -14 8 -14q1 0 5.5 5t17 10t31.5 5h12zM762 756q-16 -3 -37 -11l2 -4l-25 -8l-4 -6l-6 -2q-25 -14 -35 -41l-20 -29l-6 -12l6 -16l-16 -17l2 -8q-19 -22 -19 -51
l-8 -12l-4 -25l-8 -10l-4 -15l-5 -4l-2 -18l-6 -8l-6 -25l8 -24l-16 -11l4 -6l-12 -14l8 -27l-16 -18v-27l2 -8l6 -4l10 -6q5 19 18 22v13l27 6l18 18l5 2l-7 -6h-16l66 55l12 4l10 25q16 3 23 14l12 15l8 2l-4 22l14 2q7 7 11 13q7 12 26 34l13 11q2 11 28 30v4l-4 7l33 32
l4 19l8 4l-2 6l8 12l4 15l11 8l-2 18l-2 11l-15 6l-31 28h-20l-6 9l-25 4l-12 -4z" />
    <glyph glyph-name="A" unicode="A" horiz-adv-x="1488" 
d="M1462 -33q-1 -29 -16.5 -44.5t-50.5 -26.5l-78 36h-23l-26 21h-33l-25 41l-20 10l-27 47l-37 39v16l-16 15l-4 33l-27 24l-43 96l-18 23l-8 57l-27 35l-43 6l-47 -26l-10 10l-33 -21l-10 23q-10 -2 -31 -2q-23 0 -33 2h-16l-43 -23l-47 7h-8l-33 -19l-27 10q-36 0 -57 9
h-10l-54 -25l-20 22l-37 11l-8 -6q-45 -59 -66 -84l-33 -9q-76 -111 -98 -120l-8 -2l-66 -80h-8l-41 -64l-78 -43q-20 -4 -32 -4q-37 0 -74 29l25 51v31l8 10l4 41l63 8l17 10q13 8 19 16.5t9 26.5q22 6 31.5 14.5t13.5 26.5q31 15 47 35t25 55l35 13l51 75q-15 21 -24 58
l43 35v39l79 -7l21 11q9 35 41 49l4 39l43 22q3 1 10 4.5t12 5.5v13q0 18 9 33q23 17 33.5 35.5t11.5 47.5l28 7l11 18l14 2l39 74l10 -4l17 8v55h14q51 54 51 72l10 8l-10 31q49 58 80 61l39 33l45 -45l57 -31l6 -53q11 -13 17 -25q30 -38 33 -71l12 -51l31 -46l18 -67
l4 -33l37 -45l-8 -14l16 -15v-41l4 -30q-1 -5 -3.5 -13t-2.5 -10l10 -10q4 -4 13 -16q27 3 39 6h61q16 -4 25 -4q12 0 24 6q14 12 43 12q20 0 62 -20l61 -5q4 -16 4 -24q0 -32 -31 -47l-30 10l-58 -41l-47 6l-20 -10l-45 -4v8l-54 -12l-2 -12l4 -48l27 -36l4 -37l47 -66
l-4 -22l19 -19l49 -76l35 -34l8 -17l37 -18l14 -33zM956 563q-16 13 -16 43l-14 8l-11 84l-24 35l-6 35l-4 8h-15l-6 74l-18 27l-11 4l-6 8l-8 -15l-49 -61l-16 -35l-41 -37l-9 -36l-47 -21q-9 -61 -61 -88l-14 -41l-27 -27h18q38 -12 62 -12h8q12 6 25 6t32 -8l9 -2
q12 2 38 2q34 0 50 -2l71 8l47 -24q35 14 41 28q0 -1 1 -2t1 -2h-2l-22 23z" />
    <glyph glyph-name="B" unicode="B" horiz-adv-x="1402" 
d="M1364 338l-8 -25l-8 -41l-37 -30l-8 -27l-25 -6l-27 -39l-47 -10l-41 -29l-59 -6l-31 -33l-53 4l-23 -18l-28 4q-43 -30 -97 -39l-14 8l-59 -43l-23 12l-14 -10l-37 8l-14 -8l-37 -4l-29 6l-37 -30l-43 18v-2q0 -4 -22 -10l-13 14q-28 -22 -67 -22q-4 0 -11.5 1t-11.5 1
l-32 -35l-39 -13l-33 19l-8 37l-45 -15q4 4 4 7q0 2 -1 6.5t-1 7.5q0 5 8 8l-33 66l2 36l-4 46l10 32l-6 45l14 33l-8 27l6 45q-14 47 -14 49l-2 29q-67 36 -76 65q10 49 60 78q2 2 22 14l-14 45l16 7l-8 30l6 8l-12 31l6 17l-2 47l-25 49l5 20l-13 8l4 48l-10 16l-14 49
l-2 2l-23 -18l-20 14l-23 -14l-8 10l-35 -23l-20 31l-41 -24q-103 59 -103 104q0 40 43 49q20 33 60 33h8l22 -10l5 2q90 0 131 -8q36 8 61 8l10 -8l15 4l57 -21l119 -14q10 2 30 2q27 0 39 -4l23 4q34 -3 55 -19l17 -8q40 -8 55 -8l49 8l10 -12q27 0 47 -20l60 -3l24 -22
q27 -10 45 -10l41 -13l17 -16h47l12 -29l43 -26l14 -64l-32 -59q-46 -52 -90 -60l-33 -18l-17 4l-43 -29q-21 3 -24 3l-43 -15l-4 2l-27 -35l-39 -6q-54 -26 -106 -26l-41 -23h-43l-35 -20l-27 -4l72 -23l41 6l68 -8l77 12l4 -8q14 2 41 2q50 0 64 -20q13 10 33 10
q35 -12 47 -12q16 0 39 10q27 -15 100 -15l18 -10q55 -9 91 -24h32q25 -25 56 -25q17 -17 44.5 -33t40.5 -28t13 -31zM891 805v16l-6 2l-15 17h-22l-21 10q-16 3 -28 8l-23 -16l-41 30l-35 11l-14 -9l-39 21h-10q-21 0 -68 6l-47 -6l-24 23l-23 -5l-8 2l-12 -10l-39 15
l-8 -5v-49l14 -39l-12 -30l12 -47l-4 -43l12 -33l-10 -35v-4l33 2q1 0 12 3.5t18 4.5l-2 -6l25 18l4 17l51 2q64 16 82 39l25 -2l10 8q33 33 70 33h8q10 0 18 10l55 16h7q24 18 55 25zM1184 313l-6 4l-33 5l-8 10h-11l-47 20l-39 -4l-18 17l-41 -5q-13 10 -27 15
q-18 -10 -34 -10q-15 3 -33 12q-35 0 -76 6l-70 2q-33 10 -63 10q-15 0 -31 -4l-45 -10l-31 20l-2 -12l-90 8q-15 10 -22 17q-19 0 -27 -8t-8 -27v-12l-2 -19l12 -29l-10 -30l4 -15l-4 -28l14 -25l4 -39l-14 -32l2 -11l6 -4l4 -31l58 2l34 13l60 -2l14 -6q6 6 21 10l34 16
l58 -2l57 19l49 20l29 -2l49 23l70 4q51 3 76 34l28 -2l23 11l16 22l45 12l15 25z" />
    <glyph glyph-name="C" unicode="C" horiz-adv-x="1288" 
d="M1307 395l-27 -61q-5 -36 -19 -53.5t-42 -20.5l-15 -29l-69 -43l-17 -20l-35 -33q-9 -2 -20 -3.5t-17 -2.5t-10 -2q-54 -51 -127 -74l-37 -18q-13 -7 -52.5 -12t-59.5 -19l-39 -24l-39 6q-40 -15 -66 -15q-20 0 -47 9q0 -13 -22 -13q-15 0 -58 17h-16l8 8l-37 -10l-16 4
l-20 -6l-62 24l-27 16l-51 17l-10 22q-34 5 -51 17.5t-21 38.5v8l4 -4q-19 19 -40 74q-16 2 -36 39.5t-20 76.5q0 24 2 53q-8 18 -8 54l10 35v47l17 8l2 12l26 92l27 60l16 43q4 28 35 67l8 11l-10 40l45 23q19 19 29 27l8 47l31 14l10 37q41 4 55 18q23 33 58 47l18 17
l53 14l31 19l39 -19q48 10 61 10h23l12 -4l25 -2q55 -27 98 -35l27 -22l121 -68l14 -28l20 -19l15 -43l12 -30l8 -39l-2 -43v-7q0 -4 -4 -28v-6q0 -66 -119 -93l-41 27l-22 31l-13 43v31l-6 32v52l6 22l-10 16q-2 1 -11 8.5t-15 10.5l-7 4q-58 15 -61 33h-39l-16 10l-10 -23
l-39 25l-11 -6l-24 4l-25 -16q-21 6 -39 6l-26 -37l-58 -51l-49 -68l-10 -4l-14 -45l-25 -16v-19l-39 -59l-18 -82l2 -8l-19 -33l13 -33l-23 -18v-9l-8 -6l2 -57l-8 -43l16 -27l4 -12l19 -16v-29l22 -31l-8 -14l29 -29l2 -10l73 -27l-2 -12l54 -6l20 -18l47 16l23 -25l12 2
q25 21 47 21q7 0 23 -4h26l15 -10l18 8q21 0 31 2q29 26 71 26q17 17 58 17q10 12 59 28q23 0 39 11l16 26l31 9l29 14l24 24l37 17l109 104l65 35z" />
    <glyph glyph-name="D" unicode="D" horiz-adv-x="1323" 
d="M1268 397l-8 -20l-7 -31l-41 -55l-14 -31l-43 -18l-14 -19l-58 -16l-36 -21h-19l-12 -18h-53q-24 -31 -76 -31q-8 8 -10 8q-6 0 -27 -14l-35 4l-14 -6l-39 4l10 -6q-50 -12 -72 -12q-10 0 -14 2q-63 -19 -96 -19q-3 0 -10.5 1t-10.5 1l-30 -8l-27 10l-14 -6l-27 -26
l-37 8q-18 6 -22 8l-4 -2l-25 -6l-4 -41l-12 -33l-64 -74l-27 25h-43l11 72v24l-15 10q-5 -3 -15 -8.5t-13 -7.5h-56l-39 27l-16 47l29 26q38 35 96 48l-2 4q-4 12 -4 20q0 16 8 29l-6 94l10 25v43l10 22l-24 41l29 57l-11 123l4 47v31l-18 45v64l-12 28l-13 6l-45 -20
l-75 -6h-3q-14 0 -29 19t-24 50l-14 64q51 43 94 43h4q59 16 107 16q5 0 18 -5t23 -5q3 0 9.5 1.5t18.5 5t23 5.5l8 -22l29 6l18 -6l27 6l80 -18l26 -17l60 10l22 -34l12 -2l35 -23l21 -2l24 -10h9q32 0 57 -19q58 -17 92 -53q18 -4 29 -10q27 -20 55 -23l57 -41l56 -47
l-6 -6l47 4l20 -14l6 -31q58 -48 109 -110q1 -2 1.5 -5.5t1 -6t1.5 -3.5l33 -18v-51q0 -3 2 -5t7 -6t9 -8q0 -16 2 -20l6 -4q21 -25 21 -41q0 -2 -1 -6.5t-1 -6.5zM1110 395l-6 39l-64 80h-20l-23 55q-43 18 -61 33l-6 25l-10 8l-62 18l-18 33l-146 80q-3 0 -9.5 -1
t-10.5 -1q-32 0 -56 18l-6 17h-39l-10 8l-26 6q-6 -2 -17 -2q-18 0 -22 8l-2 6l-25 17l-37 2q-20 20 -43 20l-14 -33h-10l22 -49l-12 -16q16 -40 16 -49v-10q0 -15 -4 -25l19 -53l-19 -6l2 -13v-67q0 -5 -8 -45l14 -13l-22 -61l6 -45l-19 -39l19 -29l-4 -41l10 -24l-12 -29
l2 -8l20 2l70 10q24 8 53 8q32 0 53 -8q40 0 93 29q15 1 40 3.5t35 2.5q8 0 19 -2t14 -2q23 0 31 10l33 8q32 21 57 21q10 0 25 -6q15 6 24 6l23 31l32 -9l15 6l28 21h13l53 39z" />
    <glyph glyph-name="E" unicode="E" horiz-adv-x="1271" 
d="M1241 688v-18q0 -46 -29 -86q-59 -23 -92 -23q-14 0 -20 2l-7.5 2.5t-8 2.5t-5.5 1l-53 -26l-49 4l-29 -10l-14 4l-37 -21l-31 10q-55 0 -88 -2l8 2l-36 -12h-7l-14 -12l-29 8l-16 -14l-45 18l-27 -16q-51 14 -57 14q-23 0 -55 -14l-92 -8l-9 4l-34 -6l-3 -9l21 -102
l-8 -10l8 -21l-2 -26q10 -30 14 -62l25 -24l-4 -13l41 -51q64 -45 96 -45h4q3 0 9.5 1t8.5 1q8 0 23 -6l18 2q62 13 76 14l23 13l4 8l14 2l17 10l10 -6l33 10l26 17l10 14l35 27l27 4l49 36q33 6 47 23t27 59l6 -2l2 6l27 3l38 32l15 2q6 2 14 2q22 0 32 -17.5t15 -57.5
l-90 -107l-22 -6l-9 -12l-38 -41l-56 -33l-45 -43l-14 2l-17 -16l-92 -35l-37 -41l-26 10l-10 -18l-19 6l-10 -10l-68 12l-69 -29l-70 23l-88 41q-61 30 -102.5 102t-71.5 193l2 22l-18 47l18 21l-12 57l-2 18l-35 39v25q0 61 33 82q6 18 22 31l-4 6v57l-6 29l26 65l7 33
l-21 -2h-8q-29 0 -49.5 19.5t-20.5 46.5q0 30 39 69l15 15l18 8q33 14 51 14h10q4 2 21 2h8l21 33l92 -6l6 -6q18 4 55 4l41 10h10q27 8 52 33l30 -17h11q10 0 23.5 -2t17.5 -2l204 19l21 -9l28 7l17 16l41 -23l14 11l45 -19l31 8l16 -10l66 6l14 -10l33 -6
q22 -4 34.5 -16.5t12.5 -28.5q0 -24 -17 -43t-36 -19h-8l-23 -12l-41 12l-18 -2q-6 -2 -17 -2q-19 0 -37 9l-6 8q-20 -4 -26 -4q-9 0 -21 4q-21 -16 -76 -25q-28 0 -63 2q0 3 8 15l-53 -15q-2 2 -4 2q-15 0 -53 -32l-27 12l-12 -8l-50 14l-28 -14h-41l-62 -13l-51 -22l-14 8
l-27 -18h-26l-7 -11l7 -24l-35 -41l16 -2v-58l23 -24l-19 -17q-20 -36 -20 -47q0 -9 12 -12l25 8q10 2 20 2q32 -3 45 -8l37 14l33 -10l18 4l23 -2l33 6q16 -4 26 -4q7 0 33 15q18 -9 47 -9q3 0 14 1t17 1h4l-8 3h6q2 0 74 -7q23 4 63 4q27 3 41 3q16 0 59 -3l19 3
q29 16 53 16q19 0 37 -6l29 6l24 -10z" />
    <glyph glyph-name="F" unicode="F" horiz-adv-x="1157" 
d="M1071 1055q18 6 41 6q59 0 59 -66q0 -38 -59 -41l-37 -16l-37 8l-53 -28q-46 22 -65 22q-2 0 -17.5 -3t-28.5 -3q-16 0 -24 2l-45 -14l-10 2l-4 -2l-113 -2l-12 -21l-52 16l-20 -10l-49 -4l-31 6q-18 -1 -35.5 -4.5t-19.5 -3.5l-27 -4l-12 -8l12 -37l17 -43l-9 -33
l21 -16l-17 -25q5 -20 5 -26q0 -16 -11 -45l-6 -68l33 -2l65 16l29 -16q7 0 16 -1t11 -1h6l12 12l64 10l45 -16q31 8 47 10h67l39 8l23 -12l31 4q10 2 24 2l119 15l14 -7q6 2 15 2q14 0 34 -8q27 -39 27 -65q0 -11 -2 -17l-39 -6l-35 -18h-30l-17 -15l-57 5l-51 -15l-60 -10
l-12 2l-4 -4l-78 8l-27 -10l-36 4q-32 -14 -76 -14h-19q-28 -7 -43 -13q-10 6 -20.5 12.5t-15 9.5t-7.5 3q-1 0 -5.5 -4.5t-13.5 -10.5t-22 -10l-39 4h-24q-4 -23 -12 -122q8 -24 8 -43l-21 -52l13 -24l-17 -33l6 -31l-10 -18q-34 -182 -50 -218q-10 -26 -24 -32l-45 23h-55
l14 63v29l13 12l4 27l2 10l-4 2v24l-19 21l4 12q0 42 17 76l-8 8l4 25l-7 28l13 33l-4 74l14 72l-10 24v10l-33 -12l-47 25l-21 -4q-16 -4 -24 -4q-26 0 -42 18.5t-16 48.5q0 40 23.5 63t63.5 23q45 0 61 -2l57 -6l-4 16l2 66l-12 4l8 125l-20 55l-2 19l-15 8l-65 -37
l-33 45q-37 16 -37 64q12 18 12 28v47l58 -4q45 31 78 31q3 0 11 -1t22 -3t26 -4q6 0 52 4t83 6l74 -10l55 2l8 6q13 8 31 8q15 0 23 -4l8 -2q18 2 54.5 7t55.5 7l2 -6l13 -10h8q10 0 29 3t26 3h6l56 -8l59 -6q30 6 57 6q21 0 39 -6h35z" />
    <glyph glyph-name="G" unicode="G" horiz-adv-x="1533" 
d="M1452 367l-76 -101l39 -53l-33 -20l-6 -54l-12 -30q0 -36 -10 -56l22 -20l-12 -49l10 -43l-6 -17l23 -22l-27 -29l10 -39l-14 -33q14 -40 14 -65v-8l25 -43q-2 -35 -18.5 -54.5t-45.5 -19.5q-27 0 -69 51l-9 47q-28 35 -30 53l-23 52v26l-10 17v8l-23 8l5 6q0 31 8 47v19
q0 14 4 30l-6 21l-21 8q35 21 35 43q0 4 -1 8.5t-2.5 11t-2.5 9.5l-8 67l10 25q-68 -21 -115 -21q-1 0 -7 1.5t-11 1.5q-2 0 -17 -5l-30 -28l-80 -15l-39 -20h-47l-35 -16l-43 2l-33 -19l-20 4q-25 -10 -63.5 -15t-49.5 -18q-19 6 -31 21q-6 -2 -20 -2l-45 -23l-31 23
q-28 0 -82 12l-16 -10l-37 16h-57l-31 27l-47 18l-92 91l-13 59l-28 39l12 31q0 4 1 12t1 12l-23 31l29 49l10 2l50 82v18l12 4l6 7l12 -7q22 3 25 46l14 -7q11 16 37 39l-6 8l6 15l25 18l4 2l24 43l15 -10h18l25 41l51 10l18 19q-4 4 -4 8l4 16l23 4l12 11l8 -11l15 13
l6 18l43 4l35 31l38 6l15 14l20 -6l13 21l16 -15l1 5q1 5 1 8q0 20 27 26q26 29 63 29h37l6 4l35 31l20 -4l35 18h15q27 10 43 10l36 21l21 -6h14l11 18l49 -4l14 2l10 23l64 -27h37l43 -31q28 -10 75 -39q-3 -99 -129 -114l-53 26l-16 -6l-35 12l-21 -12l-38 10l-66 -32
l-29 16l-32 -10q-19 -4 -27 -15q-37 -30 -76 -30h-14q-87 -52 -141 -66l-9 -20h-24l-17 -25l-32 -4q-24 -21 -49 -34.5t-41 -20t-19 -8.5l-55 -50l-31 -22l-35 -43l-53 -43v-39l-16 -14l-33 -76v-27q35 -35 41 -74l6 -6l47 -22l49 -12l66 2l82 -17l14 2l16 -2l113 8l6 2
q46 11 82 17l35 12l86 6l135 31q38 24 82 27l29 -2q34 -18 37 -37l20 45l-20 -19v37l20 4l25 33q-7 7 -15 23q0 9 3 20t3 14q0 22 -22 74q38 21 74 21q32 0 67 -15l19 -18q33 -15 51 -35z" />
    <glyph glyph-name="H" unicode="H" horiz-adv-x="1552" 
d="M1661 709l-25 -21q3 -4 23 -29l-78 -49h-8q-12 0 -27 6l-24 -20l-35 4l-37 -31l-35 21l-43 -12l-41 -25q-4 2 -10 2q-15 0 -18 -10l-17 -68q8 -13 8 -24q0 -10 -6 -31l-6 -16l8 -5q0 -34 -16 -61q11 -27 16 -45l-18 -14l2 -74l-19 -107l-2 -20q4 -24 4 -33v-10l9 -21
l2 -36q-4 -18 -11 -31q-3 -71 -100 -74l-4 45l-16 27l-13 37v71l-14 43l6 4l-6 31v51l6 80l-4 72l12 41v47q0 14 5.5 39t5.5 37q0 16 -13 39l-4 6l-6 -4l-27 8q-38 -10 -69 -10q-23 0 -33 2l-88 -27l-94 10q-40 4 -51 4q-27 0 -74 -14h-8l-47 -20l-33 22l-51 -10l-7 4l-8 -4
l-41 2l-4 -16l-57 22q-37 -4 -51 -6v-94l-7 -47l11 -39l-17 -31l15 -29l-15 -88l9 -26l-5 -50l19 -41l-8 -18l4 -25q-1 -25 -13 -35t-38 -10q-48 0 -66 35.5t-18 116.5l-29 35l-10 24q0 27 12 45l4 35l-6 21l-10 159v43l-4 7l-41 22l-6 100l57 33q10 34 10 82q0 46 -10 80
l12 -6l-2 29l12 43l-12 71v47l14 72l80 43l39 -29l43 -14l6 -45l19 -27q-14 -37 -19 -59q7 -40 7 -70q0 -54 -15 -112l19 -39l-21 -29v-24l19 -7l49 7l35 -5l55 7l16 -7q15 3 23 3q4 0 24 -5l4 -2h31q1 0 31.5 2t60.5 2l33 21l31 -18l30 -3l11 -2q20 5 26 5h11l217 22l30 -2
l11 6l-11 35l11 31l-15 84l15 26l-37 99l-4 14l-9 10q1 2 9 19l4 8v8q0 17 33 31l20 57l57 -10l25 -15l57 13v-29l25 6v-96l-10 -16l16 -41v-27l10 -33l-16 -39l6 -26l-10 -95v-14l43 2l80 19l39 -4l24 4h45q16 8 35 8q12 0 31 -8h51z" />
    <glyph glyph-name="I" unicode="I" horiz-adv-x="571" 
d="M408 969l-7 -2l-12 -78l2 -45l8 -6l-20 -47l4 -35l-18 -39l-15 -43q6 -12 6 -27q0 -18 -8 -31l19 -69h-25l-2 -4l14 -29l-14 -55h-6l-10 -41q10 0 14 2l-6 -41l14 -37l-14 -29l2 -63l-6 -27q18 -21 18 -39q0 -13 -9 -27.5t-9 -17.5q0 -1 7 -5.5t20.5 -16t25.5 -27.5
l-25 -20l31 -17q-9 -82 -59 -82q-53 0 -68 45l-10 15q-33 46 -33 63l-41 43l19 21l-13 16l4 43l-4 14q-6 18 -6 33q0 12 6 27l-4 16l-2 66l6 8l-4 117l17 98l-9 102l7 11l-11 6l13 41v14l-15 2l10 45q-24 27 -30 80h26l25 61l4 -4l12 33l-10 -12v55h35l6 19l39 14
q51 -3 80 -16q31 -27 31 -68v-10z" />
    <glyph glyph-name="J" unicode="J" horiz-adv-x="571" 
d="M399 352l-28 -4l-2 -14l6 -41l-10 -8v-9q0 -15 -10.5 -34.5t-10.5 -30.5l6 -41v-12l8 -37l-18 -39v-8l-4 -29v-43l-17 -20l13 -17l-29 -28v-41l-12 -13l6 -28l-21 -9v-6l-16 -22l-20 -4v-56l-35 -20q-23 -45 -51 -92l-99 -66l-39 -20l-36 -27l-19 4l-61 -22l-62 6
l-74 -31l-69 21l-47 -7l-8 2l-43 -32l-31 39l-17 -2l-53 16l-78 -21l-14 39l-70 -6l-24 31l-55 2v8l-31 14h-23q-27 13 -35 30.5t-8 51.5q0 16 14 21.5t48 5.5q63 0 139 -37q51 0 100 -18l17 -2h35l14 -13l51 7l45 -11l14 4l35 -10l25 8q85 0 112 7h70l10 24h37l13 16h24
l16 13l11 2l14 10l29 27l10 39l31 12l8 41l29 20q0 23 2 33l6 6l-15 21l27 26l-2 21q21 27 29 33l8 38v78h20l2 29v8l11 4l-21 62l12 4l19 47l-4 29l14 165l10 35l-12 70l12 24l-14 21l14 57l-22 80v90l-19 51v11l-20 4q9 110 35.5 160.5t77.5 50.5q26 0 39 -7t20 -28l6 -12
l39 -25l-23 -37l15 -20l-4 -27l12 -6v-43l12 -33l-12 -69l8 -103l-4 -31v-90l-4 -45l8 -63l-6 -15l4 -40l-16 -17l2 -6z" />
    <glyph glyph-name="K" unicode="K" horiz-adv-x="1546" 
d="M1577 219l-23 -35l-61 -75l-47 -37l-60 -31l-63 -23l-57 -12l-17 6l-26 -8l-39 6l-47 -8l-11 8l-8 -4l-33 6h-49l-30 29l-52 10l-10 15l-16 -5l-45 41l-43 13l-23 26h-67l-15 27h-20l-13 20l-32 13l-4 -4l-39 41l-35 24l-37 37l-39 25q-60 40 -76 49q-9 22 -18 22l-31 2
l-8 9l-29 -7l8 -59l-12 -2l6 -21l-10 -49l-6 -28q7 -13 14 -50l-12 -22l-2 -25l-2 -45l-14 -35l-7 -43l-28 -55l-53 -80q-72 0 -80 58l14 49l8 37l2 6l4 10q-2 4 -6 16q-6 9 -6 19q0 13 8 26l-8 11l31 39l-17 32l9 21q-11 22 -11 35q0 8 9 35l4 12q-4 50 -4 63q-9 15 -9 43
l6 9l-12 34l17 19l-5 4v53l-10 64l17 14q-2 10 -2 33v32h-5l-10 125q6 1 10.5 14t10.5 17q0 15 2 25l4 12l2 12q-16 37 -16 68q0 42 26 90q46 12 62 12q25 0 63 -18l47 -55l-8 -46l20 -22l-12 -27l8 -26l-26 -41l12 -58l-16 -49l6 -67l-10 -15l24 -37h14l37 -10l17 10l16 -8
l14 10l50 -8l18 13l57 18v6h45q23 20 56 27q-2 2 -2 4q0 10 57 16l51 21l19 28q18 9 30 13l4 24h19v8l35 7l20 36h21q6 38 47 52l12 16v23l37 4q12 37 39 55q8 15 10 25l27 34l20 19q3 35 21.5 50t58.5 15q5 0 9.5 -5.5t16.5 -23.5t21 -30l-18 -51l10 -4l-4 -13l2 -14
q-11 -6 -16 -12l-7 -35l-22 -8l-17 -47l-26 -31q-18 -40 -49 -49q2 -2 2 -8q0 -9 -15 -39l-49 -11q-7 -12 -24 -22v-12l-41 -15l-41 -41l-60 -30l-43 -31l-41 -8l-32 -19l-54 -10l-49 -29l-59 -28l-21 -6q24 -15 47 -41l43 -35l68 -39l6 -17l43 -10l53 -33l64 -32l35 -29
l37 -10l55 -39l70 -21l51 -6l96 13h37l8 4q18 18 41 18q8 5 25 12v4l34 39l15 11l2 14q25 14 51 22l-6 -2l51 11l31 -17z" />
    <glyph glyph-name="L" unicode="L" horiz-adv-x="1304" 
d="M1249 231q27 11 49 11q28 0 47 -15t19 -34q0 -55 -72 -58q-22 -16 -47 -16l-76 -10h-36l-29 -21l-47 -2l-19 -14l-100 -4l-57 -27h-11q-14 0 -20 -2l-10 -10q-22 -11 -39 -11q-10 0 -33 9l-45 -11l-47 -2l-49 -14h-121l-68 16l-55 -4l-18 17l-39 2q-64 47 -95.5 93
t-44.5 93.5t-16 52.5l-16 39l20 70l-12 84l18 12l4 78l15 41l10 61v127l18 33l4 16l-4 74l17 17l-19 14l25 74l6 2l-12 32l45 19q31 28 51 31l53 -9l47 -98l-28 -22q10 -13 10 -33l-23 -62v-69l-22 -64l-6 -59l-31 -123v-16q0 -24 -6 -39l-4 -29l-4 -37l4 -63l-6 -17l16 -86
v-4l29 -63v-6l75 -45l111 -11l33 2l78 13h55l14 10l113 4l24 14l82 2l37 13l133 6l56 14q20 -2 49 -2z" />
    <glyph glyph-name="M" unicode="M" horiz-adv-x="1798" 
d="M1718 4q-12 -34 -78 -55l-65 41l-64 71l-20 48l-6 38l-8 21q-27 58 -27 119q0 12 6 30l4 5l4 38l-24 46l8 24l-4 33l2 29q-6 24 -6 43v10q0 35 -10 73v58l-15 37l-4 28l-20 -10l-66 -82l-57 -63l-23 -41l-63 -70l-70 -47l-8 -39l-41 -14l-8 -23l-49 -22l-17 -39l-37 -12
l-41 -66l-24 -14q-1 -4 -3.5 -17t-4.5 -22q-33 -17 -66 -17h-12l-21 39l-30 41l4 23l-21 28l10 15l-2 2l-10 33l-16 12q-42 42 -62 72l-12 38l-20 23l-39 72l-41 45l-15 24l-39 41l-43 60q-4 6 -7 14.5t-6 12.5t-7 5q-6 -73 -27 -108l-37 -62l11 -45l-19 -45l-41 -127
l-16 -41l-4 -26l-33 -68l-29 -45l4 -41q-10 -30 -34 -72l12 -49q-59 -59 -90 -59q-32 0 -49 31q-16 16 -19 37v8q37 151 49 151q2 0 2 -2v35q0 55 41 80v12l13 41l-2 14q0 9 18 58l8 8l2 55l21 35l31 103l-11 63l27 23v6l4 80l6 34q6 15 6 29v8l-35 66l11 39l16 4l14 20
l-2 17l27 24l18 -8l25 21l29 -5l51 -34v-15l18 -12l9 -47l14 -12l12 -39l-4 -9l18 -14q12 6 23 6q14 -7 33 -26l4 -29l18 -20l15 -43l94 -91l16 -51l31 -20l33 -82l65 -113l-2 2q4 -4 12 -14l5 -6h20l16 35l50 30q47 50 47 56q0 2 -4 2h-2q10 8 26 14q4 6 29 18q14 31 49 47
l8 13v18q49 62 80 72q0 18 15 31.5t49 27.5l36 51l13 35h22q24 40 35 62l29 12l14 -2l-4 41l-18 41l28 43l17 51q13 0 24 1t17.5 2t7.5 1q12 0 57 -20l4 -17l23 -18l2 -16l20 -17l-10 -10q31 -12 31 -35q0 -8 -4 -20v-33q5 -9 24 -37l-12 -10l-2 -11l4 -2l6 -32l29 -23
l-23 -29l-10 -45l14 -32l-4 -47l19 -62q12 -58 12 -65q0 -15 -18 -39q14 -8 14 -25q0 -16 -12 -37l8 -8l-6 -115l22 -63v-68q13 -20 21 -41q11 -14 30 -33t28.5 -32t10.5 -29z" />
    <glyph glyph-name="N" unicode="N" horiz-adv-x="1599" 
d="M1466 838l-6 -11q-16 -96 -35 -118l-4 -13v-96l-20 -41l6 -24l-21 -82l9 -23l-15 -72l2 -34l-14 -45l18 -54l-34 -47l8 -26l-17 -29l7 -6l6 -94l26 -48l-34 -26l-21 -33l-76 21l-12 92l-12 4q-8 71 -8 147l-7 10l-34 7l-11 -13l-30 35l-29 -8l-45 33q-51 4 -72 8l-18 16
l-8 -2l-148 88l-12 15l-45 16l-27 35l-22 10l-33 29l-96 39l-62 73l-33 4l-20 29q-44 25 -80 68v-19l-16 -88l18 -59l-31 -100l7 -31q8 -13 8 -37q0 -26 -8 -45l18 -4l-25 -72v-45l-8 -43l15 -27l-27 -34q6 -9 6 -23q-11 -41 -43 -84h-37q-62 0 -65 88l22 70l-10 33l12 30
q-2 10 -2 29q0 14 2 20l-14 19v14q0 10 1 25t1 22q0 21 -16 62l16 24l10 35l-10 57l16 60l-12 39l16 96l-4 70l9 59l-9 18l4 119q-4 20 -4 29q0 15 6 27q5 31 50 34l18 -4l16 21q48 -23 66 -70h18l7 -63l26 -19l2 -24l31 -19l16 -57l11 -10l57 -39q21 -10 24 -37l5 -8
l49 -31l55 -55l147 -115q45 -8 70 -51l62 -19l51 -41l24 -6l62 -28l59 -19q33 -31 62 -43l6 31l20 41l-8 8l10 113l19 34v7l-25 32l25 84l-8 70l18 123l-27 26l27 80l-16 19l20 26l-6 23l98 47l10 -23l62 -10q-16 -39 -16 -59q0 -11 2 -17q15 -22 18 -40l-12 -33z" />
    <glyph glyph-name="O" unicode="O" horiz-adv-x="1474" 
d="M1419 541l-20 -43l-8 -68l-21 -18q-12 -85 -63 -105l-15 -6l-123 -86l-36 -20l-60 -66l-37 6l-22 -16l-41 -15l-103 -53q-8 3 -32 19q-14 -21 -45 -27h-9l-41 -33l-8 4h-39l-18 -14l-78 2l-102 -16h-13q-14 0 -34 -4l-58 8l-10 10l-82 12l-35 17h-49v22l-39 41l-51 23
l-23 63l-2 47l-12 15l-2 92l27 82l-4 49l10 10v39l29 29v20l12 23v20l8 10l-10 23l33 22l38 82l84 121l21 10q9 15 18 27l21 16v33l31 6q32 26 67 37l10 13q18 7 36.5 11.5t29 5.5t24.5 2t17 1l55 8l66 -8l39 2h55l12 -2l6 -2h11l12 4l65 -2l-4 -12l31 -8q12 3 12 16
q11 -19 45 -19l17 -16h61l137 -59l17 -45l12 -19l37 -14l55 -90l33 -41q55 -128 55 -154v-22zM1266 528l-11 58l11 16l-15 35q2 4 2 12q0 6 -4 10l-37 25l-12 33l-16 6l-6 29l-52 47l-30 24l-13 -6q-17 16 -34.5 27t-39.5 19t-32 11t-37 8.5t-31 6.5q-16 0 -20 2l-10 -6
l-37 10l-21 -10q-30 10 -37 10q-2 0 -15 -4t-24 -4q-10 0 -16 2q-14 -28 -67 -47l-27 4l-29 -15l-37 5q-37 -29 -86 -60l-10 -14l-10 -45l-47 -21l-8 -10q-12 -24 -33 -45v-35l-29 -12l-6 -4l-18 -62l-29 -16q-6 -98 -35 -145q-15 -20 -18 -62l-9 -22l7 -15l6 -30l24 -27
l4 -27l21 -20q60 -32 102 -35l86 23l19 -19h24l4 4l62 10l65 -10q17 17 39 17q48 28 80 28l43 25l33 2l27 20l63 2q8 2 18 2l5 7q14 20 43 26l24 58l17 -11l16 9l29 26l10 -4l35 25l61 61l27 8l12 31l16 10l-4 19z" />
    <glyph glyph-name="P" unicode="P" horiz-adv-x="1167" 
d="M1180 715l-21 -64l-37 -33v-26q-39 -13 -41 -14l-6 -3q-9 -25 -33 -28q-24 -27 -88 -41q-30 -34 -65 -37l-29 -14h-41l-22 -15l-11 -2q-7 -7 -24 -14l-23 -16h-47l-24 -21l-88 -18q-7 -1 -24.5 -2t-25.5 -2l-43 -33q-19 8 -36 8h-13l-14 -8l-27 -6l-18 -13l-14 -4l20 -35
l-12 -51l18 -67l-2 -47l8 -19q43 -6 43 -55q0 -28 -17.5 -43.5t-57.5 -28.5l-58 -18l-63 75l-27 84v78l-29 51l21 23l-6 25l2 16q-54 4 -82 10l-70 99l154 10v20l10 25l8 86l11 12l-3 78l7 33l4 110l22 47l4 4l-2 7q9 26 33 41l45 2h14q39 0 64 -19.5t25 -46.5
q0 -25 -29 -74v-10q0 -31 29 -63l-31 -9l-2 -51l-25 -20l8 -29l-16 -31l8 -39l-8 -18l2 -18l14 8h41q27 21 68 24l29 25q14 -14 26 -18q8 3 34.5 14t43.5 18l27 4l32 21h17l2 4h14q42 0 74 29l45 -4l2 10l29 12l14 18q8 -2 21 -2l18 35q11 8 16 8q6 0 9 -8q7 12 28 19l2 10
l15 10l2 17l-11 26l-16 19l-16 4l-39 32l-76 29q-56 34 -94 47l-33 -18l-57 35l-48 -4l-30 18h-33l-29 16q-3 0 -9 -1t-9 -1q-24 0 -51 17l-49 6l-37 -4l-39 12l-43 -10l-6 4l-31 -16l-25 14v-10h-49l-37 -21l-43 -6l-55 -27l-37 52q-24 40 -24 81l22 25q6 26 22 36t48 15
t51 13q7 0 15.5 -1.5t9.5 -1.5l14 -2l-6 -6l43 13l6 -5q9 3 18 3q17 0 39 -11h82l62 -4l112 -16l31 -23l29 8l53 -14l61 -2l8 -10h43l48 -29l45 -4l10 -14q35 0 74 -27l41 8l16 -41l22 -16h35l27 -39l78 -45v-31z" />
    <glyph glyph-name="Q" unicode="Q" horiz-adv-x="1509" 
d="M1710 127q23 -20 23 -39q0 -20 -33 -61l-41 -11l-43 -32l-27 10l-45 -12l-31 -37l-8 2l-4 -6l-28 6q-35 -13 -48 -13l-92 -30l-41 26v-18l-45 -14l-26 12l-17 -10l-26 2q-51 5 -60 8l-14 -12l-57 30l-37 6l-31 23l-53 25l-19 30h-24l-33 35l-31 14l-8 21l-31 -19h-16
l-31 -28l-33 4l-28 -19l-29 5l-35 -15h-26l-54 -33l-39 15l-30 -12l-43 14l-19 -4l-71 16h-50l-16 19q-37 12 -55 30l-8 25l-11 10l-55 62l-39 30l10 35l-16 29l10 57l-4 86l27 60q14 0 14 6q0 4 -4 12q-6 15 -6 27q0 14 6 26l-10 29l39 14q4 6 9 15t8.5 14.5t6.5 9.5
q1 2 5 7t6 9l2 17l-17 24l53 39l5 15l4 4h-7l64 82q0 3 -1 7.5t-1 6.5q0 41 57 41q10 13 31 29l-4 12l35 18l12 33l37 6l129 52l61 -15l86 23l6 -11l115 29l111 12q64 -2 133.5 -12t79.5 -10q16 0 39 -19l8 -6q38 0 67 -32l27 -11v-28l25 -25t24 -25t18 -22.5t16.5 -27.5
t8.5 -30t4 -38v-51q-12 -97 -14 -127q-29 -9 -38.5 -25.5t-12.5 -38t-15 -33.5l-12 -2l-10 -33l-19 -6l-6 -8l-6 -6q-19 -19 -22 -23l-13 -12l-26 -47l-25 -12l-8 -25l-66 -26l-32 -48l-23 -8l-10 -14l-49 -21l-35 -12l-14 -28l57 -54l18 6l60 -41l65 -20l97 -4l38 26
l19 -20l74 12h16q96 30 145 41v13l45 6l23 20l49 8l19 -26q15 3 20 10zM1260 602q30 50 30 107q0 67 -67 137q-8 2 -17.5 4.5t-14.5 4t-7 1.5l-58 43l-110 19l-31 -13l-39 10l-6 -8l-8 8l-14 3l-35 -15l-35 6l-31 -10l-22 -20l-39 -5q-30 -15 -43 -30l-39 4l-29 -6l-8 2
l-25 -29q-6 2 -18 2q-26 0 -37 -22l-20 6l2 -10l-7 -9l-28 -16l-37 -53l-68 -21l-34 -65l-9 14l-4 -9q-3 -8 -4 -14v-24l-31 -31v-10q-27 -31 -43 -78q-3 -42 -32 -98l2 -80l-6 -18l14 -66l55 -49v-6h10l56 -23q7 1 13.5 3.5t8.5 2.5q26 -4 41 -16h125l45 18l47 2l6 9l19 -7
v9l-10 -4l32 20q25 0 43 6l7 6l-27 49l-35 37l-4 37q-38 67 -55 112t-17 99q0 27 2 41h17q20 0 28.5 9t16.5 36q80 -46 100 -74l23 -79l2 -21l16 -27l14 -49l54 -63q0 -5 -1 -11t-1 -8h28l17 31l39 8l14 37h8q12 0 12 -8q13 8 29 8l25 43h28l19 12l6 29l29 12q11 32 47 41
l10 15q12 48 43 53l10 10l-6 15l19 16v8z" />
    <glyph glyph-name="R" unicode="R" horiz-adv-x="1560" 
d="M1608 225q49 -55 49 -86q0 -1 1 -4t1 -6q0 -21 -98 -88l-13 4l-18 -27l-47 -6l-41 -14l-58 12l-10 -4l-39 -26q-14 12 -35 20l-36 -35l-29 29l-12 -4q-6 6 -14 12.5t-9 7.5h-88l-14 17q-38 8 -41 10q-33 8 -60 18h-24l-19 21h-8q-17 0 -36 20t-25 23q-13 7 -41.5 20.5
t-43 22t-34 26t-31.5 39.5q-41 21 -65 49l-58 46l-67 65l-15 6l-38 37l-15 2l-6 -2q-16 -4 -25 -4q-12 0 -24 6q-11 3 -15.5 17t-7.5 49l19 20q11 44 41 70l57 6v-4q0 -6 6 -12h29q3 -13 33 -13t82 6v13q25 -4 73 -4q65 0 111 10l27 12l45 8l57 6l8 -2l10 4q51 15 56 15
l16 6l18 10h9l22 17l60 18q20 10 20 16q0 7 -10 17l-51 45l-21 4l-12 8q-13 13 -35 19h-27l-43 16h-28l-27 20h-41l-20 7l-117 8l-6 2l-8 -2l-29 6l-18 -4l-64 6l-68 -10l-34 10l-33 -4l-25 4l-32 -12l-17 6l-31 -19l-14 2q-4 -16 -4 -24q0 -3 1 -9t1 -8l-6 -102
q-6 -18 -6 -37q0 -33 22 -61l-24 -29l12 -53l-14 -53q-13 -50 -13 -93q0 -17 4 -53l-4 -41l15 -121l4 -16l-15 -78v-16q0 -24 -34.5 -38.5t-100.5 -14.5l15 108l-9 21l-24 104q-6 15 -6 29q0 18 10 41q-12 12 -12 26q0 19 18 54q-6 15 -6 36q0 11 4 35v23q16 29 16 33
q0 5 -20 38l16 41l-6 35l8 8l2 21l-20 82l10 37l-10 67h-49l-49 -55q-4 5 -7.5 10t-7.5 8.5t-7 6.5t-7.5 6t-7 4.5t-7.5 4l-7 3.5t-7.5 3t-7.5 3q-33 26 -33 57q0 28 29 60l47 31l74 6l69 4q11 28 30.5 37.5t55.5 9.5h56l12 -35l35 12l57 -10l78 10l113 -10l153 -4l74 -14
h74l6 -6h20v6l136 -51l55 -25l43 -4l16 -19q93 -71 105 -147l-2 -10q-5 -36 -37 -68l-84 -84l-51 -4l-11 -4q-37 -19 -80 -25l-16 -14l-63 -16h-11q-19 0 -32 -9l-50 -43l-43 25l-6 -2l-22 -12l-15 14q-4 -12 -20 -25l-39 15l-37 -15l-10 9l-12 -4l6 -5l16 -22l78 -59
l23 -33l20 -21l12 -28l47 -2l68 -64l31 -12l43 -25l41 -10l51 -18l29 2l24 14l10 -27l35 6l6 -12l25 -6l70 6l28 -6l90 16l66 15l10 18h29z" />
    <glyph glyph-name="S" unicode="S" horiz-adv-x="1521" 
d="M1317 432q69 -44 91 -75.5t22 -90.5q0 -4 1 -12.5t1 -13.5q0 -25 -29.5 -63t-77.5 -64q-18 -15 -35 -17q-39 -24 -71 -26q-15 -16 -50 -27l-36 2l-37 -31l-39 9l-13 -3l-30 -4q-36 -4 -51 -4q-5 0 -15.5 1t-15.5 1l-29 -10l-41 -4l-47 2l-22 -10l6 -6q-44 0 -74 -9l-10 3
l-78 6h-6l-119 4l-39 6q-19 -8 -43 -8q-29 0 -59 18l-39 -14l-21 18q-86 3 -100 17l-8 4q-2 0 -6 -0.5t-12.5 -1.5t-16.5 -2l-80 53l-37 8q-35 16 -57.5 54.5t-22.5 70.5q0 19 21 80l41 45l49 -2q16 22 47 22q66 0 66 -104q-44 -10 -52 -16q-12 -15 -30 -27v-6l18 -10
l25 -27l80 4l67 -20l107 2l39 -25l18 10q13 0 31 -6l53 -6l4 -10h33q47 14 53 14q10 0 25 -6q18 4 47 4q21 0 37 -4q13 8 32 8q23 0 39 -8l45 12l23 25l78 -8q59 18 94 18h10q13 10 25 10q6 0 14 -4l20 8v17h44q14 17 51 20q29 26 47 29q4 4 6.5 8.5t5.5 9t4 6.5
q0 12 -29.5 29t-101.5 51l-16 13q-44 3 -68 14q-14 0 -26 2h-5q-9 0 -19.5 3t-29.5 10.5t-30 11.5q-22 16 -48 16q-8 0 -24 -4h-41l-6 6q-32 6 -51 18l-25 -8l-63 31h-41l-27 16h-41l-6 11h-33l-29 32h-14q-62 0 -98 25l-4 4q-46 15 -66 45l-35 33l-22 53l-25 33l10 84
l50 57q12 2 18 27l8 4t7.5 3.5t4.5 2.5l105 57q20 -4 29 -4q28 0 59 21h12v-4l21 18h10q67 25 109 25h10l18 -2l31 18q12 2 33 2h12q13 0 49.5 4.5t57.5 5.5l36 2l56 29q10 -11 26 -31h45q13 0 45 -12h15q49 0 82 -20q108 -25 108 -109q0 -38 -26.5 -57t-85.5 -27l-17 25
q-7 2 -22.5 8t-22.5 8h-45l-20 23l-33 -5l-19 -20l-49 35l-53 -8l-64 14q-52 -3 -100 -25l-4 -2q-6 -4 -14 -7l-8 -3l-29 12l-57 -26l-107 -29l-25 6l-45 -28h-20l-12 -19l-43 -29l4 -12q3 -2 6 -5t7.5 -8t8.5 -9l21 -6l32 -21l64 -22l31 -3l55 -32l16 6q55 -11 80 -33l6 -6
h4q16 -10 41 -25l15 15l49 -2l8 -4h29l28 -23h15q34 0 61 -10q6 0 13 1l8 1q34 0 82 -33l24 6l19 -8h34l60 -41l61 -6z" />
    <glyph glyph-name="T" unicode="T" horiz-adv-x="1253" 
d="M1440 997l-51 -96l-48 -6h-63l-35 -6l-26 6l-130 -10l-36 8l-9 -2q-29 -10 -69 -17h-74l-16 7h-6q-24 -2 -60 -11q-31 -8 -76 -8l-32 8l-7 -24h-24l-6 -96l10 -17l-4 -31v-53q-7 -96 -16 -112l16 -23l-12 -59l12 -17l-23 -32v-17l-12 -22l8 -45l-6 -86l-12 -39
q2 -2 2 -11q0 -5 -2.5 -14t-3.5 -12q0 -3 1 -9.5t1 -9.5q0 -22 -15 -43l7 -28q0 -15 -2 -19l-3 -6q-4 -12 -4 -25q0 -35 9 -65q-46 -8 -52 -8q-18 0 -30 4l-4 2q-54 12 -54 98q2 10 2 29q0 17 -4 46.5t-4 43.5q0 20 6 35l9 84q-17 24 -17 37q0 4 4 16q-8 16 -8 25
q0 16 10 26q0 17 17 51q-4 16 -4 35q14 0 14 15q0 8 -2 12q-6 9 -6 20l6 -8l-8 19q0 38 10 67v60l-10 43l10 79l-10 60l4 20l-31 -2l-22 -12l-17 2v-8q-44 0 -84 6l-6 -16l-80 26l-106 2l-68 -18q-44 38 -63 59.5t-19 40.5t6 37v-6l45 39l39 -2l137 -25l35 10l105 -2l82 -10
l53 21l18 53l82 -21l4 4l4 -6l29 -34l8 -3l29 11l59 -15q94 17 105 17q24 0 51 -10q7 0 25 -3q35 5 36 5h15l69 8l60 -10l8 -5l31 11l43 -11l102 5l45 -7h109z" />
    <glyph glyph-name="U" unicode="U" horiz-adv-x="1509" 
d="M1595 -6l-28 -53l-58 -17q-37 -21 -65 -24l-25 -17q-5 0 -15 -1t-15 -1q-79 0 -121 51l-13 15l-14 2q-23 3 -39.5 13t-23.5 20t-16.5 27.5t-14.5 25.5l-10 14l-15 51l-24 35l-17 53l-18 37l-33 185v63l-12 -12l-31 -21q-3 -34 -31 -34l-20 -23l-29 -16l-20 -21
q-9 -26 -37 -39l-25 -26l-32 -15l-25 -30l-166 -117l-72 -43l-45 -33l-28 -8l-51 -41l-41 -19l-68 2l-39 43l-29 19v37l-16 14l-20 125l-7 16l-8 88l12 39l-6 25l6 31l-8 90l-10 16q4 32 23 49l-7 9l9 43l-15 26v43l15 21l-7 30l15 58l-10 71l8 29l-8 39l20 23q11 22 39 22
h16l49 -14q21 -9 31 -35q18 -12 33 -53l-21 -29q-26 -99 -26 -129v-6q4 -29 22 -45q-28 -121 -28 -197v-14l18 -25l-8 -45l-4 -61l12 -37l-31 -27q9 -21 23 -49q10 -20 10 -57h56q8 15 12 18l31 2l24 29q22 19 41 29q12 15 37 22l53 33l-2 20l47 9l35 36l2 4l4 3l15 16
l16 -8l20 16l17 41l16 -2q22 18 45 31l6 8l13 12v33l34 10l23 27l23 10l4 29h14q8 10 27 18v21l26 8l35 65l16 50l7 47l22 34l4 25l4 53l15 37l51 43l59 -31l15 -16q32 -20 59 -47l-19 -33l3 -26q-6 -39 -37 -54l-15 -26v-33l-14 -33l2 -55q-9 -12 -18 -12q-5 0 -7 2
q31 -19 31 -60q0 -14 -2 -20l-16 -2l6 -21l-6 -53l14 -33l-6 -45q2 -8 2 -26q16 -19 16 -41q0 -3 -1 -8.5t-1 -8.5l9 -24q15 -70 49 -144l20 -30l6 -13l21 -20l47 -45l33 -6l12 20l33 -12l8 4q24 18 55 18q15 0 80 -10z" />
    <glyph glyph-name="V" unicode="V" horiz-adv-x="1339" 
d="M1300 905l-8 -49l-22 -25l-17 -40l-24 -23l-25 -39q-10 -10 -10 -33l-8 -16q-8 -27 -39 -51q-12 -51 -60 -80l-14 -21l-49 -49l-29 -59l-41 -45l-24 -43l-21 -17l-18 -26l-74 -82l-35 -55l-39 -29l-2 -14l-18 -25l8 -64l-16 -38q-37 -29 -62 -29q-21 0 -37 8l13 -22
q-6 0 -84 133l-17 39l-30 39l-17 34l-22 58l-25 41l-2 41l-29 69l-49 82l-55 82l-20 53l-27 17l-31 55l-16 12l-35 56q-18 18 -25 34q-47 26 -92 80l-6 41l8 35l19 33l32 10h29q25 0 53 -12l15 -17l10 4l6 -12l8 -2l6 -8l15 -31l20 -16l29 -43q1 -5 15 -20t22 -31l18 -17
l6 -16l21 -17l4 -28l35 -58l4 -16l18 -29q29 -26 35 -61l-4 -6l8 -2q6 -22 21 -37l16 -35l14 -39l37 -59l-4 -23l15 -16l24 -72q7 -19 29 -55q25 25 28 29l27 14l27 31q33 33 47 65l14 10v9l25 6l2 12q9 14 24 47l27 27l14 30l23 27l22 37l29 25l31 32q9 4 18 49l10 11l7 20
l24 15l-4 28l14 17v28l23 21l10 24q0 1 12 17l11 53l16 27v28q15 22 41 33l49 20l8 -2q50 0 66 -30q22 -13 22 -35v-12q0 -11 2 -17z" />
    <glyph glyph-name="W" unicode="W" horiz-adv-x="2013" 
d="M2023 1008l-4 -60q4 -6 4 -20q0 -21 -14 -43q-12 -30 -12 -49q0 -9 -6.5 -22.5t-18 -34.5t-18.5 -36l-23 -47l-18 -32v-11l-88 -108l-17 -43l-43 -47l-30 -68l-31 -10l-10 -17q-19 -9 -25 -28l-18 -43l-23 -19l-8 -18l-51 -64l-13 -36l-26 -31v-29l-19 -31l15 -69
q-12 -39 -70 -55q-18 -9 -41 -9l-53 23l-31 84l-49 76l-2 49l-35 28l-24 54q-7 15 -16.5 35t-14 30.5t-8.5 14.5q-3 25 -23 49l-22 32l-7 35l-20 15l-16 86l-39 73l4 13l-8 12t-6 9.5t-3 4.5l-6 25q-9 -4 -19 -14.5t-24.5 -27t-27.5 -28.5q-9 -31 -60 -51l2 8l-22 -18
q-3 -1 -6.5 -2t-5.5 -1.5t-3 -0.5l-24 -25q-15 -20 -47 -45l-43 -51l-54 -80l-36 -27q-6 -7 -17 -24q-6 -25 -31 -47l5 -23l-17 -10l-10 -31l-12 -14l-33 -62l18 -16l-6 -37l6 -10q-12 -8 -14 -10v-11q0 -63 -68 -63q-29 0 -57 25l-59 81l-13 27l-59 96l-23 80l-38 72l-7 43
l-22 43l-23 80v22l-55 162l4 14l-6 7l-18 53v39l-9 71l-22 27l31 78v4q15 61 63 61q12 0 53 -12q52 -46 52 -110v-9l8 -10l-15 -41v-22l23 -158l-8 -12l12 -7l18 -34l23 -125l10 -23l15 -65l20 -9v-41l14 -26l2 -25l9 -4l12 -51l8 -2l8 -14q9 -27 13 -27v2l18 43l18 23
l17 34l14 17q1 3 19 39l28 18l6 31l50 45l16 41l31 10l2 6l4 8q13 30 35 35l30 21l15 16l6 21q44 14 59 63l39 4l16 53h23l16 33l29 2v29l27 33l10 57q39 28 41 29l2 -13l29 39h51l37 -37l32 -14l7 -51l-4 -51l4 -49l53 -123l-4 -25l14 -24l6 -25q21 -30 43 -129l27 -47
l4 -27l20 -18l39 -88q2 -4 19 -29l14 8q12 24 27 39l24 12l9 19l8 33l43 47q-6 0 -6 2q0 5 30 14l21 29l18 31l53 53l46 73l30 41l25 52l33 34l24 43l23 54l-13 16l25 47q6 15 12 27v16q-12 30 -12 58v12l10 16l19 23l6 26q23 35 59 35q32 0 55 -26z" />
    <glyph glyph-name="X" unicode="X" horiz-adv-x="1337" 
d="M1290 154q37 -34 37 -62q0 -78 -131 -96l-41 12q-10 -4 -27 -4q-22 0 -43 12q-8 4 -20 4q-62 3 -96 43l-4 3q-38 12 -74 45l-31 18l-35 33l-41 47l-92 98l-47 76l-4 10q-14 -21 -25 -43l-28 -4l-72 -57l-37 -27l-24 -45l-148 -108l-28 -48l-62 -22l-22 -25l-25 -2
l-45 -47l-29 -10l-30 -18l-13 -5l-8 -10q-24 -35 -55 -35q-56 0 -56 68q59 45 72 78l17 4q0 2 4 22q35 9 53.5 23.5t28.5 44.5l45 20l18 15q1 1 7 5t9.5 7.5t9.5 9t11 13t10 16.5l45 25l25 28q23 9 26 35l35 8l39 43v21l35 18l18 43l27 2l25 37l22 6l2 17l31 20
q-21 47 -51 74l-19 20q-16 16 -28 37l-11 19l-30 24l-78 82l-17 25l-22 22l-45 21q-56 35 -81.5 66.5t-25.5 68.5q0 10 4 22l17 7l6 26l49 21l68 -9l28 -28l45 -2l15 -27l22 -10l13 -31l26 -10l21 -31l43 -20v-43l65 -62l8 -20h9l38 -53l21 -52l16 -12q24 24 50 37l10 18v13
l61 53l33 41l10 18l27 35l43 43l8 23q7 4 23 24q1 2 2.5 14t3.5 19l43 57l30 29l50 10q77 -20 77 -96q0 -7 -2.5 -15.5t-5.5 -14.5t-10 -18t-10 -18q-15 -15 -35 -45v-12l-6 -12h-10l-15 -27l-12 -8l-31 -31l-16 -20l-8 -27l-19 -8l-8 -23l-23 -14q-13 -8 -25 -30.5
t-22 -32.5l-12 -5l-27 -38l-32 -29l-23 -33l-16 -10l20 -29l17 -39q8 -9 18 -19.5t16.5 -18t10.5 -13.5l51 -63l6 -25l51 -37l41 -41l39 -16l39 -35q17 -5 43.5 -14.5t28.5 -10.5h24l11 13l20 39q44 -8 96 -45z" />
    <glyph glyph-name="Y" unicode="Y" horiz-adv-x="1394" 
d="M1382 1085q7 -40 7 -53t-23 -31t-25 -40q-11 -20 -28 -33q-6 -25 -41 -31l-37 -29l-27 -49h-20q-15 -21 -37 -39q-9 -3 -35 -16l-43 -47l-57 -41l-19 -6l-18 -33l-45 -27l-23 -22l-20 -51l-76 -84l-24 -37l-11 -21l13 -20l-17 -37l10 -35l-16 -47l4 -29l14 -57
q-30 -38 -30 -68q0 -6 4.5 -33.5t5.5 -50.5l-16 -90l4 -51l-8 -18l14 -74l-17 -25l15 -36l-12 -19l8 -16q6 -12 6 -27v-10l-14 -51l12 -56l-19 -39l19 -24v-14q0 -81 -23.5 -115.5t-85.5 -34.5l-18 98l-19 60l-2 39l-26 16l18 41l-8 29l8 61l-12 66l6 51q0 5 -1 15.5
t-1 15.5t1 13.5t1 12.5l-10 94l10 45l-6 50l12 81l-18 33l10 49l-2 39l-16 37q16 37 16 58q0 12 -4 18l-8 37l-13 35l-20 16l-12 18q-34 16 -93 91l-32 20l-29 53l-82 74l-16 29l-33 41l-62 49v20l-30 21q-9 51 -43 51q-83 47 -86 143l10 54h25q14 12 45 12q27 0 86 -19
l14 -32l33 -11l37 -57l53 -39l2 -18l43 -68l31 -22l112 -156l37 -47q88 -93 115 -123v6q0 24 24 51l-2 -10q13 31 35 53q6 28 29 45q5 14 39 45l18 9l6 8q17 53 74 53l4 -8l19 35l10.5 3.5t9.5 2.5q21 25 31 37l14 26q36 46 88 54v24l14 17l21 16l12 43q5 -10 17 -10
q17 0 32 49l62 26l33 33l57 -4l43 12z" />
    <glyph glyph-name="Z" unicode="Z" horiz-adv-x="1857" 
d="M1741 274l-6 -47l-21 -67l-39 -88q-7 -5 -20 -33t-35 -39l-23 -29q-20 0 -26 -2l-2 -6q-18 -24 -49 -24h-9l-18 12h-6l-27 -23l-24 11l-19 -11q-32 16 -35 19q-8 -1 -53 -23q-9 33 -45 33q-23 0 -47 -8l-41 16l-35 -16l-26 22l-23 -14l-45 29l-90 8l-27 10q-60 3 -108 16
q-3 3 -11 3q-5 0 -17 -3.5t-19 -3.5q-14 0 -29 9l-49 -2l-33 18l-84 10h-33l-78 19l-20 -9l-10 9l-17 -2l-14 2q-24 -4 -35 -4q-20 0 -35 6l-45 4q-4 0 -24 4l-23 -12l-8 4q-51 -19 -76 -21l-61 -47l-33 12h-45l-12 33l-23 29v45l12 24h19v21h8l8 6l4 -6l27 27l49 14
q38 38 82 55l16 17h11l8 26h31q8 8 10 17l29 34l4 17q34 3 47 6q19 28 49 31l27 26l36 41l45 19l2 24q34 31 68 47l-4 -4l16 6l43 56l31 2l12 10l13 25l10 4q29 29 55 32q6 11 17 17l10 28l24 7l2 6l23 4l35 47l37 22l12 33l27 17l36 41l-2 6q-23 -13 -51 -13h-10l-14 11
l-33 -4l-17 6q-10 -2 -57 -2l-53 -21l-21 21l-43 -4q-4 0 -12 -1t-12 -1q-26 0 -45 8l-60 -23l-14 10l-14 -8l-31 13q-15 -11 -29 -11q-12 0 -24 6l-17 -12l-26 21l-19 -19l-53 17l-18 -7q-52 3 -74.5 33t-22.5 96l58 35q29 -2 77 -2q46 0 64 2l14 -6l41 10l101 -12l20 12
l55 -2l5 -12l6 8q10 0 16 -2l18 10l41 -8l41 15l33 -17h60l38 8l17 -8q10 2 31 2q33 0 51 -2h8l8 -6q18 12 31 12l55 -6q44 8 78 8q10 10 25 13q12 12 32 12q5 0 25 -4q64 -37 70 -105l-19 -36l-63 -19l-17 -16q-9 -6 -20 -6h-8l-9 -25l-18 -8l-35 -33l-41 -25l-8 -14
l-37 -37l-24 -39l-27 -4l-12 -24l-25 -13v-26h6l-76 -39v-17q-44 -17 -59 -26q-8 -32 -45 -45l-8 -21l-35 -14l-12 -10l-19 -31h-51l-10 -10q-11 -47 -60 -66l-4 -2v-8l-37 -25l9 2l-21 -10l-24 -14l2 6l-17 -6l-55 -68l-72 -41l-4 -8l49 2l109 -6v-2q0 -4 8 -7.5t10 -8.5
q12 -4 15 -4q6 0 30 4l50 6q28 -2 49 -27q12 2 43 2q35 0 88 -20l18 2l29 -8l22 14l21 -16q13 -1 31.5 -3t28.5 -3t23.5 -2.5t21.5 -3t16.5 -3.5t14 -5t9.5 -7l4 -2l138 -4l51 -13l92 -4l27 -8l84 6q2 0 6.5 0.5t5.5 0.5t4.5 0.5t4.5 1t3.5 1.5t3.5 2.5t2.5 3.5t2.5 4.5
t2.5 5.5t2.5 7l33 20l25 46l10 69l18 19q38 53 72 53q26 0 48.5 -17.5t23.5 -42.5z" />
    <glyph glyph-name="bracketleft" unicode="[" horiz-adv-x="856" 
d="M918 -129q-20 -28 -45 -40t-66 -15q-37 3 -80 18l-35 -8l-14 4q-27 -10 -43 -10q-4 0 -14 2.5t-15 3.5q-19 -8 -43 -8h-43q-2 -1 -9.5 -2t-10.5 -2l-27 -2l-16 -9l-35 -53l-82 31l-10 4q-40 -12 -74 -12q-24 0 -37.5 15t-13.5 42q0 12 2 20l61 33l-2 39q19 13 19 35
q0 5 -4 25l6 -5l-11 43l17 25l-8 35l8 14l-21 10l33 64l-6 37l12 26v35l6 15l-8 36l6 21l-6 39q17 56 17 94q14 11 14 27q0 8 -4 20q-10 10 -10 29q0 22 11 54t13 44l15 94l-15 43l12 80l-8 51v35l11 13l-17 57l19 16q-5 8 -5 17q-8 12 -8 22v64q0 14 6 26l-10 -6v4l-8 -2
l-156 35l70 90h23q19 0 65 4l-2 -8l31 20l43 -6l4 -10h4l39 6l12 -2l6 2q4 0 11 -1t10 -1q38 0 59 21l25 -6l30 22l25 -10q18 4 47 4l53 10l45 -39q-4 -12 -4 -14q0 -19 43 -68l-94 -16l-26 -18l-37 4q-20 -17 -66 -17q-29 0 -45 4q-10 0 -16 -2q-8 -2 -27 -2q-21 0 -33 2
l-18 -8v-12l18 -35l6 -33q9 -15 9 -35q0 -12 -2 -18l4 -72l8 -55l-8 -31l8 -57l-8 -25l8 -53l-10 -24l10 -39l-10 -7q-2 -32 -11 -90l2 -41q7 -10 13 -10h2q-6 -22 -13 -37l3 -16l-7 -2l-4 -8q-8 -24 -8 -58l8 -63q-12 -21 -12 -35q0 -4 1 -11.5t1 -11.5q0 -2 -5 -16t-5 -29
v-69l-6 -33v-49l8 -37v-68q0 -29 -19 -51l43 10l58 5l55 18l23 -8l32 6l47 27l17 -27l35 -2q20 14 45 14q13 0 37 -8q44 -21 53 -61z" />
    <glyph glyph-name="backslash" unicode="\" horiz-adv-x="884" 
d="M907 -29q-12 -55 -55 -55q-37 0 -57 47l-15 12l-30 52l4 10l-6 18l-29 15l-14 30l-29 35l-8 15l-41 36v29l-35 49l-25 8l-12 35l-51 62l-41 4v59l-4 10l-117 144l-10 30l-86 101q-1 16 -18 31t-19 18l-29 41l-26 33l-13 32l-55 68q-49 85 -74 113q-26 16 -35.5 27.5
t-9.5 31.5q0 24 15 59l38 11l27 18l98 -10l7 -43l8 -4v-33h4q18 0 31 -10l4 -53l18 -31l29 -10l-10 -37l57 -56q-3 -5 -7.5 -10t-7 -7.5t-2.5 -4.5t9 -2h8q17 -14 27 -29t12.5 -23.5t4.5 -22.5t3 -19l-6 2l37 -23l14 -24l31 -27l24 -39l4 -22l15 -19l33 -8l6 -35l30 -12v-29
l27 -22l6 -17h12l35 -65v-27l25 -43q16 -22 26 -41l37 -47v-6l29 -17l14 -49q29 -18 35 -53l23 -25l-2 7l8 -11q32 -14 39 -55l47 -74z" />
    <glyph glyph-name="bracketright" unicode="]" horiz-adv-x="856" 
d="M670 -109l-70 -90q-61 0 -88 -4v6l-29 -18l-43 6l-4 10h-4l-41 -6l-10 2l-6 -2q-4 0 -11 1t-10 1q-36 0 -59 -20l-25 6l-30 -23l-25 11q-40 -4 -47 -4l-53 -11l-45 39q2 4 2 15q0 20 -41 67l94 14l27 21l36 -4q22 16 66 16q29 0 45 -4h4q8 0 12 2q20 4 31 4q9 0 29 -4
l16 8v11l-16 36l-6 33q-9 15 -9 33q0 12 2 18l-4 74l-8 53l8 31l-8 57l8 25l-8 55l10 25l-10 37l10 8q2 32 11 90l-2 41q-10 10 -13 10q-2 0 -2 -2q2 6 5.5 18.5t5.5 18.5v16l6 3l4 8q8 24 8 59l-8 62q12 24 12 34q0 4 -1 11t-1 10t4.5 18t5.5 31v68l6 32v50l-10 38v68
q0 26 21 51l-45 -10l-58 -4l-53 -21l-23 9l-32 -5l-47 -28l-19 28l-33 3q-24 -15 -41 -15q-5 0 -41 8q-48 28 -53 60l-28 28q21 29 45.5 41t64.5 15q31 -3 78 -19l35 9l16 -5q27 9 43 9q9 0 29 -4q18 6 43 6h43q3 1 10 3t10 3l27 2l16 6l35 55l80 -30l12 -7q51 15 72 15
q25 0 39 -16.5t14 -45.5q0 -12 -2 -18l-61 -31l2 -39q-19 -16 -19 -37q0 -8 4 -24l-6 6l11 -43l-17 -27l6 -34l-6 -13l21 -12l-33 -64l6 -34l-12 -29v-33l-6 -16l6 -35l-4 -20l4 -39q-15 -61 -15 -97q-16 -13 -16 -26q0 -10 6 -19q10 -13 10 -28q0 -21 -11 -55t-13 -46
l-17 -92l17 -43l-12 -80l8 -51v-37l-13 -10l19 -57l-21 -17q1 -2 4 -8.5t3 -9.5q5 -5 8 -21v-63q0 -15 -6 -27l10 6v-4l6 2z" />
    <glyph glyph-name="asciicircum" unicode="^" horiz-adv-x="2048" 
d="M926 1462h194l512 -565h-98l-512 420l-514 -420h-96z" />
    <glyph glyph-name="underscore" unicode="_" horiz-adv-x="843" 
d="M831 -297h-819v80h819v-80z" />
    <glyph glyph-name="grave" unicode="`" 
d="M666 1053l-33 -47l-70 18l-14 10q-7 7 -17 15q-35 3 -43 20q-5 0 -20 2.5t-27 3.5l-18 25q-16 12 -21 22q-11 4 -36 25q-33 13 -48 37l-20 20q-10 2 -17.5 7t-10 8t-8.5 12t-7 10l-2 6l-41 10l-4 43l14 17l19 31l32 10l29 28l45 -20l29 -8l22 -31l41 -43l21 -37l22 -16
l13 -25l26 -10l15 -20l28 -13l8 -10q15 -9 31 -25l6 -4q27 -13 33 -26z" />
    <glyph glyph-name="a" unicode="a" horiz-adv-x="1054" 
d="M905 829l-20 -26l16 -49l-27 -31l-10 -43l-6 -10l4 -11q0 -29 -14 -43l-4 -6v-8q6 -15 6 -27q0 -10 -2 -14l2 -8l-8 -23l6 -24l-17 -17l7 -28l12 -15l-19 -16v-33l-14 -32l10 -33l-12 -17l21 -14l-29 -47l-2 -6l20 -4l-14 -47v-9q0 -14 -2 -22l2 -6l33 -4l26 -41l-14 -31
l23 2q11 -23 14 -43l-31 -31q-18 -18 -41 -28l-35 -19l-10 10l-20 -12l-64 74v35q-12 40 -12 75v13l-12 121l16 86l-12 49l-35 -58l-19 -53l-16 -8l-29 -45l-51 -47l-14 -25l-45 -39l-10 -26l-66 -41l-70 -78l-38 -8l-27 -21q-55 3 -78 39q-48 21 -70.5 50t-25.5 79l10 6
l-2 13l-2 24l-12 27l12 28l4 43l14 68q0 2 -1 7.5t-1 8.5q0 9 4 21q-2 4 -2 16q0 10 13 47l14 7q-12 9 -12 22q0 8 2 12q-2 6 -2 15q0 25 24 37q6 20 23 41l-10 16l24 31v8q0 37 27 72l-2 36l8 9q0 2 -1 6t-1 6q0 12 8 20v13q8 21 43 62t51 71l11 -10l22 10l10 4l68 31
l158 -9v-14l49 -10q45 0 61 -31q0 6 1 14t1 9l43 -39l39 -9l74 19l26 -51zM711 723l-9 14l-16 4l-63 52l-41 6h-33l-4 4l-17 -6l-18 10h-53l6 -8l-47 -17l-8 -10l-7 -2q-34 -27 -51 -51l-14 -49l-8 -19l20 -28l-35 -27l4 -8q-22 -40 -22 -76l-16 -20v-37l-17 -19l-4 -18
l-6 -4v-29l-6 -10q0 -25 -4 -39l4 -10l-19 -39l9 -13l-15 -20l15 -39l-23 -29l4 -39v-6l8 -4l11 2q15 15 20 19l-4 16l29 4l6 15l121 98l12 4l14 35q27 11 35 16l12 33h17l-6 35l28 4q3 6 15 18q9 16 18 25l104 139l17 31l-2 8l14 23l4 22l19 16z" />
    <glyph glyph-name="b" unicode="b" horiz-adv-x="993" 
d="M891 319l-19 -18l7 -49l-48 -57v-25l-16 -16l12 -19l-41 -39l-26 -45l-43 -24q-25 -25 -53 -27l-17 -37l-20 19l-21 -27q0 11 -16 27l-15 8l-16 -19h-6l-16 -20l-27 16l-43 -18l-27 24q-6 -2 -18 -2q-30 0 -82 19l-29 14l-10 10l-33 13l-14 43q-34 3 -72 16l-43 92l6 15
l-10 16v37l-12 20l8 25q-6 21 -6 39q0 3 1 8t1 8v64l8 20l2 121l6 29l-10 12l19 57l-7 19v45l11 12l-2 29l-9 20l19 66l-14 82l6 6v26q2 10 2 33q0 29 -4 45l4 15l-17 59q4 14 15 20q-2 3 -6 8t-5 7q7 14 7 24q0 15 -15 37q0 18 6 33l-8 20l10 23l-32 70l32 6v4l72 37
l37 -43l4 -21l31 -22l-2 -31q0 -21 -4 -45q14 -14 14 -27q0 -6 -4 -14l8 -8l-8 -33l14 -37l-2 -14l27 -13l-15 -26l-12 -53q-4 -26 -8 -37q6 -12 6 -56l-4 -16l6 -16l-10 -33q0 -16 -6 -37l-2 -6q7 -7 22 -27l-22 -43l6 -24l-4 -13q0 -17 -6 -38l2 -9l-2 -22l-2 -31l-7 -65
l27 -7l4 64l14 43l9 -4l12 31q8 37 33 69q5 10 12 17l6 6v-4l8 24l25 27l14 14l2 8l13 17q0 26 18 39l4 16l27 8l10 6l4 13l-2 28l31 6l16 7l-14 14l33 8l34 27h64l39 -23l12 -2l35 -49l2 -20l16 -3l6 -43l21 -16v-31l12 -14l15 -8l8 -66v-6q0 -10 12 -27.5t12 -29.5
q0 -13 -6 -25l25 -10q-3 -27 -15 -45l7 -45q8 -20 8 -31q0 -6 -4 -22l-2 -88l8 -19l-8 -33zM754 473l-4 37v35l-15 94l-18 68l-27 59l-45 72l-10 -4l-8 -11h-11q-9 -36 -45 -39q-38 -52 -43 -61l-24 -23l-8 -30l-21 -25l-20 -51q0 -42 -27 -76l-12 -18l2 -33l-33 -45
l-16 -72l-15 -8q0 -3 1 -9t1 -9q0 -36 -18 -74l12 -37l-24 -10l-4 -8l-17 -17l45 -10l27 -14l41 6l37 -17v-28l8 -9h49l33 7q12 18 37 18h6l16 6l-8 25h57q17 52 68 94v20l24 46v47l7 53l-4 33z" />
    <glyph glyph-name="c" unicode="c" horiz-adv-x="882" 
d="M850 319l-39 -36l-2 -13q-3 -33 -35 -59q-50 -92 -137 -135l-31 -25l-26 -4l-33 -24l-23 -3l-51 -32l-33 4l-37 -17l-28 9l-15 -13l-38 6l-39 -6l-15 13l-41 8l-59 45l-33 41q-31 35 -31 65v7l-20 30v27q-6 24 -6 45v14l-10 35l10 25l-8 16l24 39l-6 33l16 53l9 12l8 49
l-4 9l24 26l4 21l17 47l26 57l37 33l8 18l13 23l4 20l33 39q12 5 28 8q9 39 103 45q81 -16 102 -43q23 -4 35 -18l43 -2l29 -37q10 -19 14 -41l16 -16l-6 -31q2 -14 2 -45l10 -8v-31l9 -63q-44 -44 -99 -50q-28 54 -71 80l-4 68l-13 22v17l-20 24l-10 9l-19 -7h-26
q-15 -3 -28.5 -14t-21.5 -21.5t-24.5 -35t-26.5 -37.5l-2 -21l-12 -10v-37l-27 -28l-8 -23q-10 -23 -25 -67l2 -25l-16 -37l6 -45l-12 -6l-4 -57l2 -11l24 -24l11 -43l28 -8l2 -17l35 -6l27 -6q13 8 35 8h14q23 10 45 10q32 12 37 13q22 32 70 32h12q10 0 14 11q21 36 72 45
q58 51 65 82q29 16 37 51l13 8l6 47q53 -8 73.5 -28t20.5 -66v-17z" />
    <glyph glyph-name="d" unicode="d" horiz-adv-x="1161" 
d="M1047 147l-25 -86l-16 -24q-30 -49 -64 -49q-24 0 -65 35l-41 59l-19 37l-8 37l-18 61v90l-7 78l7 43l-5 12l-51 -71h-6l-2 -7l-35 -55l-57 -61l-43 -60l-45 -43q-19 -33 -43 -57l-41 -29l-25 -32l-45 -15l-18 -22l-45 -8l-37 -23l-6 2l-4 -10l-64 8l-76 53
q-31 34 -39 76q3 2 7.5 7t7.5 7q-3 3 -23 11l-18 41l10 14l-10 24l10 29l-4 37l14 59v64l15 18v43l14 27l4 31l4 4v26l21 33l4 29l12 20l6 13l8 49l15 43l10 10l4 27l27 28q2 7 18 43l51 23l33 35l94 26q23 0 35 2l14 -8l5 17l47 4l16 -7l14 3l13 -11l39 -2l8 6l10 -8l20 -2
v-14l9 -6l41 -9l30 -34l41 -31l11 -21l2 -2l8 29l12 27l-4 47l8 86l-12 33l16 24l-8 23l6 57l-6 49l-18 15l28 32v23q0 34 -26 76h12l22 32q30 6 56 6q29 0 47 -12q19 -6 26 -28.5t7 -69.5h-11l-2 -8l19 -17l-12 -32l18 -39l-10 -13q6 -15 6 -28q0 -16 -6 -31l10 -12
q4 -8 4 -27q0 -24 -10 -41q-10 -125 -19 -160q2 -6 2 -18q0 -17 -6 -35v-12q0 -24 -8 -55l-6 -62l-10 -16l6 -19l-10 -30l10 -27l-17 -64l11 -47l-6 -26l4 -41q6 -15 6 -27q0 -10 -2 -16l12 -13l-16 -41l16 -43l-6 -12l6 -12l-6 -12l6 -7l18 -16l35 -4zM293 141l35 15l4 12
l39 14l4 13l24 14v4l52 53l24 10l12 27l27 4l33 37l-6 4l14 14l20 44l19 18l10 45l33 10l22 33l9 6v37l30 14l43 78l-8 4q-11 4 -18 13.5t-15 25.5t-14 25q-22 6 -35 26h-12l-37 23l-47 10l-45 -6l-47 -12l-14 12l-17 -6v-8l-18 -4q-18 -34 -58 -58l-16 -35l-16 -12l-15 -33
l-6 -67l-18 -17v-36l-21 -15l4 -49l-35 -68l-6 -32l-4 -54l13 -22l-15 -23l12 -14l-20 -37l10 -18l8 -25l13 -8h14l18 16z" />
    <glyph glyph-name="e" unicode="e" horiz-adv-x="772" 
d="M696 242q39 -45 39 -74q0 -25 -37 -62q-10 -33 -30 -53l-13 -2l-22 -39l-37 -6l-39 -24l-20 -37l-23 4q-22 -10 -37 -12l-12 -19q-6 2 -19 2q-26 0 -51 -37l-28 25q-8 -2 -25 -2q-26 0 -45 8h-35l-16 10q-80 12 -99 60v6l-24 12l-12 35l-25 16v31l-25 90l5 74l8 33v43
l10 32l-2 15l14 24l-4 -4q0 19 10 39v10l-6 49q0 34 31 62q2 4 2 12q0 2 -1.5 8l-4 16t-4.5 21q-4 16 -4 25q0 24 12 51q16 -25 47 -25h6q4 8 19 19q16 50 45 86l8 8q0 6 12 47h17l4 10l16 5q9 16 14 18q5 8 12.5 12.5t17 8.5t13.5 6q7 12 25 26q8 4 20 8l9 13q56 18 69 18
q18 0 31 -8l10 2l15 -8q26 -20 49 -31l35 -27v-8q47 -38 47 -104l-6 -21l6 -67l-19 -13l-20 -53l-39 -43l-2 -33q-63 -46 -121 -75q-19 -29 -57 -29h-7l-38 -25h-33l-49 -20l-37 18h-4q-6 -20 -9 -49l-16 -12l-2 -25l-12 -34q6 -48 6 -64l-8 -6q0 -29 -2 -39q0 -2 -1 -6
t-1 -6q0 -17 16 -27q6 -25 20 -31l15 -12l45 -12v-6l16 -4l70 -5l41 7l20 14l13 4l20 31l10 2l52 16q9 15 26 25l6 10q23 5 33.5 14t13.5 29q29 29 74 29h8zM532 758q0 6 -6 24l-10 2l-4 -2q-3 0 -8 -1t-8 -1q-2 0 -6.5 1t-6.5 1l-20 -14l-19 -2l-10 -4l-35 -45l-22 -17
l-33 -57l-18 -12q-7 -35 -29 -60l-8 -14q22 14 51 14l14 7l6 18l29 -2l17 24h12l22 -8l11 31h14v23l27 6l6 6l4 18l26 39q4 10 4 25z" />
    <glyph glyph-name="f" unicode="f" horiz-adv-x="843" 
d="M1012 1229v-6q0 -42 -49 -82l-17 10l-33 -18l-41 79q-4 33 -16 52l-12 -7l-35 19l-12 2l-27 -16l-43 12l-14 -6q-18 -21 -37 -21q-8 0 -14 2v-20q-45 -70 -52 -80q-2 -20 -14 -76l-18 -12l-9 -23l-10 -18l10 -41l-24 -37l-8 -31l-9 -16l2 -29l-28 -73l4 -35
q-2 -7 -25 -58l-2 -8q19 8 35 10l12 -2q1 0 3.5 1.5t7 3t8.5 2.5h6q4 0 14 -1t25.5 -2t30.5 -2l6 5q24 4 28 4q17 0 45 -11q28 7 43 7t29 -7h19l26 -6q74 -3 74 -59q0 -18 -6 -39l-92 -27l-54 9q-35 -9 -75 -15l-11 10q-14 -14 -39 -14h-22l-57 -27l-29 15h-10
q-18 -21 -41 -27l2 -12l-8 -29l12 -35l-27 -53l6 -82l-10 -28l6 -29l-20 -45l6 -25q2 -2 2 -10q0 -3 -8 -45t-8 -82v-18q0 -2 22 -27l-14 -35l14 -41l-10 -33l22 -100l7 -110l32 -41l-18 -46q24 -43 24 -69v-6q0 -4 1 -11t1 -10q0 -79 -90 -82l-16 33l-25 14l-4 37l-41 115
v23q-8 36 -8 43q0 10 2 14l-6 35l6 34l-6 23v45l-20 129l4 4l-4 23l4 28l-15 27l13 23v106l10 12v74l6 16l-6 64l8 24q1 6 3.5 26t8 56t13.5 74h-9l-26 8h-31l-57 -8l-35 8l-59 -12l-21 4q-10 -2 -25 -2q-89 41 -96 64l-10 34q14 44 29.5 62t44.5 18q8 0 18 -2t25.5 -6
t25.5 -6l119 -4l57 12l50 -2l18 -2l6 27l4 59l11 25l-7 41q0 21 17 38l-2 23l22 25l11 61l8 10l-6 27q24 27 24 47q0 1 -1 5t-1 7q0 6 4.5 18t12.5 34t14 43l14 10l2 45l4 -10v6q0 34 29 51l12 18l25 60h4q22 0 22 26v9l58 20h16q27 8 55 8h15l10 4l45 11l53 -13q2 -1 17 -6
q20 8 28 8q30 0 54 -43l28 -20l21 -41l31 -31z" />
    <glyph glyph-name="g" unicode="g" horiz-adv-x="1228" 
d="M1077 254l-16 -76l4 -24l-4 -7q8 -19 8 -36q0 -13 -6 -25v-4q0 -7 -2.5 -31t-7.5 -72.5t-9 -97.5l-4 -39v-8l-4 -8l-2 -8l2 -13l-6 -6l-6 -12h-8l2 -10l-4 -13q0 -15 -10 -28l-11 -33q-6 -24 -20 -41q-11 -25 -51 -72l-35 -26l-39 -33l-31 -14l-24 -19l-17 -4
q-42 -23 -92 -26l-12 2l-19 -9v-4q-36 -8 -59 -8h-80l-49 10l-43 -8l-21 19l-61 6l-41 37l-31 16q-82 30 -94 109l4 8l-6 32q24 38 45 41q18 11 33 11q3 0 17.5 -3.5t41.5 -7t58 -4.5l-5 -30l25 -17v-24l-16 -21l94 -29l47 11v-15l14 4h4q3 0 27 -4l2 -8l21 10q30 13 98 13
q12 8 20 16q3 0 11 -1t12 -1q11 0 24 25q3 -6 9 -6q3 0 9 4t9 4h4l66 57l30 47l2 27l23 28l2 27l12 25l11 55l16 51q-2 12 -2 37q0 44 12 90l-8 33v100l-16 35v57l-17 43l2 66l-2 10l-14 -4l-12 -31l-31 -26l-37 -60l-53 -37l-58 -59q-73 -65 -114 -90l-21 -25l-30 -18
l-29 -14l-27 -27l-32 -16q-16 -16 -48 -23q-44 -31 -102 -31h-23q-10 -2 -28 -2q-17 0 -25 2l-37 2l-53 52l-39 51l-16 43l-15 82l9 59l20 70l-4 22l18 64l19 37q8 27 8 63l45 84q7 17 31 35l20 35l25 26q9 26 33 47q17 8 20 31q11 23 80 41l-10 -2l10 4q2 2 29 41l24 -4
l19 12q32 29 69 29h15l53 21l31 -11h37l22 -12q21 -3 33 -18l29 -29l8 -4l4 -8l18 -29l2 -10l-6 -33l4 -23l-26 -41l-60 -8l-30 49l-29 11l-15 14h-20l-8 -4t-15.5 -8t-19.5 -9l-2 -16h-51q-21 -30 -45 -33q-9 -6 -25 -14l-16 -39l-15 -2l-2 -18h-28l-27 -43l-22 -15l-9 -28
l-30 -43l-4 -41l-25 -25l-23 -88l-16 -16l2 -23l-24 -78l6 -24l-2 -25q14 -21 14 -43l14 -4l6 -12q33 0 45 -9q19 15 101 31q12 28 37 43q6 1 17.5 7.5t32 19t40.5 22.5l6 -2q0 16 12 31q41 16 49 27q5 7 7 16l32 8l21 19l51 69l14 -8q5 13 13 23t18.5 19t13.5 13l50 58
l4 26q26 24 57 131l-10 43l-17 29l13 31l-17 22l-4 29l-6 21l20 36q34 17 48 17q17 0 49 -19l14 -26l27 -21l4 -45q6 -17 14 -55q10 -17 10 -43v-14l4 -13l23 -33l-6 -36l12 -17q6 -15 6 -30t-2 -23l19 -6l-15 -51l9 -39q10 -20 10 -37q0 -18 -10 -41l12 -10z" />
    <glyph glyph-name="h" unicode="h" horiz-adv-x="1091" 
d="M948 70q10 -33 10 -50q0 -35 -25 -58t-63 -23q-43 0 -63.5 32t-34.5 111v29q6 9 6 20q0 6 -2 10l-28 43l20 39l-8 43l8 25v26l4 25l-8 37l8 18v68l2 88l-14 68l8 24l-14 51l-17 -14l-45 -18l-61 -78l-25 2l-37 -60l-6 -24l-22 -10l-23 -35l-10 -23l-23 -71l-36 -46
l-9 -28l-20 -17l-8 -49l-41 -37l-6 -75h-19l-6 -13l-37 -63l-35 -37l-30 -41l-33 10h-27l-24 33l-23 74l-4 108l-6 35l6 41l-4 96l16 4l11 142l8 26l-6 43l10 7l8 65l8 23l-8 28l6 11l-4 6l6 57l-16 14l14 29l-2 59l-22 60l16 18l-14 56v32l-7 15l-10 65l-10 31l-31 59
l23 29l20 35h19q46 0 67 -33l29 -23l12 -36l31 -27l-6 -29l14 -43l-2 -4l4 -4l-2 -67l2 -91l15 -57l-11 -25l4 -34l-10 -29l6 -49l-10 -41l4 -8l-4 -125l6 -29l-12 -14l-6 -68l-8 -31l8 -55l-8 -16l-2 -41q22 6 22 24l16 17l15 26l4 39l22 33l13 41l30 33l9 39l20 2v18l2 25
l25 14v16l20 5l4 32l-2 17l37 16l10 8l-4 21l19 6l14 35h25l22 14q0 15 2 21l23 10q4 4 35 22q22 13 34 15v4q54 26 74 26q30 0 55 -28q23 -8 29 -31l18 -12l7 -29l30 -47v-164l-2 -72l8 -18v-152l-6 -26v-41l6 -45l-8 -39q9 -37 11 -51l22 -23v-16z" />
    <glyph glyph-name="i" unicode="i" horiz-adv-x="671" 
d="M305 1485q135 -35 135 -101q0 -26 -32 -45v-4q-39 -47 -68 -53l-31 -37l-20 -26l-47 -13l-21 -28l-33 -17l-53 -47l-33 31l7 51l22 37q3 29 33 49v8l12 8l2 31l33 8v19l25 4q6 37 34 59l6 4l13 13zM649 299q0 -45 -16 -59l-10 -9l-11 -28l-32 -10q-14 -34 -43 -52l-19 -6
l-26 -29l-25 -6q-14 -36 -59 -39q-3 -3 -5.5 -6.5t-6.5 -8.5t-7 -9q-31 -22 -63 -25l-11 -2l-14 -18h-41l-33 -25l-84 62l-39 80l-2 100l-8 24l25 181l8 8q-6 30 -6 59q0 35 12 76l10 47q-4 13 -16 27l12 39l4 47l4 6q-7 18 -10 41q1 4 3 11t3 11q-6 18 -6 35q0 20 15 32.5
t41 12.5l24 -2q26 13 31 13q40 0 55 -46v-8q8 -24 8 -47q0 -18 -4 -26l-14 -103l14 -29q0 -38 -24 -65l8 -25l-27 -77q-4 -49 -10 -78v-51l-12 -29l2 -21l-4 -47l4 -37l30 -24l25 4l4 6l16 -2l27 8l23 23l8 12l14 2l4 10l6 9l13 -9l20 21l12 -2l5 14h4l6 16l18 9l39 18
q47 33 92 33h8q22 -16 31 -37z" />
    <glyph glyph-name="j" unicode="j" horiz-adv-x="557" 
d="M408 1389l-41 -25l-11 -18l-16 -7q-11 -22 -43 -41l-45 -57l-25 -12l-10 -31h-6q-21 -39 -96 -88q-21 46 -21 92q0 28 6 58l21 32l14 35l33 29l16 39l13 26l-4 41l43 15l10 34l16 -4h19q28 4 47 4h20v-14l10 -8q27 -3 43 -31zM360 -31h-16l-4 -49v-72l4 -14l-4 -63
l10 -56l-10 -22l6 -27q-5 -12 -12 -74.5t-33 -113.5q-11 -43 -43 -72h-14l-15 -24l-8 -11l-45 -22l-6 -8q2 -2 2 -7q0 -9 -10 -22l-35 -6q-3 -1 -9 -2t-9 -2l-33 -19l-23 4l-4 -4h-24l-25 -14l-27 20l-41 21l-22 4l-14 12l-43 6l-19 19l-12 6l-62 35l-18 14l-12 19l-17 6
l-6 8q-15 3 -24 18l-5 6q-10 19 -22 39l-33 23l-16 26l-17 5l-24 55q-8 16 -8 35q0 22 12 37l65 -5l29 -40l39 -25l8 -19l33 -14v-22l10 -2l8 -15l33 -16l12 -8l15 -9q3 -2 5.5 -4.5t6 -6.5t6.5 -7l49 -25l29 -2v-14q10 -5 25 -10h8q13 0 26 -8q13 0 25 -9h14q17 3 25 5
q23 16 41 24l35 23l4 12l24 18l-2 11l2 8v4l13 18l20 49l-10 21l31 82v37l-21 16q16 38 37 55q-12 39 -16 80l2 6l-6 5v10q0 28 14 63l-16 43l10 27l-23 49l21 14l-6 9v104q-9 21 -9 39q0 21 13 47v6l4 64l-25 71l10 33l-10 53l8 15l-16 98v100l-10 23l2 14l-12 31l20 20
q9 12 14 17q15 59 60 59q37 0 53 -41q48 0 51 -49l4 -49l-14 -23l2 -26l-2 -6l8 -23l-14 -49l8 -33l-8 -61l8 -82l-6 -27q4 -24 4 -37q0 -19 -6 -34q2 -35 16 -115v-29l-8 -67q14 -35 14 -76q0 -19 -4 -47z" />
    <glyph glyph-name="k" unicode="k" horiz-adv-x="1282" 
d="M1294 152l-12 -23q0 -59 -41 -92q0 -22 -14 -33l-10 -22l-27 -19l-12 -22l-82 -43l-39 -11l-60 -4l-32 15l-27 -2l-27 18l-20 2l-82 43l-74 61q-43 40 -98 82l-45 62l-37 31l-6 14l-19 22q-17 16 -31 33t-21.5 26t-10.5 11l-35 12l-39 78l6 31q12 66 66 74l39 -13l33 -32
l34 -23h33l8 -6q17 0 27 -2q30 17 72 22l18 4l12 27h50q24 18 47 21h4q4 0 4 8q0 5 12 26l39 19l16 16l31 51h14q10 22 17 58l18 12l-14 8l8 35q-4 8 -22 14l-25 -8l-8 17l-21 8l-6 8q-32 4 -88 8v8l-12 -8q-16 4 -25 4q-27 0 -78 -28h-28q-76 -25 -88 -39l-45 -15l-64 -51
l-59 -59v-8l-39 -68l-12 -39l-9 -4v-8q-4 -8 -10 -23l-12 -6l4 -6l-6 -10q-2 -4 -2 -11q0 -10 8 -18q0 -43 -21 -55q-4 -8 -4 -17q0 -6 2 -10q0 -35 -14 -57q-9 -9 -12 -15l6 -30l-6 -41l2 -33q-17 -39 -17 -59q1 -4 2 -9t2 -8.5t1 -5.5q0 -23 -25.5 -47.5t-48.5 -24.5
q-30 0 -60 35l-22 64l6 37l-6 79l6 21v65l4 27v23q0 40 4 83t4 44v34l2 19v57l7 17l-7 24l9 68v71l-9 41l11 17l-2 8l-9 111l-14 67v19l12 69l-8 27l-4 49q-4 32 -4 43q0 73 113 76l45 24l-9 -100l9 -57l-15 -60l4 -65l11 -37l-6 -35l4 -49l-7 -41l11 -43l-4 -10l8 -21
l-10 -57v-12l10 -39q-10 -5 -10 -31l-7 -49l5 -19l24 43l12 47q1 3 4.5 8.5t11 17t13.5 22.5q0 19 14 36h23l16 35l47 23q29 29 66 41l12 10l33 16l27 6q43 38 186 50l160 -13l33 -18l16 -2l35 -37l2 12q27 -12 39 -39q1 0 3.5 1t4.5 1q7 0 16 -6l43 -88l-2 -10
q10 -20 10 -37q0 -29 -22 -57v-13l-29 -75l-43 -60l-12 -2q-6 -8 -16 -21l-9 -12q-21 0 -34 13v-33l-17 -10l-12 -23l-37 -10q-9 -3 -18 -18q-142 -56 -158 -56q-6 0 -23 3t-30 3q-9 0 -13 -2q0 -2 23 -45l27 -16l36 -66l56 -32l4 -9l18 -10l27 -31l49 -38l66 -27l36 -10
l27 2l14 6q38 5 78 33l35 63l20 25l13 37q30 10 49 10q47 0 61 -53z" />
    <glyph glyph-name="l" unicode="l" horiz-adv-x="669" 
d="M596 303q39 -6 51 -21t12 -59q0 -24 -16 -37q-18 -30 -53 -51l-21 -14l-18 -25l-19 -8l-28 -18l-21 -2l-8 -9q-40 -12 -63 -41q-13 -10 -27 -10q-8 0 -14 2q-36 -20 -90 -20q-46 0 -62 8l-37 20l-12 21v6q0 26 -23 43l-8 41l-16 18l-10 76l-2 45l2 33l4 12q-6 12 -6 27
q10 85 10 109l-19 36l19 31l6 51l-4 35l12 31l-12 41l18 28l2 19v72l7 14l-3 86l7 88l-9 16l-2 62l7 55l-7 21l13 122q18 4 35.5 9.5t27 8.5t12.5 3q34 0 54 -35l4 -16l30 -31l-16 -43l4 -8q-4 -39 -10 -51l4 -43l10 -39l-14 -43q0 -37 -10 -64q-1 -3 -1.5 -8t-1 -12.5
t-1.5 -12.5l-2 -12l18 -22l-8 -23q4 -16 4 -22q0 -13 -8 -33l4 -19l-12 -65v-43l-15 -43l8 -39l-8 -90l6 -10l-10 -48l-4 -57q-4 -12 -4 -14q0 -35 -2 -58l10 -28l-4 -31l12 -27l-2 -10q13 -11 23 -33h18l27 -8l12 17l19 2q12 4 18 4h6q22 6 33 20l12 6q14 22 47 31
q5 1 10 5.5t13 13t16 14.5q0 29 35 43q31 0 41 10z" />
    <glyph glyph-name="m" unicode="m" horiz-adv-x="1845" 
d="M1821 242q-10 -29 -27 -43q-7 -24 -18 -33q-10 -20 -25 -29l-8 -12q-9 -12 -23 -12l-10 -21h-14l-10 -18l-17 -6l-12 -15l-10 -8q-31 0 -52 -18q-27 -11 -55 -11q-27 0 -57 15q-31 5 -33 10l-29 4l-6 6l-12 25l-23 18q-22 25 -24 49q-16 21 -29 78l-20 33v18l-15 62l2 24
l-12 64l6 51l-10 14l-21 -51q-40 -43 -45 -53q-8 -8 -18 -8q-6 0 -8 2l-12 -23q-3 -3 -3 -8q0 -11 15 -14q-5 -5 -21 -29q-8 -16 -14 -22l-6 10l-4 -29q-28 -22 -37 -61q-16 -11 -36 -39.5t-28 -36.5l-26 -29q-10 0 -10 -4v-4q-12 -29 -43 -45l-25 -31h-14l-50 -18
q-61 3 -75 53l-2 23l-13 26v23l-16 59v19l-12 20l8 64q-2 10 -2 28q0 17 2 23l-2 12v8l-10 23l16 39q-1 7 -5.5 24t-6.5 29l6 18l6 60l-16 43l4 35l-6 18q-6 15 -15 39l-14 -8l-27 -33l-24 -23l-50 -61l-4 -23l-34 -36l-15 -29l-14 -16q-6 -47 -45 -64l-2 -29
q-13 -13 -25.5 -32.5t-17.5 -24.5q-9 -5 -19 -12l-24 -35q0 -34 -27 -49v-12q-13 -16 -33 -33l-2 4l-6 -29q-17 0 -31 -39l-6 -8q-3 -33 -34 -49l-29 -27q-32 -16 -43 -16q-21 0 -42.5 25.5t-27.5 62.5l-8 45q-2 4 -2 12q0 14 6 29l-10 39l4 33l-4 32q3 43 14 54
q-6 42 -6 49v37q3 4 10.5 17.5t10.5 19.5l-13 12q-4 16 -4 18q0 13 25 49l-15 39l9 25l-13 59l4 29l-10 45l2 31l-18 37q40 79 88 79q24 0 47 -20l4 -20q35 -18 35 -56q0 -7 -2.5 -22.5t-3.5 -20.5l-8 2l18 -35l-12 -16l-2 -8l12 -94l-4 -80l-6 -15l8 -32q6 -9 6 -21
q0 -17 -16 -33q0 -28 -11 -47l7 -61v-25l2 4l12 19l29 51h6q14 0 26 39l15 39q5 14 30 39l9 37l24 37l8 28q5 4 10 7.5t7.5 5t3.5 2.5l2 6q6 8 45 43l12 6l4 20l11 6q10 44 51 58l-8 6l8 4q-2 2 -2 6t4 12l33 15l6 33h22q0 2 4 14l41 33q28 8 39 8q25 0 68 -14l20 -29l8 -4
l11 -25l28 -39v-26l19 -21v-31q22 -49 22 -84l-6 -24l12 -35l-22 -22l8 -45l-2 -13l-2 -10q-4 -16 -4 -31q0 -11 10 -41l-6 -22l6 -29l-6 -6q3 -14 6 -46.5t6 -49.5l-2 -8l66 71l20 39q3 5 12.5 18t14.5 21v4q9 33 27 45q0 14 20 31l16 10q9 36 43 57l11 29l18 25l21 20
q18 13 28 45l17 25l8 31l22 12l23 29l22 49q-8 0 -8 4l4 8l15 12l16 33q35 12 39 12l8 -4l37 -2l33 -14l28 -33l7 -29l-2 -22l-11 -8l-22 -43l-8 -47q10 -10 10 -37q-8 -11 -8 -27l-9 -16q5 -12 5 -33q0 -15 -3 -27l-8 -10l8 -14l-14 -19q12 0 12 -26q5 -15 5 -17
q0 -4 -5 -14q5 -25 5 -39v-4q0 -7 3 -17.5t10.5 -31t12.5 -35.5l4 -21l23 -24l12 -29l12 -6l9 -12l10 -2l18 -4l10 2h7q20 0 49 16q8 22 43 43q3 12 24 39l35 25l12 24q15 10 35 10q22 0 49 -12q13 -23 13 -61z" />
    <glyph glyph-name="n" unicode="n" horiz-adv-x="1372" 
d="M1395 342q0 -2 1 -5t1 -5q0 -16 -27 -43l-22 -35l-9 -41l-18 -6l-4 -12q-34 -11 -47 -52q-21 -27 -49 -41q-9 -9 -19 -14l-10 -18l-18 -4l-54 -29l-69 -8l-19 4l-31 -6l-12 14q-29 14 -41 29q-26 6 -37 39q-34 40 -34 65v6l-15 25l-4 4l-12 37l-19 39l4 47l-20 26
l-31 177q-6 36 -6 59l-4 10l-10 14l-19 -24l-73 -78l-27 -43l-14 -29l-23 -32l-16 -17l2 -10l-29 -63l-16 -21l-21 -4l-18 -18q0 -42 -39 -54l-4 -4q-18 -43 -41 -55l-19 -29q-44 -41 -59 -51q-5 -22 -22 -35q-2 -3 -15 -16q-6 -37 -57 -49l-23 -6q-46 3 -67 47l-31 51
l10 49l-4 27l4 4l2 26l-22 49l16 25l-8 27l14 28l4 47l-8 9l17 28l-7 15l-2 32l9 62q-4 20 -4 26q0 3 1 9t1 8l-11 16l6 66l-2 22l7 33l-9 55l37 62q63 -9 88 -27.5t25 -62.5v-19l14 -24l-6 -43l8 -82l-14 -39l6 -43v-35l-16 -22l12 -37l-12 -23l-2 -22l12 -23l-16 -43
l-7 -18v-19l11 -20l34 35q0 30 21 40q3 21 16 31l-6 6l27 25l6 8v19l33 24l8 21l18 12l80 90q-22 -27 -67 -76v-4l4 14l26 31l19 35v20l30 11l5 26l8 9l2 10v14l28 29q0 3 -1 9t-1 9q0 38 41 41q18 37 56 43l12 19l4 4q18 27 55 37l19 22h49l25 -29l22 -12l2 -6l14 -4l5 -43
l34 -21l-14 -45l23 -49v-57l16 -78l4 -74l18 -43l13 -53q11 -11 18 -35l37 -10v-41l21 -22v-7l8 -2l8 -12l8 10q2 0 5.5 -1t4.5 -1q23 0 47 41l25 6l6 11q6 14 25 24l14 -2l8 8l2 11l6 8q21 15 27 43l23 24l4 19l14 33l39 14l55 -19z" />
    <glyph glyph-name="o" unicode="o" horiz-adv-x="874" 
d="M811 479l-12 -37q0 -54 -6 -84l-13 -20v-23l-10 -14l-6 -29l-23 -22l-14 -51l-16 -6l-9 -23l-24 -14l-16 -35l-25 -12l-2 -25l-39 -14q-25 -38 -66 -47l-8 -3q-28 -43 -76 -43q-21 -12 -47 -12l-20 -14l-21 -6l-26 -21l-27 2l-29 -8l-34 14l-88 7l-31 47l-45 47l10 33
l-31 69l15 27l-11 49l11 31q-4 28 -4 41q0 40 20 57q2 17 27 68h10l-4 14l6 29v30q14 17 18 25l-6 29v8q15 30 15 59l43 60q1 0 6 4t8 8l-2 8h8l31 35l2 47q11 4 28 10t23 8q18 12 25 24t12 38h27q21 12 41 12q18 0 34 -8l23 -2l53 20l29 -26l22 -15h17l30 -16h17
q13 -21 35.5 -42t25.5 -26l4 -10l15 -8l43 -55l39 -97v-20zM676 430l-2 10q-14 14 -17 31l7 10l-19 39l4 39l-8 10q-26 20 -29 33q-18 8 -18 41l-12 2l-25 41l-18 14l-43 17l-17 4q-12 0 -16 8l-41 -45l-27 -57l-43 -23l-6 -22l-20 -11l-9 -53l-24 -12q-8 -28 -8 -53
l-33 -31l10 -6q0 -25 -18 -43q-5 -16 -17 -41v-17l-6 -8l2 -24l-22 -56l4 -10v-57l-8 -29l2 -29l18 -26l29 -10l10 -5l16 9l54 -4l8 20h8q11 0 14 -6l19 6l16 -6l27 18l4 6l18 5q15 24 68 45l4 10l41 29l22 32l33 17l2 10l11 22v27l24 21l8 14l11 12q-9 27 -9 35q0 16 13 39
z" />
    <glyph glyph-name="p" unicode="p" horiz-adv-x="958" 
d="M883 303l-25 -61l16 -41l-8 -13l-8 -32l-16 -29l-8 -4l-5 -39l-36 -4q-31 -27 -60 -43l-12 2l-31 -10l-18 -2l-39 -15l-45 21l-6 4l-35 -2l8 -4l-57 8l-52 -12l-20 18l-43 -4l-16 12q-5 0 -17 -2v-12q0 -19 -6 -37l6 -39l-16 -20q4 -46 4 -68l-6 -51l8 -78l-16 -20l8 -31
l-6 -21l12 -6v-30q4 -12 4 -19q0 -18 -23 -31l9 -28l-11 -17l-4 -82q-3 -77 -16.5 -110t-46.5 -33q-13 0 -72 16l6 62l-12 90l21 37l2 45l-9 61l17 27l-19 47l15 25l-13 41l17 36q-4 13 -15.5 23.5t-11.5 13.5q0 7 14 13q-2 6 -2 20q0 23 13 70l-13 20l7 27l-15 18l19 23
l-9 59l13 84l-15 27l23 39l-25 22l15 39l-15 10l2 35l13 43v8l2 9v22l2 8l-10 33l10 35l-10 26l8 31l-8 8l6 41l-6 23l4 20l-6 15l-74 -33v12l-15 -2l-22 -20h-19l-24 -33l-21 8l-10 -20q-52 31 -76 52.5t-24 41.5q0 26 18 41l-2 31q57 31 109 34l14 15l66 26l14 15l57 -4
l11 4l18 71l49 -10l33 -53l18 18l37 -26q25 0 51 -11l11 -18l14 6l16 -12q15 0 23 -2l-2 -13l45 15l22 -25l39 -12l27 -33l49 -31l2 -4l39 -12v-12q17 -13 25 -33l16 -10l12 -23h25v-41l14 -14l4 -14l21 -4q3 -47 26 -80v-15l21 -20l-4 -33l16 -37l6 -43zM729 272l-2 11l2 8
l-12 37l8 18l-8 16l-2 21l-17 33l-8 22l-31 54l-24 20l-14 35l-19 8l-33 43l-32 -4l-25 33l-20 -4l-15 26l-8 2h-29l-20 -10l-17 16l-20 -4l-8 15l-37 6l2 -25l-4 -39l8 -22l29 -27l-23 -49l2 -31l-10 -61q5 -38 25 -66l-9 -22l2 -4q0 -6 -16 -19l14 -18l-10 -25l-4 -26
l6 -29l-2 -27h43q8 4 23 4q17 0 32 -12q2 0 7.5 1t7.5 1q6 0 22 -4q12 6 23 6q18 0 31 -8h18l16 -4l41 12l33 -20q3 -1 7.5 -3.5t6.5 -2.5l39 39l4 28l11 4l-6 17l14 16z" />
    <glyph glyph-name="q" unicode="q" horiz-adv-x="1234" 
d="M1262 -575l-25 -17l-29 -33l-39 15l-28 -21l-29 19h-59l-2 4l-62 43l-6 10l-20 4l-15 39q-21 30 -24 45l-21 23l-29 98l5 4l-13 23l11 18l-11 35l-6 61l-10 55l4 19l-4 16l8 39q0 1 -3.5 17.5t-4.5 27.5l8 33l-6 16l6 68v82l-6 16l6 27l8 125l-2 37l-18 -11l-6 -12
l-15 -12l-6 -12q-9 -18 -26 -35l-43 -37l-43 -59l-35 -17l-4 -24l-31 -23l-35 -29l-24 -8l-25 -24h-21l-14 -9l-29 -8l-16 -22l-27 -6l-28 -5l-10 -6l-19 -22l-31 2l-6 -4l-26 6l-23 -4l-33 -17l-26 15q-17 4 -25 12h-33l-2 8l-34 29l-29 12l-15 39l-12 23l-8 28l-10 19
l2 33l-8 32l10 41q0 57 14 78q-2 2 -2 4q0 3 2 11t2 12q0 12 -4 18h8q13 0 13 8l-2 6l6 9v14l8 10l-4 13l20 22l19 41h10l16 53l11 6l2 23l20 4q1 1 17 12q14 32 47 41l28 33l-6 -4l17 10v19l36 28l17 4l16 9l6 18h19l10 14q42 11 47 11l10 30h58q16 4 22 4q3 0 8 -1t7 -1
l12 13q10 4 28 4q19 0 27 -2h12l7 6q29 0 55 -15l26 -6q16 4 23 4q19 0 33 -14l24 -31q0 -2 1 -5.5t1 -4.5q0 -19 -16 -41v-8q0 -23 -18 -41l-48 -14l-8 6l-20 6l-21 -14l-26 14l-23 -6l-22 6l-35 -29l-19 15q-18 -11 -20 -11q-6 0 -6 9h-21q-6 -9 -6 -19l-18 -10l-17 -21
l-16 -2l-16 -6l-21 -20l-20 -8l-19 -27l-26 -25l-76 -98l-21 -63h-14l-31 -72v-37l-12 -18l4 -70l4 -16q22 0 45 2l35 10l12 4l17 -2l14 14l23 2l10 -12h10q6 0 6 -2l17 14l24 9l4 20l45 10l11 8l20 11l33 8h8q22 0 22 10q0 1 -1 4.5t-1 5.5q0 4 2 6q13 3 43 43l11 7l10 22
l16 10l23 4l20 17l19 27h14l21 28l6 8v4l20 15q6 26 31 35q2 3 5.5 7t5.5 6.5t3 4.5v14l6 4l-4 31l27 19l12 12l-2 6l-6 8l10 33l-8 23q1 3 2 6.5t1.5 5.5t1.5 4t2 3t3 1q-2 6 -2 16q0 16 6 60q2 0 8 1t11 1v31l18 16l39 18l31 -16q27 -3 27 -10v-2h4q6 0 30 -27l13 -35
l-4 -32v-15q0 -41 -17 -80l-4 -10q-6 -24 -6 -31l-8 -69l6 -72l-12 -12q2 -33 2 -84l-11 -31l5 -55l-19 -82l4 -29q10 -29 10 -76l-8 -10l6 -35l-12 -37l6 -28l-4 -35l14 -29l-4 -24l4 -29l-4 -8l9 -8l-5 -41q17 -55 19 -82l6 -25l12 -4v-39l19 -8v-29q9 -10 33 -49l38 -16
h25q20 4 31 4q34 0 78 -29v-73z" />
    <glyph glyph-name="r" unicode="r" horiz-adv-x="800" 
d="M868 762l-16 -68l-76 -10l-41 -27l-26 13l-29 -17l-31 -12l-20 -14v-9l-43 -20l-29 -37h-14q-30 -35 -47 -43l-29 -47l-10 -4q-9 -20 -15 -49l-28 -10l-13 -25l-16 -21l-4 -30l-16 -6v-31l-7 -6q3 -5 15 -23l-31 -12l-4 -27l-21 -34l13 -27l-27 -37q4 -20 4 -29
q0 -3 -1 -9t-1 -9l4 -19l35 -36l-27 -47l-24 -19l-57 -29l-76 31v47l-8 19l6 30q-4 32 -4 50q0 5 1 15t1 15l-2 21q-15 15 -15 33q0 15 15 36q-2 21 -4 62l6 6l-6 27l4 24l-4 14l6 48l-13 20l9 23l-9 26q2 12 2 33q0 30 -8 41l8 12l-8 37l-18 27l10 33l-8 12l-8 49v16
q-11 14 -11 31q0 15 25 36t66 34l51 -11l10 -38l20 -27l-6 -55q4 -22 7.5 -43.5t5 -33t2.5 -14.5l6 -32q0 -1 0.5 -4t1.5 -8.5t2 -10.5q0 -13 -10 -26l6 -41l-4 -45l-9 -21l7 -8l4 -21q11 14 14 31l8 31q6 11 19 18l8 31l29 16l4 25l22 25l17 30q24 28 51 37l4 6l18 29l21 4
l6 6l8 12l23 13l12 14l12 -2l17 8l8 13l24 12l35 22l49 17q28 4 31 4q0 -1 -1 -2t-1 -2h2q9 0 25 8q11 8 28 8q9 0 29 -4q28 -2 42 -13t17 -36z" />
    <glyph glyph-name="s" unicode="s" horiz-adv-x="929" 
d="M856 168l-25 -29l-22 -53l-16 -12l-15 -29l-41 -4l-26 -27h-41l-25 -20l-22 6l-27 -6v-17l-76 7l-33 -2l-24 -13l-21 13q20 2 33 2q-32 -3 -98 -9l-6 2l-17 3l-26 -15q-15 9 -45 19q-46 4 -60 4h-16q-14 2 -31 2t-33 -8l-28 18l-17 4q-7 0 -22 6q-76 9 -76 127v19l39 28
l49 19l37 -19h29v-6q21 -8 32 -33l17 -2v-26l26 -6l7 -5l262 17l63 10h6l4 10l29 4l4 7q42 6 80 24l2 10q-1 1 -8 15l-10 -2l-27 20h-18l-11 15l6 8l-22 -4l-16 18q-6 -2 -21 -2q-26 0 -53 10h-19l-14 6l-29 -10l-16 19h-6l-29 22l-63 25l-21 16l-78 14l-8 15l-57 37l-31 67
l-24 35l-9 106l9 13q3 46 32 82q31 15 31 47l31 6q9 17 33 31l30 24l129 49l23 7l41 4l67 18l129 -8l5 -10q17 -6 40 -33v-10l33 -21l-14 -49l-4 -18q-9 -52 -58 -52q-38 0 -55 35v6l-24 2l-29 -8l-27 19l-14 -11q-27 0 -49 -16q-32 0 -60 -25h-26l-19 -14l-28 -6l-4 -4
l-13 -6l-18 -19l-6 -2l-19 -28l-22 -13q-7 -25 -10 -45q1 -21 2.5 -28t8.5 -14.5t23 -14.5v-10l27 -15q34 -14 49 -26h41l27 -23l47 -6l18 -12l80 -23l10 -22l9 14q23 0 71 -25l37 -6l4 -14h33l57 -33q10 -24 45 -49l23 -14l-6 -25q14 -21 14 -43v-6z" />
    <glyph glyph-name="t" unicode="t" horiz-adv-x="720" 
d="M672 182v-14q0 -38 -10.5 -58t-38.5 -30q-18 -43 -78 -55l-25 -23h-26l-48 -12q-16 -4 -47 -4q-15 0 -34 8h-27l-72 39l-18 6l-43 57l-25 27l-45 102l-16 97l4 24l-17 23l11 28l-11 45l15 15l4 26l-6 25l4 37l-8 33l10 10v33l-14 6l-39 -9l-37 27h-6q-62 0 -62 66v6
l-24 39l39 37l51 -9l26 4l39 -10h43v41l-26 58l26 14l-10 31l2 63l-16 27q-15 21 -15 41q0 21 11 37l6 28l16 17q55 10 74 10q35 0 52 -14t20 -46l-7 -10q13 -19 13 -35q0 -6 -2 -10l-4 -12l-2 -14l8 -27l-2 -10l4 -29l-19 -25l11 -41l-9 -49l17 -18l-17 -37l64 8l113 -10
l90 14l30 -2l11 2h79q64 0 64 -45q0 -6 -1.5 -10.5l-2.5 -7.5t-5.5 -5.5t-6.5 -3.5t-9.5 -4t-11.5 -4q-8 -11 -34 -20t-38 -18l-43 14q-36 -25 -84 -25l-24 6l-19 -16h-55l-35 -23q-24 9 -43 9q-9 -6 -28 -9q-9 0 -23 7l-6 -78l2 -58l-6 -71l4 -78l6 -37v-29l29 -61
q-6 -6 -6 -14q0 -14 45 -23l4 -24l14 -7l25 -16l16 -12q20 4 29 4q19 0 37 -6q9 5 30.5 25t38.5 20q2 0 6.5 -1t6.5 -1q18 39 65 51q42 0 72 -27z" />
    <glyph glyph-name="u" unicode="u" horiz-adv-x="1265" 
d="M1130 164q19 8 41 8q28 0 45 -15t17 -38q0 -26 -37 -60l-16 -6l-15 -18l-37 -10q-11 -15 -20 -15q-2 0 -5 1t-5 1q-45 -22 -109 -22h-16l-51 10l-35 16l-78 66l-16 55l-33 27q6 8 6 26q0 12 -16 41l6 50v8q0 20 -15 63l13 62l-27 -54l-31 -4l-4 -43q-16 -8 -39 -8
l-22 -49l-27 -31q-14 -17 -29 -20l-6 -4l-73 -76h-9l-38 -45l-37 -19l-21 -26l-47 -15l-68 -26l-40 20q-43 0 -58 37l-18 10q0 6 1 16t1 15l-33 29l8 12l-24 57l8 9l-4 4q0 4 -1 11t-1 11q0 22 6 43l2 54l-8 43q10 17 10 28q0 15 -12 27l22 16v25l-8 67l23 131q0 31 -19 97
q3 35 23.5 51.5t62.5 19.5l16 -6l29 -4l37 -41l-12 -53l-4 -88l6 -68l-13 -24l7 -17l-11 -32v-21l-4 -6q2 -6 2 -18l-1 -5q-1 -5 -1 -10q0 -20 -6 -41l10 -14l-8 -31l4 -24v-29q11 -14 11 -31q0 -15 -9 -33v-8q11 -37 11 -45l18 -18q21 14 29 20q7 21 28 27v20q12 0 39 6
l4 19l35 14l6 6q19 17 47 27v8l39 29q14 39 52 51q24 24 30 27l27 35v6l8 4l19 8l10 29l43 18l8 2q2 3 4.5 5.5t5.5 5t4 3.5v19l13 4q6 33 32 49l31 70l10 37l4 8h9l14 10l-12 4q23 38 34 78l60 2l47 -39l20 -33l-22 -88l-31 -41l-24 -80l-21 -12v-31l-12 -22l6 -37l-16 -14
l8 -66l4 -92h10v-53l29 -35l26 -14l2 -11q16 -2 35 -10l51 -4l31 8z" />
    <glyph glyph-name="v" unicode="v" horiz-adv-x="1011" 
d="M1051 950l-21 -35l6 -38l-30 -19l-9 -43l-18 -14l-6 -45h-6q-5 -28 -35 -45l-19 -66l-18 -29q2 -12 2 -26l-33 -29l-47 -108l-39 -64v-20q0 -30 -33 -50l-4 -36l-14 -9l-25 -32l-6 -23l-14 -10q0 -7 4 -27l-22 -18l-37 -23l-13 -20l-41 -43q-34 -58 -64.5 -84.5
t-68.5 -26.5q-54 0 -100 58l6 -15l-72 105l-4 24l-12 8l-2 50l-23 22v51l-53 119l4 21l-16 28l-4 23l-10 14l-15 37l-37 29l-16 67l-29 25l-16 26q-29 9 -40 28.5t-11 55.5q0 33 20 53.5t68 39.5q113 -75 133 -152l6 -47q7 4 29 8v-18l33 -25l-13 -33l4 -24l19 -49l10 -11
l2 -18l16 -8v-35l23 -80l4 -31l33 -65l26 -80l21 -21h4q7 0 14 17l17 6l-6 16q7 13 14 13t16 -6q14 40 21 40q2 0 2 -6q9 24 39 41l26 39l17 41l20 17l13 26l8 6l-4 27l22 10l4 10q0 8 11 23l14 37l10 -12l8 4v6q0 25 23 45v4l14 27l10 45l15 4l26 63l19 25q6 31 28 47
l19 57l14 19v43h10q24 17 40.5 50t25.5 40l10 6l58 35z" />
    <glyph glyph-name="w" unicode="w" horiz-adv-x="1388" 
d="M1389 827l-11 -39l4 -20l-24 -80l-4 -29l-29 -30l-10 -39l-23 -33l-32 -72l-39 -65l-60 -88l-10 -27l-31 -55l-35 -72l-61 -110l-12 -50l-33 -47l-61 21l-35 20l-33 97l-41 69v21l-25 57l-10 12l-86 181l-26 43l-23 -35l-33 -27l-47 -65l-33 -35l-18 -54l-45 -55l-4 -18
l-27 -56l-4 -8v-30l-20 -29l-2 -29l-21 -6l-45 -47l8 4q-20 -12 -55 -16l-14 16l-31 12v23l-12 16l-13 56l-16 36v27l-2 8l-31 88l-8 56l-21 22l5 27l-21 49v18l-16 45l-29 39l4 45l-2 15l-23 53l-4 33l-12 20q-11 17 -18 41l-35 88l29 37q11 23 51 29l43 6l14 -21l27 -12
l18 -37l17 -14l-7 -33l9 -20l-7 -19l21 -33l-4 -30l26 -92l-4 -23l13 -55l28 -66l13 -78l20 -24v-49l14 -43l2 -17l29 19l47 75l15 35l16 29q0 20 8 31h12l7 37l22 4q3 16 19 24v4q0 13 12 25l-4 14l10 4l-2 13q16 31 41 49v41l29 16l8 6l4 4q-10 20 -10 45q0 37 32 72
q19 8 45 8q17 0 25 -2l39 -35l20 -30l13 -49l18 -33l-4 -23l14 -45v-18l35 -62v-6l8 -6l41 -98l2 -27l21 -22l47 -107l10 19l37 75l23 19l16 43l20 10v31q9 7 18.5 12t14.5 7.5t8.5 5t3.5 5.5l-2 43l25 25l10 6l31 51v6q5 23 27 52l-4 22l36 45l19 45q-23 65 -23 105
q0 62 66 71l55 -16l8 12l15 -18l20 -14l-6 -23z" />
    <glyph glyph-name="x" unicode="x" horiz-adv-x="985" 
d="M983 29q-49 -58 -88 -58h-4l-33 -16l-37 18l-30 9l-50 36l-49 9l-61 53l-62 80l-63 63l-2 13q-40 50 -53 73l-7 15l-20 18q-4 19 -10 27l-11 -11h-16l-22 -34l-7 -17l-30 -20l-11 -43l-34 -27q-7 -30 -23 -49l-24 -10l-3 -19l-26 -37l-43 -34v-7l-66 -67l-51 -72l-22 -35
l-21 -14l-78 -68l-45 45l13 48l20 20l4 23l23 18l14 39q2 -2 8 -2q8 0 12 -4l25 53l16 8l23 43l10 47l29 11q5 18 24 34v5q0 27 31 49q13 0 18 9t7 32l14 8l6 16l10 4q14 25 35 35l19 43l12 8v29l22 8l23 17l8 28q4 10 21 23l-15 18l-4 15l-8 4l-39 73l-35 60l-24 51l-43 47
l12 27l-12 55l76 16l65 -12l8 -37l41 -43l-4 -18l19 -41l30 -41l4 -41l17 -39l16 16v17q15 5 17 6l8 2q14 14 20 29v8l23 10l-2 6q14 14 34 29v20l27 2l25 17l6 24q3 1 31 13v6l8 -2l6 -17q24 52 51 64l16 18l35 6l68 19l29 -47l18 -17q0 -66 -55 -80l-6 -2l-129 -106
l-19 -31l-31 -12l-24 -27l-29 -32l-41 -17l-8 -22h-12l26 -39l8 -33l9 -12l20 -11q11 -21 21 -49l2 -10l49 -31l12 -51l31 -24l20 -31l33 -21l6 -14l17 -10l8 -10l22 -7l27 -41l22 4l35 -18l113 -12z" />
    <glyph glyph-name="y" unicode="y" horiz-adv-x="1353" 
d="M1161 387q-4 -11 -7.5 -23.5t-5.5 -18.5t-5 -9l2 -12l14 -74l-14 -78l6 -37l-12 -26l8 -91l-8 -14v-59l-2 -47l6 -21l-4 -129l16 -37l-12 -16l6 -35l-10 -10l10 -35l-19 -21v-14l-8 -18q-5 -36 -45 -101l-14 -51q-18 -9 -21 -12l-6 -6l-18 -25l-21 -31l-34 -18
q-23 -45 -58 -51q-10 -10 -14 -12l-6 -7l-29 -12l-16 -16h-21l-10 -17l-37 9l-39 -25l-37 8l-67 -10l-15 2l-10 -4l-67 12h-31l-12 12l-82 27l-70 10l-10 19l-37 4l-12 35l-25 6l-16 30l-39 15l-33 47l-59 37l4 39q-3 2 -5 7t-3.5 12.5t-3 15.5t-3.5 21t-4 24q0 28 15 79v19
l20 10l12 35l9 -4l20 33l37 28l29 8l55 46l53 -5q21 21 53 21q47 -21 47 -55q0 -20 -18 -41l-29 -15l-30 -22l-31 -8l-19 -35h-30l-13 -21l-26 -22l2 -31l-16 -29l8 -20l14 -33l45 -29l10 -30l56 -43l30 -2l37 -29h37l23 -23l28 3l17 -13l98 4l63 21l39 -2l43 24q18 7 29 7
q1 0 6 3.5t8 4.5l11 16l20 -6l8 8v17q2 11 27 20q8 20 33 35q7 9 10 45l29 16l6 15q16 32 16 34l2 7l6 79l9 7v32l-9 31l13 25q-4 40 -4 55q0 19 2 42t2 28v104l-15 27l15 43l-4 41v104l-7 27l9 14v27q0 14 2 18l-17 47v72l-22 -37l-25 -18l-24 -25l-17 -6l-6 -25l-18 -10
l-2 -6l-29 -25l-39 -47l-55 -57l-21 -6l-6 -11l-61 -45h-19l-20 -20l-9 -21l-45 -14l-8 -14l-30 -4l-43 -29l-35 -8l-17 -12l-22 -5l-6 -4q-16 -17 -34.5 -22.5t-49.5 -5.5q-63 0 -97 39l-45 67l-2 39l-24 74v61l-8 25l12 20l-10 45l14 13l2 20l12 25l-4 43l8 16v14
q0 40 15 101l-6 55l6 51l-19 74l4 14l-8 13l25 65q8 33 8 66q24 12 49 12q19 0 37 -6l18 -41l35 -25q-5 -30 -10 -49l18 -31l-8 -20l27 -23l-25 -45l13 -53l-15 -22l2 -5l-12 -88v-79l-12 -13l-9 -71l-18 -23q0 -10 1 -26t1 -21l14 -37l-14 -27l4 -32l-4 -8q4 -24 4 -25
l19 -16l14 4l2 -13l14 21h60q13 12 30 20q44 32 84 37l2 27q37 23 88.5 49.5t57.5 30.5l8 16l-10 -6q11 6 29 18l8 27l14 22l29 11l16 24l10 -2l13 8l24 27l10 2l2 6l37 39l23 37q23 7 39 29l28 59l-4 64l21 8v6l-12 37l2 8q-15 22 -15 35q0 19 25 55v-6l8 20l2 9v-7
q17 40 82 43l66 -63l6 -53l20 -35l-12 -33l2 -14v-10l-4 -8l-3.5 -7t-2.5 -4l6 -12v-33l-8 -33l8 -45v-32l6 -15l-4 -39z" />
    <glyph glyph-name="z" unicode="z" horiz-adv-x="1138" 
d="M1055 106l-41 -51l-13 -32l-34 -11l-11 -18l-53 -12h-41l-80 10l-30 -12l-39 12l-56 -10l-14 16l-16 -4q-20 -4 -47 -4l-39 6l-68 4l-51 -4q-41 14 -60 14t-65 -16l-45 16q-8 -2 -23 -2q-18 0 -26 8l-33 -34l-31 -9q-36 -23 -57 -30l-47 22l-21 35l2 43l15 27l26 20
l13 21l30 26l23 6l12 11q4 4 25 22l2 4l4 6q0 1 4 6.5t8 8.5l12 6l58 45l4 4l6 10q32 32 53 37l11 14l4 13l24 24l15 23l26 4q1 3 6.5 12t8.5 17q13 3 16 16q22 25 43 31l2 10l31 18l32 43l15 9q-9 0 -17 -2l68 51l12 24l25 17l33 51l30 20l6 13h-36l-27 -9l-37 7l-33 -11
l-20 11l-60 -21q-27 8 -59 8q-26 0 -53 -6l-23 10l-43 -6l-16 6l-37 -10l-70 15l-53 -5l-31 11l-57 10l-41 -10l-31 26l-18 68l33 45l22 -4l15 6l39 4l30 -10h31l23 -15h53l26 -8l37 8l29 -8q10 4 27 4q16 0 24 -4l-2 4l35 -4h92l121 6l12 -4l21 9h43l73 16l37 6l31 -4
l43 14l35 -2q28 4 41 4q38 0 55.5 -21.5t20.5 -72.5l-37 -20l-21 -21l-31 -10l-65 -59l-14 -5l-43 -53q-35 -9 -60 -37l-8 -26l-33 -29l-39 -55l-24 -10l-86 -101l-31 -12l-25 -33l-12 -4q-21 -23 -47 -45l-18 -31l-45 -35l-37 -43l-27 -22l-2 -6l70 8l20 8l51 4l21 -10
l104 8l99 -16q16 4 24 4q13 0 25 -6l28 16l43 -16l31 8l41 -6h16q9 7 31 14q13 16 27 23l8 16l4 4v14l31 48l57 -7q37 -48 37 -86q0 -27 -12 -39z" />
    <glyph glyph-name="braceleft" unicode="{" horiz-adv-x="843" 
d="M414 1128l-11 39l33 21l-6 43l41 8q12 14 29 27l14 37l59 14l101 14l18 -4l25 21l57 -17l29 -49l-17 -78l-57 -26l-41 12l-29 -6l-14 6l-47 -6l-6 -2l-4 -23l-27 -18l-10 -19l2 -32l-16 -35l4 -58l-19 -57l8 -76l-14 -6l-2 -24l10 -66l-10 -18l8 -31l-4 -4l10 -10
l-28 -62l-6 -8l14 -27l-37 -24l10 -15l17 -41v-45l-6 -28l10 -37l-15 -31l-8 -31l19 -45l-9 -28l-6 -52l-4 -6l10 -20l3 -39l4 -49l-4 -17l16 -45l-4 -28l2 -17h31l2 -14h6l37 -29l24 -6l21 -4l35 20l6 -8l30 -4l39 17l51 -70l-14 -51l-47 -56l-41 11l-6 -4l-68 6l-20 8
l-23 -8l-65 24l-10 17h-27l-33 28l-59 45l-21 78l6 25q-10 27 -10 47q0 19 6 31l-6 26l-20 29l12 49l-10 53l8 43l2 25l-10 33l14 30l2 21l-14 33l14 30l-10 -2l-8 27l-21 -6l-4 4l-51 -2l-68 22l-28 80l71 35l72 10l6 -8l12 4l-8 23l47 18l7 33l-7 35l21 41l-4 20l8 27
l-10 59l14 15l-4 38l-2 3l18 51l-8 47l17 28z" />
    <glyph glyph-name="bar" unicode="|" 
d="M438 1565h150v-2048h-150v2048z" />
    <glyph glyph-name="braceright" unicode="}" horiz-adv-x="843" 
d="M545 645l41 -2l80 -16l28 -80l-69 -35l-74 -12l-6 8l-13 -2l9 -27l-43 -16l-11 -35l11 -35l-21 -39l4 -20l-8 -29l12 -59l-14 -15l2 -36l-14 -56l10 -45l-16 -33l-4 -38l4 -41l-25 -17l-10 -39l-25 -14q-4 -5 -28 -29l-15 -35l-57 -16l-43 -6l-57 -10l-19 4l-27 -21
l-57 15l-29 49l17 78l57 28l41 -12l27 8l14 -6l47 6l6 2l4 23l27 20l8 17l-2 32l17 35l-7 60l17 55l-8 76l14 6v24l-8 66l8 20l-8 29l4 6l-10 10l26 60l6 10l-14 27l39 24l-12 13l-17 41l-2 45l6 28l-14 43l16 27l9 31l-19 45l6 26l4 52l5 6l-9 22l-4 39l-4 49l2 17l-16 43
l6 30l-6 17l-29 -2l-4 16l-43 27l-22 6l-23 4l-33 -21l-8 7l-31 6l-39 -19l-51 68l12 51l50 47h41l4 4l67 -4l21 -6l22 6l66 -24l10 -17h27l35 -24l57 -45l24 -78l-6 -25q11 -25 11 -51q0 -19 -5 -29l7 -24l20 -29l-12 -49l10 -55l-6 -43v-23l10 -31l-12 -34l-2 -17l12 -33
l-12 -34l10 -15l10 -8l17 8z" />
    <glyph glyph-name="asciitilde" unicode="~" horiz-adv-x="1705" 
d="M1530 770v-156q-203 -141 -389 -141q-22 0 -43 2t-44.5 6.5t-39 8t-43 12.5t-38 12.5t-42.5 14.5t-39 14q-66 23 -99 33t-87.5 21t-102.5 11q-88 0 -180 -38.5t-205 -118.5v155q212 144 387 144q118 0 291 -62q10 -4 56.5 -20.5t63 -21.5t51.5 -15t61.5 -13.5t54.5 -3.5
q92 0 184 38.5t203 117.5z" />
    <glyph glyph-name="uni00A0" unicode="&#xa0;" horiz-adv-x="522" 
 />
    <glyph glyph-name="exclamdown" unicode="&#xa1;" horiz-adv-x="638" 
d="M422 1028l-16 -49l-31 -29l-10 -2l-21 -20q-20 0 -43 10q-34 0 -49 10q11 7 22 10l-45 7l-14 26l-29 78l17 -12q0 2 4 22l51 41l37 -10l31 14l28 -16h41zM430 82l-20 -86l-45 -2q-12 -4 -37 -4q-9 0 -74 20l-10 29q-2 12 -2 35q0 12 2 18l4 10l4 9l-14 49l4 8l8 35l6 -2
l8 24h-6q-2 18 -6 35l6 21q-2 12 -2 32q0 13 2 19l4 20l2 54l6 110l-14 21l14 51l-12 43l10 20q-6 15 -6 29v10l-10 37l12 6l-2 10q0 15 6 27l-2 14q9 56 62 56q27 0 43 -20.5t16 -55.5v-43l6 -45l13 -41l-11 -23l8 -20l-8 -53l21 -11l-13 -45l5 -20v-35l4 -12
q-3 -12 -5.5 -22.5t-4.5 -18.5t-3 -10l4 -7v-12l13 -22l-17 -29l9 -23l-7 -20q0 -27 -1 -54t-1 -28q0 -23 -2 -31l13 -14v-25z" />
    <glyph glyph-name="cent" unicode="&#xa2;" horiz-adv-x="1267" 
d="M1194 344l-27 -12q-11 -16 -34 -31q-11 -21 -37 -27l-68 -47l-49 -22l-33 -27l-39 -16l-43 -35l-55 -8l-51 -33l-19 2l-32 -31l-19 2v-8l-2 -33l2 -51l-2 -10v-115l2 -55l6 -27l-2 -10q2 -10 2 -29q0 -28 -8 -47q-12 -8 -24 -20q-37 0 -58 27v110l-4 19l4 38l-8 25l8 53
l6 45l-8 52l2 18l-29 -14l-38 8l-48 -10l-10 -39l4 -60l-8 -67l-12 -45l14 -29l2 -25l-35 -12q-34 6 -34 113v63l-13 51l9 37l-19 8h-35l-14 -4l-70 17q-37 14 -47 43l-47 18l-20 49l-33 47l-23 52l6 24l-20 47l12 121v21l15 63v8l18 43v54h14q10 20 29 43l23 51l10 8
q11 3 22 14l-12 15l35 34l-4 7q5 42 47 45q0 -4 2 -4q1 0 3 3t7 12t12 19l23 7l4 18h55l29 16l2 23l-6 29v22q0 5 -3 32.5t-3 49.5q0 15 4 55l-4 -2q-10 45 -10 58v4q0 20 26 43l49 16h54l12 -33l8 -67l-22 -19l10 -12l-6 -16v-23l-11 -10l2 -53q-6 -35 -6 -50
q0 -21 14.5 -28.5t47.5 -7.5h41q-2 4 -2 12l2 63l8 23l-8 37l16 43l-8 43l10 6l-10 20l8 23l39 53l20 -6q86 0 86 -88l-6 -31v-30l-12 -11v-12l-10 -25l6 -22l-25 -57l4 -33l11 -27l-15 -20l11 -13l32 -20l25 -27l22 -14l17 -14l41 -13l2 -24l24 -17l3 -59l-11 -45l-16 -27
l-37 -10q-9 -6 -18 -6q-16 0 -43 27q-21 15 -70 79q1 -10 1.5 -23.5t1 -22t1.5 -13.5l-12 -113l-2 -86l-4 -53q2 -10 2 -29q0 -26 -9 -47l11 -18l-21 -39l-2 -39l4 -8l6 2l19 12l29 8q17 10 34 13q20 8 53 24t46 19q8 10 34 22q28 22 54 25l6 4q15 18 45 18h10l6 17l49 20
q14 11 27 31q18 12 35 12q25 0 40 -15t15 -40q0 -21 -8 -37zM623 618l-11 60l9 43l-9 22q0 9 1 21t1 14q0 4 -2 4h-2l-30 9l-68 -15l-10 -37l22 -43l-18 -32l6 -15l-10 -65l10 -27l-14 -29l8 -36l-14 -29l20 -47l-6 -19l4 -18l-18 -37l20 -51l-10 -15v-30l-19 -31l4 -47
q12 -4 33 -4q17 0 25 2q30 0 45 18l20 39l2 62l-8 24l8 64l-8 24l12 4l-12 25l6 74l11 14l-11 33zM426 698l-6 45l4 29l-16 -4l-11 -35l-4 -14l-24 -19q-46 -54 -86 -145v-8q0 -43 -33 -72q0 -27 -21 -74l15 -28l-15 -23l7 -14v-17l14 -28v-25l8 -16l6 -25l15 -12l6 -10
l26 -19l54 -22l32 -4l19 10l-13 41l11 27v6l-6 22l12 49l-6 88l8 2l-6 39l4 56l-8 43l8 22l-4 45l4 47l-6 19z" />
    <glyph glyph-name="sterling" unicode="&#xa3;" horiz-adv-x="1378" 
d="M1315 193l-21 -50v-22l-39 -33l-24 -43l-45 -18l-19 -23q-24 0 -32 -2l-33 -27l-19 9q-12 -2 -28 -2l-8 -9h-23q-21 -12 -55 -18l-86 18q-5 0 -25 -8l-72 6l-34 -16l-19 18l-12 -2l-51 17l-41 2l-29 -25l-27 25l-77 18l-23 -8l-41 14l-24 -2l-7 2l-10 -4l-33 2l-12 -6
l-39 14l-31 -8q-28 -63 -69 -63h-4q-24 -4 -41 -4q-5 0 -15.5 1t-15.5 1l-49 10l-21 35l2 37l-4 8q-4 12 -4 18q0 35 72 72q17 0 27 16q8 15 24 35l8 35l27 43h-4l35 102l24 39v54l23 6q0 16 2 24l-8 -2l-37 10l-43 -10l-33 10l-49 -6l-29 -16l-41 22l-33 21l-14 37
q0 18 6 39q32 16 49 16l41 16l41 9l43 -9l39 5l64 -7l24 5l-4 6l39 16l2 8l-4 15l16 22l-6 12l11 25v33l8 4l31 29v8q0 39 28 71l6 19l11 16l6 35q28 8 57 55l4 33l45 21l10 4v22q13 -5 19 -10q3 40 63 43l62 12h14q37 18 78 27q9 0 41 -4l14 8l56 -16h8q25 0 45 -17l16 -4
l-47 23l92 -43l15 -21l22 -12h16l29 -43l25 -31l4 -29q28 -28 31 -47l-13 -16l13 -27l-25 -28l-53 -6l-76 47l-21 59l-12 -2l-33 51h-14l-22 10l-27 -16l-27 29l-22 -6l-31 12l-53 -14l-8 2l-17 -7q-13 -11 -35 -22l-22 -25l-21 -6l-20 -31l-23 -8l-2 -24l-24 -21
q-5 -31 -31 -57v-23l-29 -34q0 -17 -4 -33l25 -29l-60 -43v-25l23 9l25 -4q4 0 11 1t11 1q15 0 39 -7q23 9 51 9h17l8 -6l94 12l53 2q33 0 53 -2q8 2 23 2q13 0 25 -6h18l39 4l25 -8l16 6l27 -13l-3 7q27 6 56 6q5 0 45 -4q16 8 37 8q10 -2 57 -2l53 -43l-55 -55l-43 -7
l-25 7h-18q-17 -7 -37 -7l-18 -6l-19 6q-10 -2 -30 -2q-17 0 -25 2l-82 -14l-27 6q-71 -6 -120 -20q-5 5 -12 10l-7 4l-14 -6l-60 -4q-19 8 -38 8q-7 0 -93 -14l-28 6l-54 -19h-8q-30 0 -39 25v-57l-22 -21l4 -35l-39 -57l-8 -29l-49 -143l14 -14h6q3 0 9.5 1t9.5 1
q8 0 28 -4l15 12l32 -17h6l5 5q45 0 86 -27l45 6l43 -12q37 12 57 12q12 0 20 -14l13 4l22 -8l72 10l2 -12l41 -13q27 6 53 6q31 0 64 -10q12 12 32 15q42 10 62 10q12 0 16 -2q23 23 56 30l36 37l23 9l39 51h45z" />
    <glyph glyph-name="currency" unicode="&#xa4;" horiz-adv-x="1241" 
d="M162 1423l205 -204q115 86 254 86q141 0 256 -86l204 204l82 -80l-205 -206q82 -110 82 -252q0 -143 -82 -252l205 -205l-82 -82l-204 205q-117 -86 -254 -86q-141 0 -256 86l-205 -205l-82 82l207 205q-84 106 -84 252q0 139 84 252l-207 206zM623 1190q-126 0 -215 -89
t-89 -214q0 -126 89 -215.5t215 -89.5t214.5 89.5t88.5 215.5q0 125 -88.5 214t-214.5 89z" />
    <glyph glyph-name="yen" unicode="&#xa5;" horiz-adv-x="1144" 
d="M1169 1010l-22 -82l-10 -4l-9 -29l-55 -14q-14 -21 -47 -43l2 -11l-33 -24l-22 -29l-39 -16l-10 -17l-23 -30l-18 -11l-19 -45l-39 -4l-14 -18l-37 -21l-8 -10q-71 -41 -88 -92l-33 -8l-8 -6l-10 -11v-6l32 6l13 -6l37 6l26 -12l13 16l24 -6l25 -4l34 19l33 -9l25 13
l31 -31l14 -43l-31 -39h-45l-49 -20l-37 14l-61 -23q-66 3 -82 31q-3 -19 -8 -26l-15 -25l2 -37l4 2q1 -2 5.5 -8t5.5 -8l22 4l33 -10h47l31 18l24 -12q10 2 23 2q12 0 16 -2l47 10l15 -14q5 0 21 2.5t28 3.5l43 -35v-10q0 -27 -18.5 -41t-65.5 -23l-70 8l-45 -16l-92 8
l-16 -12h-45l-7 -43l15 -31l-13 -26l2 -11l15 -32l-15 -35l-4 -19l7 -24l-9 -47l-14 -47l-4 -31l12 -51q-18 -48 -20 -80l8 -43l-8 -19l2 -14q4 -74 4 -96v-27l-12 -8l4 -35l-6 -39v-20q0 -22 -16.5 -36.5t-45.5 -14.5q-24 0 -39.5 20.5t-15.5 54.5l10 19l-8 28l4 43l-23 33
l5 43l10 10l-2 13l6 16l-8 10l8 37l-12 43l16 41l-12 47l18 76q-6 9 -6 25v6l2 10l-12 16l6 58l-14 43l12 12v39l-12 41l12 10l2 21l-4 28q-4 -8 -39 -22l-21 6l-37 -18l-26 4l-29 -21l-51 17l-102 -17l-27 23l-57 32l16 56l31 12l39 23l59 -9l43 9q12 -1 24.5 -2t19.5 -2
t9 -1q19 0 29 2h18l19 11l24 -6l23 10l22 -10l11 41l-8 47l-60 -11l-8 4l-8 -10l-47 8l-74 -28h-105q-12 12 -16 24q-43 17 -43 54q0 55 78 55q25 0 39 -2q16 4 28 16q20 -14 46 -14h8l6 2q8 2 24 2h15q16 4 30 4q13 0 19 -2q4 2 14 2q13 0 19 -2l12 2l-2 4l-8 8l-10 23
l-25 14l-6 15l-35 20v8l-4 2l-10 37l-7 12l-22 19l-8 24l-45 37l4 15l-21 18l-20 23q-14 11 -17 26l-51 6v23l-14 8v10h-16l-23 78l-33 21q0 41 12 60t41 20l15 -3l24 19l33 -21q47 -6 94 -41q0 -37 35 -57l19 -37l16 -14l49 -82l31 -43l8 -14q31 -40 41 -68q16 -26 45 -55
l39 30l14 9q5 22 35 32l4 31h39q13 18 35 33q12 15 37 35l16 30l27 11q21 26 47 47q18 6 18 35l45 14q18 13 33 35h2q10 0 25 18l8 -4q-2 4 -2 12q0 18 8 31l12 33q50 41 95 41q48 0 71 -39z" />
    <glyph glyph-name="brokenbar" unicode="&#xa6;" 
d="M438 1432h150v-758h-150v758zM438 408h150v-758h-150v758z" />
    <glyph glyph-name="section" unicode="&#xa7;" horiz-adv-x="940" 
d="M831 248l-8 -25l4 -53l-36 -86l-31 -27l-29 -49q-15 -28 -141 -71l-45 -25l-35 4l-37 -29l-24 13q-36 -17 -74 -23l-35 25l-27 -11l-55 31q-10 5 -47.5 24t-53 28t-40 27.5t-41.5 37.5q-31 35 -39 67t-8 89v16q0 32 16 49t59 29l50 18l32 -22l52 -17l2 -82l-41 -36
l-2 -17q8 -12 14 -24l33 -7l12 -28l6 -4h43l21 -23l32 -2l48 -16l32 4q33 12 62 12l12 -2l6 10h19q1 0 3 -1t3 -1q4 0 4 6q0 2 -1 5.5t-1 5.5l45 18l26 23l11 24l35 27l2 10l4 41q0 7 -13 20l-22 25l-60 35l-45 4l-32 29l-86 8q-17 6 -44 10.5t-47.5 10.5t-35.5 20
q-21 21 -35 28q-92 6 -92 64q0 2 1 6t1 6q0 16 -26 64.5t-26 95.5q0 3 5 43q65 44 65 59q0 18 -37 76q-14 47 -14 72q0 18 20 80l21 6q1 7 2 23t2 24l55 31q28 32 51 51l43 10q20 23 70 23h17q15 10 40 10t46 -8l36 10l66 -14l24 -17l68 -10l19 -39l55 -33v-33l20 -24
q29 -40 29 -84l-12 -29q-18 -50 -52 -79t-67 -29q-49 0 -82 67v45l20 33l-12 29l17 39q-39 12 -58 26l-18 6l-17 -4h-8l-22 -14q-52 0 -90 14q-42 -19 -72 -59q-24 -4 -33.5 -17t-9.5 -38v-9q-4 -1 -9.5 -2.5t-8 -2.5l-5 -2t-3.5 -2t-1 -3v2l2 -16l13 -17l26 -38h8
q38 0 66 -25l33 -4q31 -25 59 -25h8l131 -28l64 -41l49 -6l25 -29l36 -21l35 -55l4 -59q11 -29 11 -47q0 -56 -64 -105l29 -24l4 -43zM668 410q18 30 18 65q0 26 -47 70l-59 22l-37 13l-21 -5l-67 29q-43 2 -81 16.5t-62.5 28t-35.5 13.5q-18 -58 -18 -68q0 -23 25.5 -53.5
t70.5 -55.5q2 -2 8 -2q4 0 11 2t8 2q3 0 18.5 -2.5t45 -6t61.5 -5.5l16 -12l47 -6l13 -13h6q40 0 65 -28h4z" />
    <glyph glyph-name="dieresis" unicode="&#xa8;" 
d="M797 1145l-27 -58l-14 -4l-2 -8l-17 -8q-11 -14 -16 -14h-4l-29 -15l-8 9l-37 -13q-8 18 -42 36.5t-38 41.5l-8 45l12 12l-4 11l25 24v4q1 1 2.5 3.5t4 5t5.5 4.5q1 2 4 3.5l8 4l9 4.5q10 16 34 16q15 0 25 -4l10 -6h37l25 -29l26 -12v-14l15 -8l-7 -23zM473 1147l-12 -8
l6 -23l-12 -6v-14l-29 -13l-25 -28l-34 -2l-19 -4l4 2q-21 -7 -30 -7q-22 0 -31 19q-5 0 -15 10l-14 8q4 4 4 6v5h-8l-8 4l-12 16l6 12l-17 23l11 33q15 36 49 49l8 8q1 1 4 3.5t9.5 8t13.5 11.5l32 -13l17 6l12 -12q19 0 33 -20l28 -15z" />
    <glyph glyph-name="copyright" unicode="&#xa9;" horiz-adv-x="555" 
d="M397 1288h-55q-3 45 -47 45q-57 0 -57 -92q0 -90 57 -90q46 0 49 49h55q0 -44 -29.5 -71t-78.5 -27q-51 0 -82 36.5t-31 102.5q0 60 32.5 96.5t86.5 36.5q44 0 71.5 -23t28.5 -63zM293 1430q-79 0 -135 -57t-56 -134t56.5 -133.5t134.5 -56.5t135 55t57 135q0 79 -56 135
t-136 56zM293 1464q92 0 158.5 -66.5t66.5 -158.5q0 -94 -67 -159.5t-162 -65.5q-88 0 -154.5 67t-66.5 162q0 87 66 154t159 67z" />
    <glyph glyph-name="ordfeminine" unicode="&#xaa;" horiz-adv-x="583" 
d="M569 958l-20 -20l-4 -23v-8q-4 -29 -10 -33q4 -8 4 -12t-4 -16l2 -4l-5 -11q-3 -6 -6 -18l2 -16l11 -17l-13 -12v-18l-10 -17l8 -20l-14 -17q4 -25 4 -39q0 9 -2 23l12 -2l-18 -31l6 -12l10 -8l-6 -25l31 -8l-8 -16l14 2q-6 -35 -18 -60l-19 -4l-10 4l-8 -8l-15 -4
l-61 24l-14 15l-9 24l-8 9l-2 49l10 55l15 64l-4 14l-15 -12l-28 -60l-31 -24l-10 -15l-23 -37l-6 -16l-43 -27l-16 -16l-27 -16l-35 -11l-12 -10l-19 19l-49 -11l-35 17q-17 33 -22 67l6 2l-2 9l-8 20l10 25l2 22l8 35q0 2 -1 5t-1 5t1 5.5t1 4.5q0 14 8 33l9 15l-9 14v8
q0 22 17 33q2 4 14 22l-6 11l10 12q0 25 19 47l-4 27l6 2l4 14l8 23q16 24 21 49q17 3 26 12q1 1 3 3.5t5.5 7.5t6.5 9l28 -8l37 21l117 -4v-11l16 -4q18 0 31 -8l18 -20l19 -19l14 17l47 8l17 -27l26 -18l-2 -27zM590 356l-53 -61l-31 18l-74 -16l-70 10q-20 -4 -30 -4
q-16 0 -31 6l-16 2l-52 -4l-83 -14q-20 10 -41 10q-9 0 -25 -4l-41 23l-20 24v74l24 2l10 8l15 -20l16 12l16 -12l31 16l35 -10l27 4l2 -17l18 7l8 18l33 -12l25 18l28 -4q16 8 25 8l20 -2l27 -14l39 -4l31 10q20 -10 51 -10q23 0 33 4q24 -3 37.5 -15t13.5 -30q0 -15 2 -21
zM408 940l-9 4l-32 14l-17 17l-8 4l-23 -8l-12 10h-8l-20 -8v-15q-19 -6 -29 -20l-27 -33l4 -26l-14 -21l2 -4q-16 -13 -16 -35v-8l-9 -8v-21l-8 -8l-4 -6v-23l-6 -4l-2 -14l-10 -14q-6 -12 -6 -19q0 -4 6 -4l6 -16l8 -8l19 2l53 32l26 25l4 4l7 10v17l14 12l78 104l4 23
l6 2l8 12l4 23z" />
    <glyph glyph-name="guillemotleft" unicode="&#xab;" horiz-adv-x="856" 
d="M819 682q0 -26 -15.5 -42t-51.5 -28l-2 6l-15 -32l-18 -21l-39 -12l-23 -31h-28l-58 -61l-34 -25h-11v-6l21 -47q15 -27 18 -27q8 -16 8 -24q0 -6 -2 -10l13 -17l4 -8l12 4l12 -49l17 -29l6 -16l35 -31l-2 -41q38 -23 51 -69l-68 -39l-28 28l-25 19q-29 66 -82 100l-2 23
l-57 49v16l-17 17l-2 10l-6 2l-24 39l-35 4q-47 6 -47 47v33l26 12v14l8 23l23 8l-2 12l33 13l24 -2q2 2 8 2h11q6 14 14 26t13.5 18t15 15t10.5 10l45 45q9 24 35 27q2 3 5.5 7.5t4.5 6.5l47 54l4 -11l21 29v4q11 18 35 21l32 -5l41 -10l23 -26zM623 815l-27 -47l-27 -33
l-24 -4l-19 -20l-20 -11v-16l-31 -8q-27 -27 -47 -37l-20 -23l-27 -10l-2 -10l-31 -21l-24 -12l-29 -37l-29 -14l-22 -10l-4 -6v-27l-7 -2l13 -37l18 -14l6 -39l19 -37l10 -31l27 -30l6 -13l26 -6l-8 -31q3 -7 15.5 -30t15.5 -33l14 -10l31 -39l23 -15l-5 -59l-77 -39
l-37 57l-25 15q-33 36 -33 51v6l-28 45q-1 2 -7.5 9.5t-9.5 13.5q-25 17 -34 41l2 -4l-9 28l-26 25l-4 10l-25 16l-2 7l-29 8l2 43l-55 47l-2 20l-6 37l24 27l29 20l14 2l15 21l14 4l2 16l45 29l21 10v17l82 67l22 27q11 11 25 18q0 14 10 21l45 8l12 12l9 37l41 25
q16 8 16 28v9q49 22 72 22q15 0 26 -4.5t22 -18.5t17.5 -24.5t20.5 -36.5z" />
    <glyph glyph-name="logicalnot" unicode="&#xac;" horiz-adv-x="1705" 
d="M254 860h1198v-502h-137v363h-1061v139z" />
    <glyph glyph-name="uni00AD" unicode="&#xad;" horiz-adv-x="733" 
d="M678 420l-45 -33l-58 6l-26 -4l-55 -6l-70 4q-16 -4 -47 -4h-27l-49 -6l-14 4l-76 -8q-12 8 -21 8q-11 0 -28 -10l-35 6h-39l-35 45v41l27 2l20 27l52 -21l18 6q10 -2 29 -2h10l12 4v-8l21 -6l14 10l27 -4h43l94 4l4 -10l8 2l8 -6l27 8q16 -8 41 -8q17 0 35 6l32 -8h25
q70 0 78 -39z" />
    <glyph glyph-name="registered" unicode="&#xae;" horiz-adv-x="555" 
d="M256 1323v-70h35q49 0 49 33q0 37 -51 37h-33zM203 1360h88q102 0 102 -70q0 -50 -51 -65l53 -107h-57l-47 99h-35v-99h-53v242zM293 1430q-79 0 -135 -57t-56 -134t56.5 -133.5t134.5 -56.5t135 55t57 135q0 79 -56 135t-136 56zM293 1464q92 0 158.5 -66.5t66.5 -158.5
q0 -94 -67 -159.5t-162 -65.5q-88 0 -154.5 67t-66.5 162q0 87 66 154t159 67z" />
    <glyph glyph-name="macron" unicode="&#xaf;" 
d="M825 1139l-47 -33l-57 6l-82 -12l-66 6l-45 -6l-30 2l-49 -6l-15 2l-78 -6q-9 6 -18 6q-16 0 -29 -8l-37 6h-39l-34 43v43l28 2l19 26l51 -20l20 6q15 0 43 4l9 -4l8 -12l10 8l16 2l27 -4h41l102 4l5 -14h8l28 8q16 -8 41 -8q17 0 35 6l31 -8q53 -2 77 -10t27 -29z" />
    <glyph glyph-name="degree" unicode="&#xb0;" horiz-adv-x="483" 
d="M459 895l-6 -10q6 -9 6 -23q0 -20 -35 -92l-25 -14l-32 -25l-23 -8l-68 -33l-79 10l-72 -8l-47 41q-34 29 -37 88q0 13 2 27l-16 35l12 22l4 29l14 4q2 7 15 16q0 29 37 41l4 6l32 5l33 36l15 -6l10 8l18 -4l6 4l64 -14l10 2l29 -20h10q26 -6 51 -31l8 -16l37 -31z
M332 856q-14 32 -17 51q-10 2 -22 8l-6 29q-8 0 -19 1t-14 1q-17 0 -59 -31l-9 -14l-6 -10l-33 -64l13 -30l-4 -13l2 -4l32 4l33 -8q24 12 47 12q7 6 41 13l15 18l-9 23z" />
    <glyph glyph-name="plusminus" unicode="&#xb1;" horiz-adv-x="1705" 
d="M782 1192h142v-340h528v-139h-528v-340h-142v340h-528v139h528v340zM254 170h1198v-141h-1198v141z" />
    <glyph glyph-name="twosuperior" unicode="&#xb2;" horiz-adv-x="841" 
d="M825 446l-8 -26l-20 -6l6 -2q-24 -15 -53 -21l-13 2q-17 -10 -30 -10q-7 0 -9 2q-3 0 -7.5 -1t-6.5 -1t-5 1t-5 1l-12 4h-19l-25 8l-12 -8l-12 6l-21 -4q-8 5 -8 12h-14q-17 0 -29 9h-4q-4 0 -16 4l-6 -2l-4 -2q-13 8 -50 22q-16 0 -43 10h-28l-4 9l-35 -2q-19 6 -19 8v4
l-4 -8l-16 -4h-2q-15 -12 -37 -15h-2l-10 -10h-9q-12 0 -28 -4v-10l-33 -2q-15 -11 -27 -11q-4 0 -16 4l-14 -6l-37 2l-55 21l-21 14l-8 23v26l4 27l-8 10q48 39 59 41l21 12l16 -4l8 6q6 1 15 2t14.5 2t9.5 1h6q14 2 35 2q19 0 23 -2l32 -11l35 -6l43 -14q24 6 29 6v4
q21 10 39 14h4l8 17l35 16l20 8q3 12 15 21l2 8q18 6 22 6q6 0 6 -2l17 15v10l10 -4l4 28l31 4q9 15 26 21l17 10l6 14q0 7 4 13.5t4 7.5q0 16 8 22l-4 21l11 12v19l-21 28q-8 18 -65 37h-11l-24 15h-25l-6 8l-8 -2l-25 6l-12 -2l-16 4l-31 -4l-4 4l-13 -6l-12 6
q-16 -2 -29 -2q-12 -6 -26 -6l-23 -13l-30 -4l-2 -4l-17 -6l-4 2q-10 -10 -12 -14h-6v-8l-19 -2v-15l-33 -10q-6 -2 -12 -8q0 -8 -16 -21l-53 -4l-25 21l-12 30v11q0 23 20 37q6 23 33 26l2 8h18v4l70 29h10l6 2v4q38 15 70 15h16q32 16 64 16h12l41 -4l37 4l37 -8
q1 0 13 -2t18 -4l8 -2h-2l16 -9q27 -4 39 -10l10 -10l11 2l18 -18l37 -13l53 -49l8 -25l21 -6l-6 -18q2 -8 2 -23v-12l6 -18l-8 -17l2 -14q0 -10 -4.5 -18.5t-13 -17t-11.5 -13.5l-14 -23q-10 -18 -33 -28l-14 -27l-15 -4l-4 -6q-8 -16 -43 -25q-16 -11 -20 -22l-25 -15
q-2 2 -6 2q-3 0 -9.5 -1t-9.5 -1h-6l-32 -22l8 -2q-2 -5 -5 -7t-12.5 -5.5t-11.5 -4.5q-25 -10 -31 -12l47 -2l27 -12h27l4 -6l26 -2q0 -11 13 -11q2 0 6 1t6 1q4 -2 4 -10l-2 -2q0 -1 1.5 -1.5t5.5 -1.5t7 -3l21 12l12 -6l29 -2l26 4l19 -8l33 -6l20 6h19q12 6 30 6
q21 0 31 -4zM238 500l-21 8l-41 8l-22 -4h-39l-25 -6l-20 -19l10 -10l-2 -10l24 -6l37 4l41 6l29 12z" />
    <glyph glyph-name="threesuperior" unicode="&#xb3;" horiz-adv-x="815" 
d="M756 545l-23 -21l-8 -22l-27 -13v-8l-24 -4l-17 -18q-10 -1 -18.5 -3t-12.5 -4l-5 -1l-3 -2q-4 -2 -12 -4.5t-18 -4.5q-18 -12 -43 -12q-25 -13 -66 -20l-16 4l-60 -15h-28l-25 6l-18 -6l-35 -2l-23 2l-14 -4l-16 4l-4 2q-12 -4 -15 -4q-16 0 -24 2l-13 -2q-8 0 -12 2
q-2 -2 -6 -2q-8 0 -23 6l-22 -8l-16 15l-9 -7l-16 7q-14 -7 -23 -7q-10 0 -20 13q-23 3 -30 17t-7 46q0 42 41 45q16 8 33 8h10l39 2q21 -6 33 -15.5t12 -18.5q0 -14 -10 -21q10 0 16 -2l27 4q14 0 31 -10q24 6 49 6h24q16 8 23 8q8 0 20 -6q15 8 27 10l24 -14l5 4
q12 0 28 4h17l26 17q12 -2 29 -2q10 0 31 12h12l4 6l31 21l18 -3q39 17 49 27q2 8 2 16q0 10 -20 13l-25 16l-28 4l-41 -8l-11 12l-12 -2l-14 15l-6 -4l-12 2l-9 1.5t-4 0.5q-25 -6 -27 -7q-2 2 -6.5 6t-7.5 7l-6 -2q-13 -4 -47 -8l-10 8l-31 2l-27 10h-28l-31 12l-23 19
l-10 26l14 29l31 8q22 14 58 21l32 10l76 12l12 10h25l12 13q2 0 5.5 -2t4.5 -2q25 22 60 22q3 3 12 6l2 2q21 14 35 21v8q-9 14 -76 27l-33 -2q-24 4 -36 4q-13 0 -29 -4h-16l-25 -7l-23 7l-12 -11l-37 -2l-14 -2l-33 -10q-13 -10 -26 -10q-9 0 -21 6q-2 -6 -8 -12h-8
q-4 0 -7.5 -0.5t-6.5 -2.5t-5 -3t-5.5 -5t-4 -5t-5 -7t-5.5 -8q-8 0 -12 2l-11 -20l-51 20l-14 14l6 9l-10 -3q-9 18 -9 21q0 6 2 8l9 25l8 6q10 10 26 10h5l10 12l22 -4q20 13 37 13h8q0 8 9 14h26l13 6l20 2l20 -12l-2 10h21l18 6q6 1 22 4t25 4l15 -2q23 7 57 7h19l-7 -5
h7q14 0 20 -4l16 4l27 -2q10 0 28 1t25 1v-10l31 -10l37 -6l18 -23l25 -18l12 -27l-6 -26v-2q-5 -16 -14 -27q-19 -29 -54 -37l-10 -12l-35 -17l-32 -4l-19 -12l-28 -8l-23 -8l-27 4l-32 -11l32 -10h37l21 2h14q18 0 31 -8q21 -8 57 -8l8 -6h4q9 0 15 -2l30 -2l21 -15h16
l33 -28l8 -31l19 -16l-6 -15z" />
    <glyph glyph-name="acute" unicode="&#xb4;" 
d="M821 1327l-10 -24l-10 -50h-8q-27 0 -42.5 -9.5t-25.5 -33.5l-18 13l-68 -56h-6l-17 -18l5 -12l-37 -13v-12l-31 -10l-12 -17l-9 -24l-10 -4v-13l-37 -12l-53 -45l-76 49l29 56l10 34l47 21l29 43l14 2l11 14v21l26 26l23 -14q25 29 33 45q36 19 38 31q6 27 39 41l31 28
l43 5l19 -5q66 -12 73 -57z" />
    <glyph glyph-name="mu" unicode="&#xb5;" horiz-adv-x="1169" 
d="M166 195q-24 -105 -42.5 -218t-26.5 -176t-21 -119t-33.5 -79t-56.5 -23q-42 0 -65 24.5t-23 69.5q0 39 26.5 130t73.5 252t80 317l108 512h168l-100 -475q-18 -81 -18 -134q0 -71 41.5 -109t119.5 -38q99 0 155 55t81 172l112 529h173l-115 -533q-19 -90 -19 -127
q0 -100 103 -100q44 0 80.5 25t58.5 69q13 27 23.5 63t18.5 51t24 15q9 0 15.5 -8.5t6.5 -20.5q0 -33 -13 -86t-36 -102q-78 -156 -215 -156q-80 0 -125 55t-45 154v13q-52 -114 -122.5 -168t-172.5 -54q-95 0 -151 56.5t-68 163.5z" />
    <glyph glyph-name="paragraph" unicode="&#xb6;" horiz-adv-x="964" 
d="M543 1047q24 -7 28 -7h4l23 7l39 -7q4 -4 8 -4q8 0 19 11l41 -5l16 -10l24 10q12 -12 23 -12q8 0 20 6l17 -4l24 6q29 -19 29 -49q0 -6 -4 -22l-16 -2l4 -9q-15 -30 -41 -30h-10l-15 -8l8 -48l-20 -82l14 -75l-22 -43l4 -101l-19 -55l17 -8q-23 -77 -23 -96q0 -12 6 -33
l-12 -51l14 -52l-22 -57l-4 -108l-15 -29l5 -156l-25 -74l8 -124q-6 -68 -47 -115l-29 63l9 88l-13 17l11 63l-3 39l9 29l-11 41l15 41l4 92l-8 51l10 49q-8 63 -8 101q0 35 16 94l-6 29l14 26l-10 68l14 39l-6 43l8 26l3 37q6 44 6 94q0 25 -4 95l-7 49l7 37v14l8 2l-21 10
l-55 -14q-5 16 -16 16q-5 0 -17 -4v-6l10 -10l-2 -33l4 -37l-12 -31l6 -41v-45l11 -14l-23 -63l6 -66q-14 -11 -14 -31q0 -12 10 -32v-109l-16 -57l4 -72q-6 -21 -6 -43q0 -25 10 -55q-14 -2 -14 -19q0 -2 0.5 -13t1 -29t0.5 -38q0 -51 -2 -84l-31 -120l18 -37l-10 -37v-47
l-53 -21l-10 37l-21 31l10 29l-8 32l17 49q2 6 2 19q0 17 -11 43l15 82l-11 20l11 64q2 4 2 12q0 12 -13 25l5 186q4 24 4 43q0 5 -1 16t-1 17q10 42 10 67h-15l-6 -14l-45 -22q-10 -5 -20 -8t-16 -3.5t-7 -1.5l-37 -12h-10q-31 0 -43 18q-13 0 -18 -8q-49 5 -74 16.5
t-39 41.5q-6 9 -6 22q0 4 4 16l2 15l-6 24l8 31l-16 16q8 34 24 58l6 28l21 25l-2 12l10 25l23 22l18 39l19 6l28 56l23 14l32 35l33 6q20 36 70 39l43 20q18 -6 33 -6q4 0 45 9z" />
    <glyph glyph-name="periodcentered" unicode="&#xb7;" horiz-adv-x="532" 
d="M391 545l-26 -66l-33 -18q-33 -21 -66 -31h-8l6 2l-49 2q-70 30 -70 98q0 2 5 37l8 9l-2 12q13 26 37 41l10 6l4 4q18 18 39 21q16 -2 35 -7l36 -6l27 -31l27 -14v-16l12 -10l-2 -25z" />
    <glyph glyph-name="cedilla" unicode="&#xb8;" 
d="M743 -270l-6 -62l-32 -35l-23 -10l-18 -29l-78 -6q-19 -16 -47 -16l-146 14l-35 72l68 23l25 -13l2 10h6l20 -6q8 2 19 2q8 0 10 -2l14 -4q11 8 21 10q43 17 59 17l2 20l8 21l-16 4q0 29 2 43l-10 -8l-53 6l-31 -12l-12 2l-50 -25l-39 14q-23 3 -30 31l-15 -6v29l7 10
l-17 14l4 17l17 10l8 18v4l20 -4l6 19l-2 8l9 14v25l6 2l-6 12l14 23l8 51l21 -4h82q0 -17 1 -36.5t1 -23.5l-21 -36l8 -31l25 -8q16 4 20 4q22 0 47 -19h23l16 -14l31 -2l33 -47l24 -31v-59z" />
    <glyph glyph-name="onesuperior" unicode="&#xb9;" horiz-adv-x="710" 
d="M647 408h-59l-56 -11l-40 6l-19 5l6 6l-24 -11q-4 0 -14 1.5t-15 1.5q-6 6 -6 16l-25 -19l-26 3q-4 0 -12.5 -1.5t-12.5 -1.5q-7 0 -37 5l-35 -7l-2 7l-14 -2l-23 -3l-28 -12l-6 6q-6 -2 -23 -2h-10l-4 4q-12 -4 -19 -4q-8 0 -20 4q-12 -4 -14 -4q-45 0 -54 19l-24 8v22
q-4 8 -4 15t6 14.5t12 9.5l35 9l6 2h12q14 0 23 -9q1 1 3 1.5t3.5 1t3.5 2t4 2.5l25 2l26 8l41 -2q27 -10 49 -13l3 5l-15 20l4 18q-4 6 -4 17q0 8 4 12q-4 16 -4 35q0 15 15 27l-3 22q1 2 3 3.5t2 2.5q0 3 -13 10l-4 41l4 2l11 19l-11 22l17 17l6 24v7q0 12 6 24
q-4 8 -4 12q0 2 1 5.5t1 5.5l-6 -2q-15 -5 -21 -5l-28 -10h-4q-13 -10 -35 -10h-6q-4 -4 -9.5 -10t-9 -9.5t-6.5 -5.5l-25 11l-12 -2q-21 -3 -49 -25q-15 18 -35 21l-41 12l-14 31q17 32 41 32q10 0 26 -4l17 -12q15 10 28 10q14 14 66 17h6q13 0 25.5 9t19.5 11l-6 4l43 8
l6 9q-2 2 -7 6t-7 6l45 18h14l6 -6q7 0 7 -4q-2 6 -2 20q0 19 16 35l49 11h53q39 -31 39 -50q0 -14 -16 -24l-33 -25q0 -1 -1 -3t-1 -3q0 -2 1 -4.5t1 -3.5l-6 -2l-8 2l2 -35l-8 -6q-5 -10 -7 -10l-4 -4v-5q0 -6 4 -10q-9 -17 -13.5 -42t-10.5 -31l6 -9l-14 -26l2 -17
l-6 -24l6 -10l-8 -21q4 -20 4 -23q0 -6 -2 -8q8 -24 8 -28l-15 -7v-2q5 -7 5 -20t-5 -21l15 -8q-1 -2 -4 -9.5t-4 -12.5l-2 4v-25l8 13l22 -7l41 7v-7l60 15l-13 -27q8 2 17 2t30 -6h5q30 6 47 6q18 0 49 -8l8 8q35 -15 35 -39q0 -18 -27 -30z" />
    <glyph glyph-name="ordmasculine" unicode="&#xba;" horiz-adv-x="542" 
d="M526 860l-8 -20l4 -6l-10 -52l-6 -10q-3 -16 -12 -41l-13 -14l-12 -33l-8 -4l-4 -10l-17 -11l-8 -18l-12 -6l-2 -17l-27 -8q-19 -26 -45 -32q-19 -25 -45 -25q-20 -8 -31 -8h-6q-2 -1 -5 -3.5t-9 -7t-12 -8.5l-39 19l-37 -6h-45q-3 0 -11 4l-24 20l-33 31l8 22l-18 43
l8 17l-8 29l8 18q0 4 -1 10.5t-1 9.5q0 27 14 41q0 4 17 50l6 10v8l10 25l-4 8l-4 -4q0 1 16 47l25 45l6 18q8 0 12 -2l11 8l4 4v15l28 33l7 2l10 8l18 10l-2 6q21 21 45 21q19 0 27 -4l4 -2l37 8l33 -23h6l20 -8h19q24 -30 43 -49l6 -4l28 -37l25 -62v-10zM520 356l-55 -61
l-31 18l-18 -4l-23 -12l-35 10q-20 -4 -30 -4q-18 0 -33 6l-14 2l-54 -4l-65 -14q-23 10 -41 10q-9 0 -25 -4l-43 23l-20 24v74l26 2l11 8l14 -20l14 12l19 -12l28 16l37 -10l27 4l2 -17l16 7l9 18l32 -12l27 18l29 -4q9 6 18 6h8l29 -14l20 -4l33 10q8 -8 21 -8q8 0 14 2
q46 -6 49 -45zM403 831l-6 7q-8 8 -8 20q0 6 2 10l-8 13v18q-10 5 -18 21q-9 9 -11 18l-18 27l-6 8l-13 2l-22 -37l-35 -12l-10 -4l-4 -17l-10 -6l-9 -29l-10 -6q1 -6 2 -17.5t2 -15.5l-20 -12q0 -11 -13 -28v-7l-14 -16l-2 -8v-19l-8 -24v-43l-4 -19v-6l6 -8l4 -4l10 4h21
l4 10h51v8l12 5l6 6l7 4l6 20h26l19 15l16 20l14 4l3 8l-15 29l37 12l4 4q-2 4 -2 11q0 13 10 26z" />
    <glyph glyph-name="guillemotright" unicode="&#xbb;" horiz-adv-x="856" 
d="M819 426l-22 -29l-29 -18l-16 -2l-13 -21l-14 -4l-4 -16l-43 -29l-23 -10v-16l-82 -70l-20 -27q-16 -13 -25 -16q0 -9 -12 -21l-43 -8l-12 -12l-8 -39l-43 -25q-17 -9 -17 -28v-8q-48 -23 -71 -23q-15 0 -26 4.5t-22 18.5t-17.5 24.5t-20.5 36.5l26 49l27 31l26 6l17 21
l22 10v16l29 8q21 21 49 37l19 23l28 10l2 8l31 21l25 12l26 39l31 12l20 12l7 7v26h6l-15 37l-16 14l-8 41l-19 35l-8 31l-29 33l-4 10l-26 6l6 31q-24 50 -29 65l-16 11l-31 38l-22 13l6 61l76 37l38 -57l25 -13q33 -36 33 -51v-6l26 -47q2 -5 17 -23q29 -20 37 -40l-2 4
l8 -29l26 -23l2 -12l25 -14l2 -6l31 -9l-4 -45l55 -49l4 -18zM537 489l-27 -10v-16l-8 -23l-23 -6l2 -12l-32 -14l-27 4l-16 -4q-6 -18 -15.5 -30t-24.5 -24.5t-16 -13.5l-43 -45q-13 -26 -37 -29q-6 -6 -10 -14l-47 -51l-2 8l-23 -27v-4q-14 -20 -34 -20l-33 2l-41 12
l-23 27l-18 24q0 26 15.5 41t51.5 27l3 -4l14 32l20 21l39 12l21 31h28l60 61l35 25h8v4l-21 49q-3 4 -9 13.5t-9 13.5q-6 9 -6 20t2 15l-15 16l-2 8l-14 -4l-10 47l-19 31l-4 16l-34 31l2 41q-40 24 -52 70l68 37l29 -29l22 -17q31 -70 82 -100l4 -22l58 -50v-18l16 -14
v-11l8 -2l25 -39l32 -6q50 -6 50 -45v-35z" />
    <glyph glyph-name="onequarter" unicode="&#xbc;" horiz-adv-x="2072" 
d="M618 449h-57l-53 -11l-39 6l-18 5l8 4l-25 -9q-4 0 -13.5 1t-14.5 1q-6 12 -7 15l-20 -17l-27 2q-4 0 -12 -1t-12 -1q-8 0 -33 5l-35 -7l-2 7l-14 -3l-23 -2l-24 -10l-7 6q-16 -4 -22 -4h-10l-2 4q-8 -2 -19 -2q-14 0 -20 2q-2 -1 -7 -2t-6 -2q-42 0 -51 19q-13 3 -24 8
v18q-4 12 -4 15q0 7 6 14.5t12 9.5l33 6l6 2h10q17 0 25 -8q3 3 12 6l23 2l26 9l39 -2q18 -7 47 -11l2 2l-14 21l4 16q-4 6 -4 15q0 8 4 12q-4 14 -4 33q0 16 14 24l-2 23q2 2 2 4q0 5 -10 10l-4 37l4 2l10 16l-10 23l16 14l4 25v6q0 10 9 22q-4 4 -4 13v8l-5 -2
q-12 -4 -20 -4l-27 -10h-4q-15 -9 -32 -9h-7q-18 -18 -24 -22l-23 10l-12 -2q-23 -7 -47 -25q-16 16 -33 19l-39 12l-14 29q19 31 39 31q6 0 26 -5l17 -12q12 10 26 10q11 11 62 17h6q11 0 24 8.5t19 9.5l-6 4l41 9l6 8q-4 2 -12 10l41 18h16l4 -6q6 -3 6 -6q-2 8 -2 21
q0 17 15 32l49 11h49q37 -30 37 -48q0 -11 -15 -22l-32 -23v-14l-4 -2l-11 2l4 -33l-8 -4q-3 -10 -6 -10l-4 -4v-4q0 -6 4 -10q-8 -16 -13 -39t-10 -29l7 -8l-15 -25l2 -14l-6 -25l4 -10l-8 -18q4 -8 4 -21v-8q8 -20 8 -27l-14 -6v-2q2 -6 2 -18q0 -13 -2 -19l14 -8
q-5 -7 -8 -20l-4 2l2 -21l8 10l23 -6l37 6v-6l57 15l-10 -25h12q19 0 31 -4h4q36 4 47 4t45 -6l6 6q35 -11 35 -35q0 -19 -25 -28zM1374 1135q47 -24 47 -56q0 -22 -20 -45q-8 -35 -55 -47l-23 2l-25 -18l-14 -49l-20 -23l6 -22l-29 -13q-30 -30 -31 -30l-2 -19l-24 -22
q-13 -16 -19 -41l-26 -29l-4 -35l-25 -22l-14 -33l-13 -37l-26 -25l-29 -65l-16 -10l-2 -41l-31 -21l6 -45h-10q-23 0 -29 -12q-3 -4 -8 -11.5t-8 -11.5q-6 -32 -35 -55v-18q0 -20 -25 -45l-4 -17l-22 -8q0 -17 4 -21q-8 -8 -19 -30v-21l-16 -20l-16 -33l-17 -16l-4 -9
l-2 -22l-35 -78l-14 -37l-72 -61q-10 -2 -28 -2q-40 0 -64 16l33 82l-2 23l22 24q6 30 25 55q8 23 10 37l29 41l12 27l2 29l23 34l16 19q2 17 21.5 39t21.5 37l12 28q43 98 68 123q5 8 14 8v35l37 49l17 64l14 4l6 39l29 10l8 6l12 66q7 4 25 8q11 36 31 70l30 28
q15 26 27.5 54t13.5 30l41 64q37 42 43 73q3 5 10.5 15l10.5 14t9 11.5t9.5 11t8.5 7.5t10 6t10 3h-6q27 8 53 8q39 0 57 -24zM2056 276q-3 -38 -35 -49l-4 -14q-29 -18 -45 -18q-10 -10 -35 -13l-10 -4l-35 -8l-16 -2l-16 6l-19 2l-18 -4l-25 8v-2l-10 -10l2 -12l-2 -13v-8
l-10 -18l8 -4l-8 -7l8 -22l-12 -12l8 -17l-8 -20q4 -4 4 -12q0 -9 -4 -11l2 -12v-6q8 -10 17.5 -25.5t12.5 -19.5l-16 -12q-15 -11 -33 -11q-22 0 -41 8l-2 29l-12 12v15l-16 12l6 10l-6 6l6 13l-6 20l-7 10l13 17l-4 12l6 31q-4 8 -4 14q0 4 4 12l2 11q2 4 2 16v12l-21 11
q-36 0 -63 8h-33l-8 4l-25 -6l-14 10l-29 -2l-10 6h-10q-12 -2 -29 -2q-30 -12 -37 -12q-4 -1 -14 -6l-4 -9l-15 -2q-10 -6 -30 -6h-13q-12 -4 -20 -4q-11 0 -23 4l-4 6l-8 2l-16 35q13 25 39 37v4l14 12l31 13l45 2v-6l29 18l20 -2l6 12l12 9l-2 12l33 8q7 14 19 23l2 2
q13 13 16 14l4 4q8 4 8 8l15 10l8 15l14 6q7 20 14 22q2 8 15 21q-4 0 -4 2t12 14q2 5 23 13v22l22 12q8 24 17 34.5t24 10.5q9 0 27 -6l8 -12l6 -4q4 -2 4 -12v-31q-3 -8 -8 -16t-6 -11l-4 -2l-4 -18l-17 -6l-4 -11q-2 -14 -43 -55q0 -21 -27 -33l-4 -2q-12 -15 -18 -18
q-11 -14 -29 -21l-8 -6l-2 -8l-18 -8l-7 -4l9 -2l20 2l19 -8q18 -9 24 -9h4q4 -1 22.5 -4.5t28.5 -3.5q5 0 17 4l20 -4l4 8v11l15 14q0 2 1 8t1 8l-2 25l10 2l-4 8q12 12 12 17l-8 16q5 1 10.5 7t9.5 7v37l7 2l-2 6l14 15q-8 12 -8 18t2 10l8 13l-2 14l6 25l-2 16
q11 33 51 33q29 -14 45 -39q6 -15 6 -37l-12 -12l2 -31l-4 -8l-4 -10l-8 -15l2 -20l-8 -6l-2 -11l-11 -20l2 -19l-14 -47l-27 -51l2 -4l37 -12l19 2q10 0 14 -2l59 18l13 8l33 9q16 16 40 16h7z" />
    <glyph glyph-name="onehalf" unicode="&#xbd;" horiz-adv-x="2066" 
d="M618 449h-57l-53 -11l-39 6l-18 5l8 4l-25 -9q-4 0 -13.5 1t-14.5 1q-6 12 -7 15l-20 -17l-27 2q-4 0 -12 -1t-12 -1q-8 0 -33 5l-35 -7l-2 7l-14 -3l-23 -2l-24 -10l-7 6q-16 -4 -22 -4h-10l-2 4q-8 -2 -19 -2q-14 0 -20 2q-2 -1 -7 -2t-6 -2q-42 0 -51 19q-13 3 -24 8
v18q-4 12 -4 15q0 7 6 14.5t12 9.5l33 6l6 2h10q17 0 25 -8q3 3 12 6l23 2l26 9l39 -2q18 -7 47 -11l2 2l-14 21l4 16q-4 6 -4 15q0 8 4 12q-4 14 -4 33q0 16 14 24l-2 23q2 2 2 4q0 5 -10 10l-4 37l4 2l10 16l-10 23l16 14l4 25v6q0 10 9 22q-4 4 -4 13v8l-5 -2
q-12 -4 -20 -4l-27 -10h-4q-15 -9 -32 -9h-7q-18 -18 -24 -22l-23 10l-12 -2q-23 -7 -47 -25q-16 16 -33 19l-39 12l-14 29q19 31 39 31q6 0 26 -5l17 -12q12 10 26 10q11 11 62 17h6q11 0 24 8.5t19 9.5l-6 4l41 9l6 8q-4 2 -12 10l41 18h16l4 -6q6 -3 6 -6q-2 8 -2 21
q0 17 15 32l49 11h49q37 -30 37 -48q0 -11 -15 -22l-32 -23v-14l-4 -2l-11 2l4 -33l-8 -4q-3 -10 -6 -10l-4 -4v-4q0 -6 4 -10q-8 -16 -13 -39t-10 -29l7 -8l-15 -25l2 -14l-6 -25l4 -10l-8 -18q4 -8 4 -21v-8q8 -20 8 -27l-14 -6v-2q2 -6 2 -18q0 -13 -2 -19l14 -8
q-5 -7 -8 -20l-4 2l2 -21l8 10l23 -6l37 6v-6l57 15l-10 -25h12q19 0 31 -4h4q36 4 47 4t45 -6l6 6q35 -11 35 -35q0 -19 -25 -28zM1374 1135q47 -24 47 -56q0 -22 -20 -45q-8 -35 -55 -47l-23 2l-25 -18l-14 -49l-20 -23l6 -22l-29 -13q-30 -30 -31 -30l-2 -19l-24 -22
q-13 -16 -19 -41l-26 -29l-4 -35l-25 -22l-14 -33l-13 -37l-26 -25l-29 -65l-16 -10l-2 -41l-31 -21l6 -45h-10q-23 0 -29 -12q-3 -4 -8 -11.5t-8 -11.5q-6 -32 -35 -55v-18q0 -20 -25 -45l-4 -17l-22 -8q0 -17 4 -21q-8 -8 -19 -30v-21l-16 -20l-16 -33l-17 -16l-4 -9
l-2 -22l-35 -78l-14 -37l-72 -61q-10 -2 -28 -2q-40 0 -64 16l33 82l-2 23l22 24q6 30 25 55q8 23 10 37l29 41l12 27l2 29l23 34l16 19q2 17 21.5 39t21.5 37l12 28q43 98 68 123q5 8 14 8v35l37 49l17 64l14 4l6 39l29 10l8 6l12 66q7 4 25 8q11 36 31 70l30 28
q15 26 27.5 54t13.5 30l41 64q37 42 43 73q3 5 10.5 15l10.5 14t9 11.5t9.5 11t8.5 7.5t10 6t10 3h-6q27 8 53 8q39 0 57 -24zM2050 39l-6 -25l-19 -8h5q-21 -15 -50 -18h-14q-16 -8 -29 -8h-30l-13 4h-18l-21 8l-14 -6l-10 4l-21 -4q-1 2 -3.5 5t-3.5 4.5t-1 2.5h-14
q-14 0 -25 8h-6q-10 0 -14 2l-6 -2h-4q-24 12 -45 21q-15 0 -43 8h-27l-4 8l-35 -2q-16 6 -16 10v2l-4 -8l-15 -4l-4 2q-10 -11 -35 -14h-2l-8 -11h-10q-9 0 -25 -4l-2 -8l-31 -2q-13 -10 -24 -10q-5 0 -17 4l-12 -4h-35l-55 18l-18 15l-9 22v25l5 24l-7 11q38 32 56 36
l18 11l17 -2l6 4q9 1 22 3.5t17 2.5q1 0 3 -1t3 -1q24 4 33 4q16 0 22 -2l31 -12l33 -5l43 -14q9 6 26 6l-2 4q4 1 18 7.5t21 7.5h4l8 14l33 14l21 9q0 12 12 18l2 10l10 2t7 1.5t3 0.5q7 0 7 -2l14 15v10l10 -6l6 28l29 2q5 14 24 21l17 8l4 14q1 5 4.5 11t3.5 8v2
q0 13 8 18l-4 21l10 10v19l-18 26q-8 16 -63 35l-11 -2l-22 14h-23l-6 8l-8 -2l-25 7l-10 -3l-16 5l-29 -5l-6 5l-10 -7l-11 7q-16 -2 -28 -2q-14 -7 -27 -7l-20 -10l-29 -4l-4 -6l-14 -4l-5 2l-12 -12h-4v-9l-18 -4v-12l-31 -8q-6 -4 -12 -10q0 -5 -17 -19l-49 -4l-22 21
l-15 28v10q0 20 21 35q6 19 30 25l2 6h17l2 4l68 27h8l6 2v4q35 14 65 14q3 0 8.5 -1t8.5 -1q29 16 59 16h12l39 -4l35 4l37 -8q14 0 29 -6l8 -2h-2l16 -8q21 0 37 -8q1 -1 2 -3t3 -4t5 -4l11 3l16 -17l35 -10l49 -47l8 -23l21 -6l-7 -18q3 -9 3 -19v-12l8 -18l-11 -15
l3 -12q0 -10 -4 -18t-12.5 -17t-10.5 -12l-14 -21q-9 -16 -33 -26l-13 -27l-12 -2l-4 -6q-11 -15 -41 -23q-16 -11 -20 -22l-23 -14q-2 2 -8 2q-2 0 -7.5 -1t-8.5 -1q-1 0 -3.5 1t-3.5 1l-30 -21l8 -4q-2 -4 -5.5 -6t-11 -4t-12.5 -4q-10 -5 -28 -11l47 -4l22 -10h25l6 -6
l24 -2q3 -8 13 -8q8 0 12 2q2 -4 2 -11v-2q0 -1 1.5 -1.5t5 -1.5t5.5 -3l21 11l12 -5l27 -2l24 4l19 -8l31 -6l20 6h18q10 6 29 6q21 0 29 -4zM1489 88l-19 6l-38 8l-21 -2h-37l-24 -6l-21 -16l10 -12l-2 -9l23 -6l37 4l39 6l28 11z" />
    <glyph glyph-name="threequarters" unicode="&#xbe;" horiz-adv-x="2174" 
d="M721 578l-21 -21l-8 -20l-26 -11v-10l-23 -4l-14 -14q-11 -1 -19.5 -3t-13.5 -4l-4 -2l-4 -2q-4 -2 -11 -4.5t-16 -3.5q-12 -8 -41 -12q-20 -10 -61 -18l-17 4l-57 -15l-27 2l-24 4q-2 -1 -9 -2t-10 -2l-32 -4l-21 2l-12 -4q-14 4 -19 6h-2q-13 -3 -14 -4q-6 0 -22 4
l-13 -2h-18q-13 0 -21 4l-22 -8l-15 15l-8 -7l-16 7q-14 -7 -21 -7q-10 0 -18 11q-23 4 -30 17.5t-7 43.5q0 38 39 41q16 8 33 8h8l37 2q21 -6 33 -15.5t12 -17.5q0 -9 -12 -18q4 0 16 -4l25 6q13 0 30 -10q16 4 45 4h25q11 8 20 8q12 0 21 -6q8 6 24 10l25 -12l4 2
q4 1 13.5 3t13.5 3h16l25 14q12 -2 26 -2q5 0 31 11h12l4 6l29 20l19 -2q38 15 45 25q4 6 4 16q0 7 -23 10l-22 15l-27 4l-39 -6l-10 12l-10 -2l-17 12l-4 -4q-4 1 -10 2l-9 1.5t-5 0.5q-2 -1 -10 -2.5t-13 -3.5q-12 8 -14 10l-8 -2q-16 -3 -46 -6l-8 8l-30 2l-23 11l-29 -2
l-28 12l-25 18l-8 25l12 27l31 8q23 12 55 18l31 10l72 11l14 8h22l13 12q4 0 8 -4q30 23 57 23q1 1 5 2.5t6 3.5l4 2q1 0 12 6.5t20 11.5v6q-10 16 -71 25l-33 -2q-24 4 -35 4q-19 0 -29 -2h-14l-24 -6l-21 6l-10 -10l-35 -2l-16 -2l-31 -9q-12 -12 -25 -12q-3 0 -10 2.5
t-10 3.5q-5 -9 -6 -10h-8q-9 0 -16.5 -5t-9.5 -7.5t-11 -16.5q-11 0 -15 2l-8 -20l-49 20l-12 13l4 8l-8 -2q-9 12 -9 18t2 8l7 23l8 6q10 10 26 10h4l11 11l20 -2q13 10 35 10h8q0 8 6 14h27l12 6l21 2l18 -12l-2 10h19l18 4q18 5 45 9l14 -3q21 7 56 7h16l-6 -4h6
q13 0 21 -5l14 5l27 -3q10 0 26 1.5t23 1.5v-11l28 -8l37 -6l17 -23l24 -14l12 -27l-6 -24v-2q-4 -13 -14 -25q-21 -28 -51 -35l-10 -12l-33 -14l-31 -4l-16 -11l-29 -8l-20 -8l-27 4l-31 -8l33 -10h35l16 2h14q18 0 31 -8q21 -9 53 -9q3 -1 6.5 -3.5t4.5 -2.5l2 2
q2 0 14 -4l29 -2l20 -12h15l32 -27l6 -28l19 -17l-4 -12zM1475 1135q47 -24 47 -56q0 -21 -21 -45q-8 -35 -55 -47l-23 2l-24 -18l-15 -49l-20 -23l6 -22l-29 -13l-30 -30l-2 -19l-25 -22q-11 -14 -18 -41l-27 -29l-4 -35l-25 -22l-14 -33l-12 -37l-27 -25l-29 -65l-16 -10
l-2 -41l-31 -21l6 -45h-10q-22 0 -28 -12q-3 -4 -8.5 -11.5t-8.5 -11.5q-6 -32 -35 -55v-18q0 -21 -24 -45l-4 -17l-23 -8q0 -17 4 -21q-6 -6 -18 -30v-21l-17 -20l-16 -33l-16 -16l-4 -9l-3 -22l-34 -78l-15 -37l-71 -61q-10 -2 -29 -2q-39 0 -63 16l32 82l-2 23l23 24
q6 31 24 55q10 29 11 37l28 41l13 27l2 29l22 34l16 19q2 17 21.5 39t21.5 37l13 28q44 100 67 123q5 8 15 8v35l37 49l16 64l14 4l6 39l29 10l8 6l13 66q8 4 24 8q11 36 31 70l31 28q15 26 27.5 54t13.5 30l41 64q37 42 43 73q4 6 12.5 17.5t12 16t9.5 12.5t10.5 11.5
t10.5 6.5t12 4h-6q27 8 53 8q40 0 58 -24zM2157 276q-3 -38 -35 -49l-4 -14q-29 -18 -45 -18q-10 -10 -35 -13l-10 -4l-35 -8l-17 -2l-16 6l-18 2l-19 -4l-25 8v-2l-10 -10l2 -12l-2 -13v-8l-10 -18l8 -4l-8 -7l8 -22l-12 -12l8 -17l-8 -20q4 -4 4 -12q0 -9 -4 -11l2 -12v-6
q8 -10 18 -25.5t13 -19.5l-17 -12q-15 -11 -32 -11q-22 0 -41 8l-2 29l-13 12v15l-16 12l6 10l-6 6l6 13l-6 20l-6 10l12 17l-4 12l6 31q-4 8 -4 14q0 4 4 12l2 11q2 4 2 16v12l-20 11q-37 0 -64 8h-33l-8 4l-24 -6l-15 10l-28 -2l-11 6h-10q-12 -2 -29 -2q-30 -12 -36 -12
q-6 -1 -15 -6l-4 -9l-14 -2q-10 -6 -31 -6h-12q-12 -4 -21 -4q-10 0 -22 4l-4 6l-8 2l-17 35q13 25 39 37v4l14 12l31 13l45 2v-6l29 18l20 -2l6 12l13 9l-2 12l32 8q7 14 19 23l2 2q13 13 16 14l4 4q9 5 9 8l14 10l8 15l15 6q6 20 14 22q2 9 14 21q-4 0 -4 2t12 14
q2 5 23 13v22l22 12q8 24 17 34.5t24 10.5q9 0 27 -6l8 -12l6 -4q4 -2 4 -12v-31q-3 -8 -8 -16t-6 -11l-4 -2l-4 -18l-16 -6l-5 -11q-2 -14 -43 -55q0 -21 -26 -33l-4 -2q-11 -14 -19 -18q-12 -14 -28 -21l-9 -6l-2 -8l-18 -8l-6 -4l8 -2l20 2l19 -8q18 -9 24 -9h5
q4 -1 22.5 -4.5t28.5 -3.5q4 0 16 4l21 -4l4 8v11l14 14q0 2 1 8t1 8l-2 25l10 2l-4 8q12 12 12 17l-8 16q5 1 11 7t10 7v37l6 2l-2 6l14 15q-8 12 -8 18t2 10l8 13l-2 14l6 25l-2 16q11 33 52 33q28 -14 45 -39q6 -15 6 -37l-13 -12l2 -31l-4 -8l-4 -10l-8 -15l2 -20l-8 -6
l-2 -11l-10 -20l2 -19l-15 -47l-26 -51l2 -4l37 -12l18 2q10 0 14 -2l60 18l12 8l33 9q16 16 41 16h6z" />
    <glyph glyph-name="questiondown" unicode="&#xbf;" horiz-adv-x="802" 
d="M555 1049l-18 -31l8 -43l-21 -31l-24 -22l-49 16l-9 -4l-34 12l-58 33l-22 57v8q0 39 30 52l29 6l53 14l43 -12l43 -21zM334 129l8 -2l20 4l29 -4l4 8q29 0 37 -2l10 -2q24 0 54 10l4 2q8 -8 14 -20q6 17 31 20q84 25 96 25q47 0 68 -59q-49 -52 -107 -58l-12 10l-8 -28
l-13 -4l-28 -29h-29l-14 -10l-43 -10l-33 10q-6 -2 -21 -2q-16 0 -24 2l-23 -10q-10 5 -18 11t-11.5 9.5t-5.5 3.5q-4 0 -4 -4l-22 4h-17l-4 4l-39 2q-6 10 -16 25l-4 4l-27 24l-34 46l-29 45l-21 20l-4 29l-28 28l16 48q4 16 4 28l-8 41q43 29 72 62l8 12l24 35h17l24 20
l6 15l19 12v16l49 10l16 35h7v4l14 9l-4 8l53 39l10 24l19 35l-8 37l6 10l-19 12l-20 2q-43 18 -43 60q0 2 1 7.5t1 8.5l16 33l80 2l47 -33l23 -24q20 -11 30 -35l27 -6v-41l-6 -23l18 -26l-10 -33l-2 -25l-31 -32q-5 -16 -20 -23q-4 -4 -8 -12q-6 -21 -25 -43h-6l-10 -21
l-17 -6q-15 -24 -41 -33v6q-18 -18 -18 -22q1 0 2 1t2 1q4 -4 4 -6q0 -9 -6 -21l-33 -14l-8 -10l-39 -17v-18l-29 -14l-6 -29q-4 -1 -9.5 -2.5t-13 -4t-12.5 -3.5l3 -25l8 -26l-4 -17l12 -18h4l37 -23l4 -16l20 -19z" />
    <glyph glyph-name="Agrave" unicode="&#xc0;" horiz-adv-x="1488" 
d="M1462 -33q-1 -29 -16.5 -44.5t-50.5 -26.5l-78 36h-23l-26 21h-33l-25 41l-20 10l-27 47l-37 39v16l-16 15l-4 33l-27 24l-43 96l-18 23l-8 57l-27 35l-43 6l-47 -26l-10 10l-33 -21l-10 23q-10 -2 -31 -2q-23 0 -33 2h-16l-43 -23l-47 7h-8l-33 -19l-27 10q-36 0 -57 9
h-10l-54 -25l-20 22l-37 11l-8 -6q-45 -59 -66 -84l-33 -9q-76 -111 -98 -120l-8 -2l-66 -80h-8l-41 -64l-78 -43q-20 -4 -32 -4q-37 0 -74 29l25 51v31l8 10l4 41l63 8l17 10q13 8 19 16.5t9 26.5q22 6 31.5 14.5t13.5 26.5q31 15 47 35t25 55l35 13l51 75q-15 21 -24 58
l43 35v39l79 -7l21 11q9 35 41 49l4 39l43 22q3 1 10 4.5t12 5.5v13q0 18 9 33q23 17 33.5 35.5t11.5 47.5l28 7l11 18l14 2l39 74l10 -4l17 8v55h14q51 54 51 72l10 8l-10 31q49 58 80 61l39 33l45 -45l57 -31l6 -53q11 -13 17 -25q30 -38 33 -71l12 -51l31 -46l18 -67
l4 -33l37 -45l-8 -14l16 -15v-41l4 -30q-1 -5 -3.5 -13t-2.5 -10l10 -10q4 -4 13 -16q27 3 39 6h61q16 -4 25 -4q12 0 24 6q14 12 43 12q20 0 62 -20l61 -5q4 -16 4 -24q0 -32 -31 -47l-30 10l-58 -41l-47 6l-20 -10l-45 -4v8l-54 -12l-2 -12l4 -48l27 -36l4 -37l47 -66
l-4 -22l19 -19l49 -76l35 -34l8 -17l37 -18l14 -33zM956 563q-16 13 -16 43l-14 8l-11 84l-24 35l-6 35l-4 8h-15l-6 74l-18 27l-11 4l-6 8l-8 -15l-49 -61l-16 -35l-41 -37l-9 -36l-47 -21q-9 -61 -61 -88l-14 -41l-27 -27h18q38 -12 62 -12h8q12 6 25 6t32 -8l9 -2
q12 2 38 2q34 0 50 -2l71 8l47 -24q35 14 41 28q0 -1 1 -2t1 -2h-2l-22 23zM1006 1231l-33 -47l-70 18l-14 10q-7 7 -17 15q-35 3 -43 20q-5 0 -20 2.5t-27 3.5l-18 25q-16 12 -21 22q-11 4 -36 25q-33 13 -48 37l-20 20q-10 2 -17.5 7t-10 8t-8.5 12t-7 10l-2 6l-41 10
l-4 43l14 17l19 31l32 10l29 28l45 -20l29 -8l22 -31l41 -43l21 -37l22 -16l13 -25l26 -10l15 -20l28 -13l8 -10q15 -9 31 -25l6 -4q27 -13 33 -26z" />
    <glyph glyph-name="Aacute" unicode="&#xc1;" horiz-adv-x="1488" 
d="M1462 -33q-1 -29 -16.5 -44.5t-50.5 -26.5l-78 36h-23l-26 21h-33l-25 41l-20 10l-27 47l-37 39v16l-16 15l-4 33l-27 24l-43 96l-18 23l-8 57l-27 35l-43 6l-47 -26l-10 10l-33 -21l-10 23q-10 -2 -31 -2q-23 0 -33 2h-16l-43 -23l-47 7h-8l-33 -19l-27 10q-36 0 -57 9
h-10l-54 -25l-20 22l-37 11l-8 -6q-45 -59 -66 -84l-33 -9q-76 -111 -98 -120l-8 -2l-66 -80h-8l-41 -64l-78 -43q-20 -4 -32 -4q-37 0 -74 29l25 51v31l8 10l4 41l63 8l17 10q13 8 19 16.5t9 26.5q22 6 31.5 14.5t13.5 26.5q31 15 47 35t25 55l35 13l51 75q-15 21 -24 58
l43 35v39l79 -7l21 11q9 35 41 49l4 39l43 22q3 1 10 4.5t12 5.5v13q0 18 9 33q23 17 33.5 35.5t11.5 47.5l28 7l11 18l14 2l39 74l10 -4l17 8v55h14q51 54 51 72l10 8l-10 31q49 58 80 61l39 33l45 -45l57 -31l6 -53q11 -13 17 -25q30 -38 33 -71l12 -51l31 -46l18 -67
l4 -33l37 -45l-8 -14l16 -15v-41l4 -30q-1 -5 -3.5 -13t-2.5 -10l10 -10q4 -4 13 -16q27 3 39 6h61q16 -4 25 -4q12 0 24 6q14 12 43 12q20 0 62 -20l61 -5q4 -16 4 -24q0 -32 -31 -47l-30 10l-58 -41l-47 6l-20 -10l-45 -4v8l-54 -12l-2 -12l4 -48l27 -36l4 -37l47 -66
l-4 -22l19 -19l49 -76l35 -34l8 -17l37 -18l14 -33zM956 563q-16 13 -16 43l-14 8l-11 84l-24 35l-6 35l-4 8h-15l-6 74l-18 27l-11 4l-6 8l-8 -15l-49 -61l-16 -35l-41 -37l-9 -36l-47 -21q-9 -61 -61 -88l-14 -41l-27 -27h18q38 -12 62 -12h8q12 6 25 6t32 -8l9 -2
q12 2 38 2q34 0 50 -2l71 8l47 -24q35 14 41 28q0 -1 1 -2t1 -2h-2l-22 23zM1161 1505l-10 -24l-10 -50h-8q-27 0 -42.5 -9.5t-25.5 -33.5l-18 13l-68 -56h-6l-17 -18l5 -12l-37 -13v-12l-31 -10l-12 -17l-9 -24l-10 -4v-13l-37 -12l-53 -45l-76 49l29 56l10 34l47 21l29 43
l14 2l11 14v21l26 26l23 -14q25 29 33 45q36 19 38 31q6 27 39 41l31 28l43 5l19 -5q66 -12 73 -57z" />
    <glyph glyph-name="Acircumflex" unicode="&#xc2;" horiz-adv-x="1488" 
d="M1462 -33q-1 -29 -16.5 -44.5t-50.5 -26.5l-78 36h-23l-26 21h-33l-25 41l-20 10l-27 47l-37 39v16l-16 15l-4 33l-27 24l-43 96l-18 23l-8 57l-27 35l-43 6l-47 -26l-10 10l-33 -21l-10 23q-10 -2 -31 -2q-23 0 -33 2h-16l-43 -23l-47 7h-8l-33 -19l-27 10q-36 0 -57 9
h-10l-54 -25l-20 22l-37 11l-8 -6q-45 -59 -66 -84l-33 -9q-76 -111 -98 -120l-8 -2l-66 -80h-8l-41 -64l-78 -43q-20 -4 -32 -4q-37 0 -74 29l25 51v31l8 10l4 41l63 8l17 10q13 8 19 16.5t9 26.5q22 6 31.5 14.5t13.5 26.5q31 15 47 35t25 55l35 13l51 75q-15 21 -24 58
l43 35v39l79 -7l21 11q9 35 41 49l4 39l43 22q3 1 10 4.5t12 5.5v13q0 18 9 33q23 17 33.5 35.5t11.5 47.5l28 7l11 18l14 2l39 74l10 -4l17 8v55h14q51 54 51 72l10 8l-10 31q49 58 80 61l39 33l45 -45l57 -31l6 -53q11 -13 17 -25q30 -38 33 -71l12 -51l31 -46l18 -67
l4 -33l37 -45l-8 -14l16 -15v-41l4 -30q-1 -5 -3.5 -13t-2.5 -10l10 -10q4 -4 13 -16q27 3 39 6h61q16 -4 25 -4q12 0 24 6q14 12 43 12q20 0 62 -20l61 -5q4 -16 4 -24q0 -32 -31 -47l-30 10l-58 -41l-47 6l-20 -10l-45 -4v8l-54 -12l-2 -12l4 -48l27 -36l4 -37l47 -66
l-4 -22l19 -19l49 -76l35 -34l8 -17l37 -18l14 -33zM956 563q-16 13 -16 43l-14 8l-11 84l-24 35l-6 35l-4 8h-15l-6 74l-18 27l-11 4l-6 8l-8 -15l-49 -61l-16 -35l-41 -37l-9 -36l-47 -21q-9 -61 -61 -88l-14 -41l-27 -27h18q38 -12 62 -12h8q12 6 25 6t32 -8l9 -2
q12 2 38 2q34 0 50 -2l71 8l47 -24q35 14 41 28q0 -1 1 -2t1 -2h-2l-22 23zM1217 1233l-39 -33l-41 -14l-70 10q-47 23 -78 65q-35 6 -47 35l-12 8l-27 27l-33 18v19l-24 24l2 7l-6 10l-10 -21l-17 -4v-6l-8 -4v-6l-41 -31v-16l-33 -10l-8 -15l-10 -6l-6 -6l-29 -16l6 2
q-12 -12 -20 -17l-13 -4l-22 -29l-21 -14l-37 -43l-75 51q0 52 43 70l4 12h6v6l10 2l17 9q20 33 73 77l4 11l13 4l4 6l24 20q37 15 37 21q0 2 -10 2q0 21 35 33q8 6 14 28q11 9 31 47l18 -4q19 15 45 15h9l36 -4l25 -45l35 -41l4 -9l20 -12l7 -24l20 -17q3 -13 16 -29
q17 -3 23 -18l41 -33v-22l16 -8l15 -15l30 -10z" />
    <glyph glyph-name="Atilde" unicode="&#xc3;" horiz-adv-x="1488" 
d="M1462 -33q-1 -29 -16.5 -44.5t-50.5 -26.5l-78 36h-23l-26 21h-33l-25 41l-20 10l-27 47l-37 39v16l-16 15l-4 33l-27 24l-43 96l-18 23l-8 57l-27 35l-43 6l-47 -26l-10 10l-33 -21l-10 23q-10 -2 -31 -2q-23 0 -33 2h-16l-43 -23l-47 7h-8l-33 -19l-27 10q-36 0 -57 9
h-10l-54 -25l-20 22l-37 11l-8 -6q-45 -59 -66 -84l-33 -9q-76 -111 -98 -120l-8 -2l-66 -80h-8l-41 -64l-78 -43q-20 -4 -32 -4q-37 0 -74 29l25 51v31l8 10l4 41l63 8l17 10q13 8 19 16.5t9 26.5q22 6 31.5 14.5t13.5 26.5q31 15 47 35t25 55l35 13l51 75q-15 21 -24 58
l43 35v39l79 -7l21 11q9 35 41 49l4 39l43 22q3 1 10 4.5t12 5.5v13q0 18 9 33q23 17 33.5 35.5t11.5 47.5l28 7l11 18l14 2l39 74l10 -4l17 8v55h14q51 54 51 72l10 8l-10 31q49 58 80 61l39 33l45 -45l57 -31l6 -53q11 -13 17 -25q30 -38 33 -71l12 -51l31 -46l18 -67
l4 -33l37 -45l-8 -14l16 -15v-41l4 -30q-1 -5 -3.5 -13t-2.5 -10l10 -10q4 -4 13 -16q27 3 39 6h61q16 -4 25 -4q12 0 24 6q14 12 43 12q20 0 62 -20l61 -5q4 -16 4 -24q0 -32 -31 -47l-30 10l-58 -41l-47 6l-20 -10l-45 -4v8l-54 -12l-2 -12l4 -48l27 -36l4 -37l47 -66
l-4 -22l19 -19l49 -76l35 -34l8 -17l37 -18l14 -33zM956 563q-16 13 -16 43l-14 8l-11 84l-24 35l-6 35l-4 8h-15l-6 74l-18 27l-11 4l-6 8l-8 -15l-49 -61l-16 -35l-41 -37l-9 -36l-47 -21q-9 -61 -61 -88l-14 -41l-27 -27h18q38 -12 62 -12h8q12 6 25 6t32 -8l9 -2
q12 2 38 2q34 0 50 -2l71 8l47 -24q35 14 41 28q0 -1 1 -2t1 -2h-2l-22 23zM1184 1368q-4 -25 -10 -31v-10q0 -11 -9 -23l-37 -26l-40 -8l-13 -15l-12 -16l-51 -14l-62 -11l-84 31q-8 8 -8 10v2l-55 31l-2 29l-15 -6v24q-12 6 -30 6l-45 -28q-21 -14 -29 -27
q-25 -41 -44 -54.5t-52 -13.5q-1 0 -37 4q-33 38 -33 56q0 29 45 55l27 29l22 10q13 15 45 35l15 2q26 10 49 37l45 8l22 -4l9 2q23 -30 53 -39l24 -14l31 -41l37 -19l4 -10l62 10l8 33v27l20 36q4 7 21 16t33 9q30 0 61 -28t35 -64z" />
    <glyph glyph-name="Adieresis" unicode="&#xc4;" horiz-adv-x="1488" 
d="M1462 -33q-1 -29 -16.5 -44.5t-50.5 -26.5l-78 36h-23l-26 21h-33l-25 41l-20 10l-27 47l-37 39v16l-16 15l-4 33l-27 24l-43 96l-18 23l-8 57l-27 35l-43 6l-47 -26l-10 10l-33 -21l-10 23q-10 -2 -31 -2q-23 0 -33 2h-16l-43 -23l-47 7h-8l-33 -19l-27 10q-36 0 -57 9
h-10l-54 -25l-20 22l-37 11l-8 -6q-45 -59 -66 -84l-33 -9q-76 -111 -98 -120l-8 -2l-66 -80h-8l-41 -64l-78 -43q-20 -4 -32 -4q-37 0 -74 29l25 51v31l8 10l4 41l63 8l17 10q13 8 19 16.5t9 26.5q22 6 31.5 14.5t13.5 26.5q31 15 47 35t25 55l35 13l51 75q-15 21 -24 58
l43 35v39l79 -7l21 11q9 35 41 49l4 39l43 22q3 1 10 4.5t12 5.5v13q0 18 9 33q23 17 33.5 35.5t11.5 47.5l28 7l11 18l14 2l39 74l10 -4l17 8v55h14q51 54 51 72l10 8l-10 31q49 58 80 61l39 33l45 -45l57 -31l6 -53q11 -13 17 -25q30 -38 33 -71l12 -51l31 -46l18 -67
l4 -33l37 -45l-8 -14l16 -15v-41l4 -30q-1 -5 -3.5 -13t-2.5 -10l10 -10q4 -4 13 -16q27 3 39 6h61q16 -4 25 -4q12 0 24 6q14 12 43 12q20 0 62 -20l61 -5q4 -16 4 -24q0 -32 -31 -47l-30 10l-58 -41l-47 6l-20 -10l-45 -4v8l-54 -12l-2 -12l4 -48l27 -36l4 -37l47 -66
l-4 -22l19 -19l49 -76l35 -34l8 -17l37 -18l14 -33zM956 563q-16 13 -16 43l-14 8l-11 84l-24 35l-6 35l-4 8h-15l-6 74l-18 27l-11 4l-6 8l-8 -15l-49 -61l-16 -35l-41 -37l-9 -36l-47 -21q-9 -61 -61 -88l-14 -41l-27 -27h18q38 -12 62 -12h8q12 6 25 6t32 -8l9 -2
q12 2 38 2q34 0 50 -2l71 8l47 -24q35 14 41 28q0 -1 1 -2t1 -2h-2l-22 23zM1137 1323l-27 -58l-14 -4l-2 -8l-17 -8q-11 -14 -16 -14h-4l-29 -15l-8 9l-37 -13q-8 18 -42 36.5t-38 41.5l-8 45l12 12l-4 11l25 24v4q1 1 2.5 3.5t4 5t5.5 4.5q1 2 4 3.5l8 4l9 4.5
q10 16 34 16q15 0 25 -4l10 -6h37l25 -29l26 -12v-14l15 -8l-7 -23zM813 1325l-12 -8l6 -23l-12 -6v-14l-29 -13l-25 -28l-34 -2l-19 -4l4 2q-21 -7 -30 -7q-22 0 -31 19q-5 0 -15 10l-14 8q4 4 4 6v5h-8l-8 4l-12 16l6 12l-17 23l11 33q15 36 49 49l8 8q1 1 4 3.5t9.5 8
t13.5 11.5l32 -13l17 6l12 -12q19 0 33 -20l28 -15z" />
    <glyph glyph-name="Aring" unicode="&#xc5;" horiz-adv-x="1488" 
d="M1462 -33q-1 -29 -16.5 -44.5t-50.5 -26.5l-78 36h-23l-26 21h-33l-25 41l-20 10l-27 47l-37 39v16l-16 15l-4 33l-27 24l-43 96l-18 23l-8 57l-27 35l-43 6l-47 -26l-10 10l-33 -21l-10 23q-10 -2 -31 -2q-23 0 -33 2h-16l-43 -23l-47 7h-8l-33 -19l-27 10q-36 0 -57 9
h-10l-54 -25l-20 22l-37 11l-8 -6q-45 -59 -66 -84l-33 -9q-76 -111 -98 -120l-8 -2l-66 -80h-8l-41 -64l-78 -43q-20 -4 -32 -4q-37 0 -74 29l25 51v31l8 10l4 41l63 8l17 10q13 8 19 16.5t9 26.5q22 6 31.5 14.5t13.5 26.5q31 15 47 35t25 55l35 13l51 75q-15 21 -24 58
l43 35v39l79 -7l21 11q9 35 41 49l4 39l43 22q3 1 10 4.5t12 5.5v13q0 18 9 33q23 17 33.5 35.5t11.5 47.5l28 7l11 18l14 2l39 74l10 -4l17 8v55h14q51 54 51 72l10 8l-10 31q49 58 80 61l39 33l45 -45l57 -31l6 -53q11 -13 17 -25q30 -38 33 -71l12 -51l31 -46l18 -67
l4 -33l37 -45l-8 -14l16 -15v-41l4 -30q-1 -5 -3.5 -13t-2.5 -10l10 -10q4 -4 13 -16q27 3 39 6h61q16 -4 25 -4q12 0 24 6q14 12 43 12q20 0 62 -20l61 -5q4 -16 4 -24q0 -32 -31 -47l-30 10l-58 -41l-47 6l-20 -10l-45 -4v8l-54 -12l-2 -12l4 -48l27 -36l4 -37l47 -66
l-4 -22l19 -19l49 -76l35 -34l8 -17l37 -18l14 -33zM956 563q-16 13 -16 43l-14 8l-11 84l-24 35l-6 35l-4 8h-15l-6 74l-18 27l-11 4l-6 8l-8 -15l-49 -61l-16 -35l-41 -37l-9 -36l-47 -21q-9 -61 -61 -88l-14 -41l-27 -27h18q38 -12 62 -12h8q12 6 25 6t32 -8l9 -2
q12 2 38 2q34 0 50 -2l71 8l47 -24q35 14 41 28q0 -1 1 -2t1 -2h-2l-22 23zM1049 1421q12 -27 12 -53q0 -56 -98 -117l-11 -2q-25 -31 -65 -31h-6q-50 -12 -58 -12q-10 0 -22 12q-15 -6 -33 -6q-17 0 -35 6l-55 19q-3 36 -12 45q-17 20 -17 45v10l4 -4l-10 27l10 80v14l4 8
l15 8q6 45 41 51q15 12 33 15l20 20l43 11l25 -3h12q20 0 33 -8h10q3 0 13 -4t29 -10.5t38 -11.5l26 -33l47 -43zM930 1378q-3 11 -7 22t-6 16t-2 7l-2 10q-23 13 -38 31q-4 -2 -15 -2q-16 0 -35 -22l-2 -17l-43 -10l-10 -14l-6 -33l2 -45l10 -10l31 6l22 -9h21l45 27l20 -4
h7l6 10l-10 27z" />
    <glyph glyph-name="AE" unicode="&#xc6;" horiz-adv-x="2265" 
d="M2085 379q36 31 72 31q26 0 43.5 -18.5t17.5 -45.5q0 -38 -39 -57q-14 -31 -57 -39l-8 2q-24 -10 -52.5 -24.5t-45 -21.5t-27.5 -9l-19 -17h-31l-18 -16l-35 -2l-37 -19q-10 0 -18 -4l-4 8l-12 -20q-3 0 -9 1l-6 1q-4 0 -4 -2l2 -2q-23 -20 -47 -23l-29 -2l-28 -10
l-17 -16l-37 2l-8 -8h-49q-23 -5 -57 -29l-53 6l-31 -4l-43 8l-29 10l-102 47l-62 78l-28 68l-21 106v91q0 10 -6 10l-29 -8l-84 2l-59 -17l-47 -6l-23 6l-35 -14l-28 6l-43 -14l-4 4l-6 -2l-50 6l-24 -14l-31 10q-12 -2 -37 -2l-24 -10l-23 -7l-45 -28l-47 -33l-37 -19
l-82 -53l-45 -35l-106 -57l-33 -31l-76 -47l-63 -57l-31 -12l-8 -15q-21 -12 -39 -12q-52 0 -55 86l36 27l17 16l33 39q18 21 34 29q2 12 10 18.5t22 13t22 13.5l18 24l31 13l10 12l16 2l17 22q27 8 61 25l25 27l33 10q10 30 34 33l9 2l10 2l26 28l29 11q31 24 47 32
q39 36 39 37h-2q-6 -4 -16 -12l45 12l43 47l41 9l28 30h13l10 21l88 47q6 1 21.5 16.5t31.5 24.5l35 28l33 13q29 22 43 24h6q49 49 90 49q18 22 26 31.5t20.5 20t23.5 14.5l14 12l31 19l16 24l27 9l33 24l18 12l4 23l33 43h24q54 45 80 45h15q13 0 21.5 -7.5t19.5 -27.5
l22 -6l90 8h37l51 15l29 -9l55 4l29 -10q11 4 37 8l45 4l14 9q24 -3 58.5 -6.5t50.5 -5.5t32 -7.5t23 -15.5l49 4l17 -21q40 -17 40 -61v-8l-81 -39q-22 16 -33 22l-33 -10l-29 8l-41 -14l-47 6l-14 -8l-49 -2l-37 -12l-105 -4l-49 4h-24l-19 -11l-51 -8l-18 8l-33 -8l-18 8
q-11 -11 -11 -16q0 -2 2 -5.5t2 -6.5v-2l-14 -62l-12 -26l-8 -37l-11 -17l-14 -63l-16 -53l-2 -15h22l43 -6h27l49 12l24 -6l19 9l39 -9q2 0 24 13q36 -9 43 -9q14 0 37 9q31 10 88 10l-2 2q0 4 41 4l27 -2q15 6 28 6h11l6 6l57 -12l23 8l47 8l55 -6q79 0 82 -61
q-16 -31 -39.5 -47.5t-44.5 -16.5q-3 0 -6 6q-12 -4 -18 -4q-3 0 -8 1t-7 1h-22l-17 -14l-43 2l-39 -16l-32 12l-29 -6q-21 -18 -37 -21l-78 2q-12 -4 -33 -4l-6 2l-49 -4l-33 2l-39 -14l-26 4l-8 -2h-31q-13 -10 -39 -10l-29 6q-12 -4 -22 -6l-51 2l-33 -6l-2 -11
q-2 -14 -2 -38q0 -85 33 -158h-5l35 -29l31 -4l33 -22h30l35 10h68l76 16l37 12l20 5q30 24 61 24h7q19 9 43 12l71 33l43 6l29 15l18 4q19 14 50 24q20 20 57 23zM1245 840l-43 -15l-20 -39q-11 -16 -37 -26l-33 -25l-25 -24l-16 -6l-4 -5q-1 -1 -5.5 -5t-6 -5t-5.5 -3.5
t-7.5 -3.5t-8 -2t-10.5 -1l-16 -23l-37 -22l-39 -23l-41 -34l-23 -9h47l76 15l88 4l58 6l45 4l2 4q2 10 2 39l12 16l14 64q2 9 10.5 36.5t8.5 41.5z" />
    <glyph glyph-name="Ccedilla" unicode="&#xc7;" horiz-adv-x="1288" 
d="M1282 311q-6 -57 -65 -69l-13 -25l-69 -45l-17 -22l-35 -31q-23 -4 -47 -10q-56 -56 -127 -74l-39 -21q-12 -8 -47 -8q-33 0 -63 -20l-39 -29l-39 8q-38 -10 -61 -10q-26 -12 -41 -30.5t-17 -37.5h12q23 0 37 11q21 6 29 6q24 0 49 -19l27 -2l14 -16l27 -6l61 -105
l-16 -53l-2 -55l-35 -37l-10 -12l-27 -11l-20 -28q-36 0 -64 -4q-24 -17 -43 -17q-8 0 -24 4l-70 8l-76 23l-16 45l4 49q21 15 47 15q7 0 27 -5l14 -14l22 2q7 0 27 -4q16 -8 18 -8q16 8 25 8l4 6h29q19 8 24 8l5 23l10 16q-17 14 -17 29q0 12 9 27q-10 -7 -19 -7q-3 0 -9 2
l-16.5 5.5t-19.5 5.5l-37 -15l-6 5l-16 -19l-60 -2l-16 10l-29 -2l-20 33l12 53l23 31q22 35 32 45l-2 16l17 25l-45 -2l-25 10l-20 -8l-62 25l-27 20l-51 12l-10 25l-27 6q-36 9 -45 51l2 6q-20 25 -38 74q-18 6 -36 43t-18 76v53q-8 18 -8 55l10 33v49l17 11l2 12l26 94
l27 60l16 43q6 27 26.5 56t20.5 40q0 13 -10 26l41 21q10 13 29 29l8 47l31 14l10 41q34 1 66 31t49 34l16 17l53 14l33 21l37 -21q48 10 61 10h23l12 -4q2 -1 5.5 -1.5t9 -1t10.5 -1.5q51 -22 98 -33l27 -24l121 -68l14 -30l20 -19l15 -43l12 -31l8 -38l-2 -46v-8
q0 -4 -4 -20q-1 -13 -6.5 -27t-17 -35.5t-17.5 -33.5q-21 -15 -51 -15q-17 0 -27 2l-41 29l-22 29l-10 36l-5 39l5 35l-5 41l2 29l-12 22l-31 23q-33 10 -46.5 16.5t-14.5 16.5h-39l-16 14l-27 -16l-22 16l-11 -8l-24 4l-23 -12l-41 2l-26 -35l-58 -55l-49 -68l-10 -4
l-14 -45l-25 -19v-18l-39 -59l-18 -84l2 -9l-19 -32l8 -33l-18 -19v-10l-8 -6l2 -57l-8 -47l16 -25l4 -14l19 -17v-28l22 -31l-8 -16l29 -29l2 -10l73 -27l-2 -14l54 -4l20 -17l47 14l23 -26l12 6q22 16 45 16q9 0 25 -4l26 4l15 -10l18 4q11 0 31 4q21 27 71 27
q19 16 58 16q23 19 59 31q19 0 39 10l16 27l31 8l29 12l24 29l78 47l68 76l47 31l43 -25v4q6 0 6 -47q0 -5 -6 -20z" />
    <glyph glyph-name="Egrave" unicode="&#xc8;" horiz-adv-x="1271" 
d="M1241 688v-18q0 -46 -29 -86q-59 -23 -92 -23q-14 0 -20 2l-7.5 2.5t-8 2.5t-5.5 1l-53 -26l-49 4l-29 -10l-14 4l-37 -21l-31 10q-55 0 -88 -2l8 2l-36 -12h-7l-14 -12l-29 8l-16 -14l-45 18l-27 -16q-51 14 -57 14q-23 0 -55 -14l-92 -8l-9 4l-34 -6l-3 -9l21 -102
l-8 -10l8 -21l-2 -26q10 -30 14 -62l25 -24l-4 -13l41 -51q64 -45 96 -45h4q3 0 9.5 1t8.5 1q8 0 23 -6l18 2q62 13 76 14l23 13l4 8l14 2l17 10l10 -6l33 10l26 17l10 14l35 27l27 4l49 36q33 6 47 23t27 59l6 -2l2 6l27 3l38 32l15 2q6 2 14 2q22 0 32 -17.5t15 -57.5
l-90 -107l-22 -6l-9 -12l-38 -41l-56 -33l-45 -43l-14 2l-17 -16l-92 -35l-37 -41l-26 10l-10 -18l-19 6l-10 -10l-68 12l-69 -29l-70 23l-88 41q-61 30 -102.5 102t-71.5 193l2 22l-18 47l18 21l-12 57l-2 18l-35 39v25q0 61 33 82q6 18 22 31l-4 6v57l-6 29l26 65l7 33
l-21 -2h-8q-29 0 -49.5 19.5t-20.5 46.5q0 30 39 69l15 15l18 8q33 14 51 14h10q4 2 21 2h8l21 33l92 -6l6 -6q18 4 55 4l41 10h10q27 8 52 33l30 -17h11q10 0 23.5 -2t17.5 -2l204 19l21 -9l28 7l17 16l41 -23l14 11l45 -19l31 8l16 -10l66 6l14 -10l33 -6
q22 -4 34.5 -16.5t12.5 -28.5q0 -24 -17 -43t-36 -19h-8l-23 -12l-41 12l-18 -2q-6 -2 -17 -2q-19 0 -37 9l-6 8q-20 -4 -26 -4q-9 0 -21 4q-21 -16 -76 -25q-28 0 -63 2q0 3 8 15l-53 -15q-2 2 -4 2q-15 0 -53 -32l-27 12l-12 -8l-50 14l-28 -14h-41l-62 -13l-51 -22l-14 8
l-27 -18h-26l-7 -11l7 -24l-35 -41l16 -2v-58l23 -24l-19 -17q-20 -36 -20 -47q0 -9 12 -12l25 8q10 2 20 2q32 -3 45 -8l37 14l33 -10l18 4l23 -2l33 6q16 -4 26 -4q7 0 33 15q18 -9 47 -9q3 0 14 1t17 1h4l-8 3h6q2 0 74 -7q23 4 63 4q27 3 41 3q16 0 59 -3l19 3
q29 16 53 16q19 0 37 -6l29 6l24 -10zM893 1231l-33 -47l-70 18l-14 10q-7 7 -17 15q-35 3 -43 20q-5 0 -20 2.5t-27 3.5l-18 25q-16 12 -21 22q-11 4 -36 25q-33 13 -48 37l-20 20q-10 2 -17.5 7t-10 8t-8.5 12t-7 10l-2 6l-41 10l-4 43l14 17l19 31l32 10l29 28l45 -20
l29 -8l22 -31l41 -43l21 -37l22 -16l13 -25l26 -10l15 -20l28 -13l8 -10q15 -9 31 -25l6 -4q27 -13 33 -26z" />
    <glyph glyph-name="Eacute" unicode="&#xc9;" horiz-adv-x="1271" 
d="M1241 688v-18q0 -46 -29 -86q-59 -23 -92 -23q-14 0 -20 2l-7.5 2.5t-8 2.5t-5.5 1l-53 -26l-49 4l-29 -10l-14 4l-37 -21l-31 10q-55 0 -88 -2l8 2l-36 -12h-7l-14 -12l-29 8l-16 -14l-45 18l-27 -16q-51 14 -57 14q-23 0 -55 -14l-92 -8l-9 4l-34 -6l-3 -9l21 -102
l-8 -10l8 -21l-2 -26q10 -30 14 -62l25 -24l-4 -13l41 -51q64 -45 96 -45h4q3 0 9.5 1t8.5 1q8 0 23 -6l18 2q62 13 76 14l23 13l4 8l14 2l17 10l10 -6l33 10l26 17l10 14l35 27l27 4l49 36q33 6 47 23t27 59l6 -2l2 6l27 3l38 32l15 2q6 2 14 2q22 0 32 -17.5t15 -57.5
l-90 -107l-22 -6l-9 -12l-38 -41l-56 -33l-45 -43l-14 2l-17 -16l-92 -35l-37 -41l-26 10l-10 -18l-19 6l-10 -10l-68 12l-69 -29l-70 23l-88 41q-61 30 -102.5 102t-71.5 193l2 22l-18 47l18 21l-12 57l-2 18l-35 39v25q0 61 33 82q6 18 22 31l-4 6v57l-6 29l26 65l7 33
l-21 -2h-8q-29 0 -49.5 19.5t-20.5 46.5q0 30 39 69l15 15l18 8q33 14 51 14h10q4 2 21 2h8l21 33l92 -6l6 -6q18 4 55 4l41 10h10q27 8 52 33l30 -17h11q10 0 23.5 -2t17.5 -2l204 19l21 -9l28 7l17 16l41 -23l14 11l45 -19l31 8l16 -10l66 6l14 -10l33 -6
q22 -4 34.5 -16.5t12.5 -28.5q0 -24 -17 -43t-36 -19h-8l-23 -12l-41 12l-18 -2q-6 -2 -17 -2q-19 0 -37 9l-6 8q-20 -4 -26 -4q-9 0 -21 4q-21 -16 -76 -25q-28 0 -63 2q0 3 8 15l-53 -15q-2 2 -4 2q-15 0 -53 -32l-27 12l-12 -8l-50 14l-28 -14h-41l-62 -13l-51 -22l-14 8
l-27 -18h-26l-7 -11l7 -24l-35 -41l16 -2v-58l23 -24l-19 -17q-20 -36 -20 -47q0 -9 12 -12l25 8q10 2 20 2q32 -3 45 -8l37 14l33 -10l18 4l23 -2l33 6q16 -4 26 -4q7 0 33 15q18 -9 47 -9q3 0 14 1t17 1h4l-8 3h6q2 0 74 -7q23 4 63 4q27 3 41 3q16 0 59 -3l19 3
q29 16 53 16q19 0 37 -6l29 6l24 -10zM1048 1505l-10 -24l-10 -50h-8q-27 0 -42.5 -9.5t-25.5 -33.5l-18 13l-68 -56h-6l-17 -18l5 -12l-37 -13v-12l-31 -10l-12 -17l-9 -24l-10 -4v-13l-37 -12l-53 -45l-76 49l29 56l10 34l47 21l29 43l14 2l11 14v21l26 26l23 -14
q25 29 33 45q36 19 38 31q6 27 39 41l31 28l43 5l19 -5q66 -12 73 -57z" />
    <glyph glyph-name="Ecircumflex" unicode="&#xca;" horiz-adv-x="1271" 
d="M1241 688v-18q0 -46 -29 -86q-59 -23 -92 -23q-14 0 -20 2l-7.5 2.5t-8 2.5t-5.5 1l-53 -26l-49 4l-29 -10l-14 4l-37 -21l-31 10q-55 0 -88 -2l8 2l-36 -12h-7l-14 -12l-29 8l-16 -14l-45 18l-27 -16q-51 14 -57 14q-23 0 -55 -14l-92 -8l-9 4l-34 -6l-3 -9l21 -102
l-8 -10l8 -21l-2 -26q10 -30 14 -62l25 -24l-4 -13l41 -51q64 -45 96 -45h4q3 0 9.5 1t8.5 1q8 0 23 -6l18 2q62 13 76 14l23 13l4 8l14 2l17 10l10 -6l33 10l26 17l10 14l35 27l27 4l49 36q33 6 47 23t27 59l6 -2l2 6l27 3l38 32l15 2q6 2 14 2q22 0 32 -17.5t15 -57.5
l-90 -107l-22 -6l-9 -12l-38 -41l-56 -33l-45 -43l-14 2l-17 -16l-92 -35l-37 -41l-26 10l-10 -18l-19 6l-10 -10l-68 12l-69 -29l-70 23l-88 41q-61 30 -102.5 102t-71.5 193l2 22l-18 47l18 21l-12 57l-2 18l-35 39v25q0 61 33 82q6 18 22 31l-4 6v57l-6 29l26 65l7 33
l-21 -2h-8q-29 0 -49.5 19.5t-20.5 46.5q0 30 39 69l15 15l18 8q33 14 51 14h10q4 2 21 2h8l21 33l92 -6l6 -6q18 4 55 4l41 10h10q27 8 52 33l30 -17h11q10 0 23.5 -2t17.5 -2l204 19l21 -9l28 7l17 16l41 -23l14 11l45 -19l31 8l16 -10l66 6l14 -10l33 -6
q22 -4 34.5 -16.5t12.5 -28.5q0 -24 -17 -43t-36 -19h-8l-23 -12l-41 12l-18 -2q-6 -2 -17 -2q-19 0 -37 9l-6 8q-20 -4 -26 -4q-9 0 -21 4q-21 -16 -76 -25q-28 0 -63 2q0 3 8 15l-53 -15q-2 2 -4 2q-15 0 -53 -32l-27 12l-12 -8l-50 14l-28 -14h-41l-62 -13l-51 -22l-14 8
l-27 -18h-26l-7 -11l7 -24l-35 -41l16 -2v-58l23 -24l-19 -17q-20 -36 -20 -47q0 -9 12 -12l25 8q10 2 20 2q32 -3 45 -8l37 14l33 -10l18 4l23 -2l33 6q16 -4 26 -4q7 0 33 15q18 -9 47 -9q3 0 14 1t17 1h4l-8 3h6q2 0 74 -7q23 4 63 4q27 3 41 3q16 0 59 -3l19 3
q29 16 53 16q19 0 37 -6l29 6l24 -10zM1104 1233l-39 -33l-41 -14l-70 10q-47 23 -78 65q-35 6 -47 35l-12 8l-27 27l-33 18v19l-24 24l2 7l-6 10l-10 -21l-17 -4v-6l-8 -4v-6l-41 -31v-16l-33 -10l-8 -15l-10 -6l-6 -6l-29 -16l6 2q-12 -12 -20 -17l-13 -4l-22 -29l-21 -14
l-37 -43l-75 51q0 52 43 70l4 12h6v6l10 2l17 9q20 33 73 77l4 11l13 4l4 6l24 20q37 15 37 21q0 2 -10 2q0 21 35 33q8 6 14 28q11 9 31 47l18 -4q19 15 45 15h9l36 -4l25 -45l35 -41l4 -9l20 -12l7 -24l20 -17q3 -13 16 -29q17 -3 23 -18l41 -33v-22l16 -8l15 -15l30 -10z
" />
    <glyph glyph-name="Edieresis" unicode="&#xcb;" horiz-adv-x="1271" 
d="M1241 688v-18q0 -46 -29 -86q-59 -23 -92 -23q-14 0 -20 2l-7.5 2.5t-8 2.5t-5.5 1l-53 -26l-49 4l-29 -10l-14 4l-37 -21l-31 10q-55 0 -88 -2l8 2l-36 -12h-7l-14 -12l-29 8l-16 -14l-45 18l-27 -16q-51 14 -57 14q-23 0 -55 -14l-92 -8l-9 4l-34 -6l-3 -9l21 -102
l-8 -10l8 -21l-2 -26q10 -30 14 -62l25 -24l-4 -13l41 -51q64 -45 96 -45h4q3 0 9.5 1t8.5 1q8 0 23 -6l18 2q62 13 76 14l23 13l4 8l14 2l17 10l10 -6l33 10l26 17l10 14l35 27l27 4l49 36q33 6 47 23t27 59l6 -2l2 6l27 3l38 32l15 2q6 2 14 2q22 0 32 -17.5t15 -57.5
l-90 -107l-22 -6l-9 -12l-38 -41l-56 -33l-45 -43l-14 2l-17 -16l-92 -35l-37 -41l-26 10l-10 -18l-19 6l-10 -10l-68 12l-69 -29l-70 23l-88 41q-61 30 -102.5 102t-71.5 193l2 22l-18 47l18 21l-12 57l-2 18l-35 39v25q0 61 33 82q6 18 22 31l-4 6v57l-6 29l26 65l7 33
l-21 -2h-8q-29 0 -49.5 19.5t-20.5 46.5q0 30 39 69l15 15l18 8q33 14 51 14h10q4 2 21 2h8l21 33l92 -6l6 -6q18 4 55 4l41 10h10q27 8 52 33l30 -17h11q10 0 23.5 -2t17.5 -2l204 19l21 -9l28 7l17 16l41 -23l14 11l45 -19l31 8l16 -10l66 6l14 -10l33 -6
q22 -4 34.5 -16.5t12.5 -28.5q0 -24 -17 -43t-36 -19h-8l-23 -12l-41 12l-18 -2q-6 -2 -17 -2q-19 0 -37 9l-6 8q-20 -4 -26 -4q-9 0 -21 4q-21 -16 -76 -25q-28 0 -63 2q0 3 8 15l-53 -15q-2 2 -4 2q-15 0 -53 -32l-27 12l-12 -8l-50 14l-28 -14h-41l-62 -13l-51 -22l-14 8
l-27 -18h-26l-7 -11l7 -24l-35 -41l16 -2v-58l23 -24l-19 -17q-20 -36 -20 -47q0 -9 12 -12l25 8q10 2 20 2q32 -3 45 -8l37 14l33 -10l18 4l23 -2l33 6q16 -4 26 -4q7 0 33 15q18 -9 47 -9q3 0 14 1t17 1h4l-8 3h6q2 0 74 -7q23 4 63 4q27 3 41 3q16 0 59 -3l19 3
q29 16 53 16q19 0 37 -6l29 6l24 -10zM1024 1323l-27 -58l-14 -4l-2 -8l-17 -8q-11 -14 -16 -14h-4l-29 -15l-8 9l-37 -13q-8 18 -42 36.5t-38 41.5l-8 45l12 12l-4 11l25 24v4q1 1 2.5 3.5t4 5t5.5 4.5q1 2 4 3.5l8 4l9 4.5q10 16 34 16q15 0 25 -4l10 -6h37l25 -29l26 -12
v-14l15 -8l-7 -23zM700 1325l-12 -8l6 -23l-12 -6v-14l-29 -13l-25 -28l-34 -2l-19 -4l4 2q-21 -7 -30 -7q-22 0 -31 19q-5 0 -15 10l-14 8q4 4 4 6v5h-8l-8 4l-12 16l6 12l-17 23l11 33q15 36 49 49l8 8q1 1 4 3.5t9.5 8t13.5 11.5l32 -13l17 6l12 -12q19 0 33 -20l28 -15z
" />
    <glyph glyph-name="Igrave" unicode="&#xcc;" horiz-adv-x="571" 
d="M408 969l-7 -2l-12 -78l2 -45l8 -6l-20 -47l4 -35l-18 -39l-15 -43q6 -12 6 -27q0 -18 -8 -31l19 -69h-25l-2 -4l14 -29l-14 -55h-6l-10 -41q10 0 14 2l-6 -41l14 -37l-14 -29l2 -63l-6 -27q18 -21 18 -39q0 -13 -9 -27.5t-9 -17.5q0 -1 7 -5.5t20.5 -16t25.5 -27.5
l-25 -20l31 -17q-9 -82 -59 -82q-53 0 -68 45l-10 15q-33 46 -33 63l-41 43l19 21l-13 16l4 43l-4 14q-6 18 -6 33q0 12 6 27l-4 16l-2 66l6 8l-4 117l17 98l-9 102l7 11l-11 6l13 41v14l-15 2l10 45q-24 27 -30 80h26l25 61l4 -4l12 33l-10 -12v55h35l6 19l39 14
q51 -3 80 -16q31 -27 31 -68v-10zM488 1231l-33 -47l-70 18l-14 10q-7 7 -17 15q-35 3 -43 20q-5 0 -20 2.5t-27 3.5l-18 25q-16 12 -21 22q-11 4 -36 25q-33 13 -48 37l-20 20q-10 2 -17.5 7t-10 8t-8.5 12t-7 10l-2 6l-41 10l-4 43l14 17l19 31l32 10l29 28l45 -20l29 -8
l22 -31l41 -43l21 -37l22 -16l13 -25l26 -10l15 -20l28 -13l8 -10q15 -9 31 -25l6 -4q27 -13 33 -26z" />
    <glyph glyph-name="Iacute" unicode="&#xcd;" horiz-adv-x="571" 
d="M408 969l-7 -2l-12 -78l2 -45l8 -6l-20 -47l4 -35l-18 -39l-15 -43q6 -12 6 -27q0 -18 -8 -31l19 -69h-25l-2 -4l14 -29l-14 -55h-6l-10 -41q10 0 14 2l-6 -41l14 -37l-14 -29l2 -63l-6 -27q18 -21 18 -39q0 -13 -9 -27.5t-9 -17.5q0 -1 7 -5.5t20.5 -16t25.5 -27.5
l-25 -20l31 -17q-9 -82 -59 -82q-53 0 -68 45l-10 15q-33 46 -33 63l-41 43l19 21l-13 16l4 43l-4 14q-6 18 -6 33q0 12 6 27l-4 16l-2 66l6 8l-4 117l17 98l-9 102l7 11l-11 6l13 41v14l-15 2l10 45q-24 27 -30 80h26l25 61l4 -4l12 33l-10 -12v55h35l6 19l39 14
q51 -3 80 -16q31 -27 31 -68v-10zM643 1505l-10 -24l-10 -50h-8q-27 0 -42.5 -9.5t-25.5 -33.5l-18 13l-68 -56h-6l-17 -18l5 -12l-37 -13v-12l-31 -10l-12 -17l-9 -24l-10 -4v-13l-37 -12l-53 -45l-76 49l29 56l10 34l47 21l29 43l14 2l11 14v21l26 26l23 -14q25 29 33 45
q36 19 38 31q6 27 39 41l31 28l43 5l19 -5q66 -12 73 -57z" />
    <glyph glyph-name="Icircumflex" unicode="&#xce;" horiz-adv-x="571" 
d="M408 969l-7 -2l-12 -78l2 -45l8 -6l-20 -47l4 -35l-18 -39l-15 -43q6 -12 6 -27q0 -18 -8 -31l19 -69h-25l-2 -4l14 -29l-14 -55h-6l-10 -41q10 0 14 2l-6 -41l14 -37l-14 -29l2 -63l-6 -27q18 -21 18 -39q0 -13 -9 -27.5t-9 -17.5q0 -1 7 -5.5t20.5 -16t25.5 -27.5
l-25 -20l31 -17q-9 -82 -59 -82q-53 0 -68 45l-10 15q-33 46 -33 63l-41 43l19 21l-13 16l4 43l-4 14q-6 18 -6 33q0 12 6 27l-4 16l-2 66l6 8l-4 117l17 98l-9 102l7 11l-11 6l13 41v14l-15 2l10 45q-24 27 -30 80h26l25 61l4 -4l12 33l-10 -12v55h35l6 19l39 14
q51 -3 80 -16q31 -27 31 -68v-10zM699 1233l-39 -33l-41 -14l-70 10q-47 23 -78 65q-35 6 -47 35l-12 8l-27 27l-33 18v19l-24 24l2 7l-6 10l-10 -21l-17 -4v-6l-8 -4v-6l-41 -31v-16l-33 -10l-8 -15l-10 -6l-6 -6l-29 -16l6 2q-12 -12 -20 -17l-13 -4l-22 -29l-21 -14
l-37 -43l-75 51q0 52 43 70l4 12h6v6l10 2l17 9q20 33 73 77l4 11l13 4l4 6l24 20q37 15 37 21q0 2 -10 2q0 21 35 33q8 6 14 28q11 9 31 47l18 -4q19 15 45 15h9l36 -4l25 -45l35 -41l4 -9l20 -12l7 -24l20 -17q3 -13 16 -29q17 -3 23 -18l41 -33v-22l16 -8l15 -15l30 -10z
" />
    <glyph glyph-name="Idieresis" unicode="&#xcf;" horiz-adv-x="571" 
d="M408 969l-7 -2l-12 -78l2 -45l8 -6l-20 -47l4 -35l-18 -39l-15 -43q6 -12 6 -27q0 -18 -8 -31l19 -69h-25l-2 -4l14 -29l-14 -55h-6l-10 -41q10 0 14 2l-6 -41l14 -37l-14 -29l2 -63l-6 -27q18 -21 18 -39q0 -13 -9 -27.5t-9 -17.5q0 -1 7 -5.5t20.5 -16t25.5 -27.5
l-25 -20l31 -17q-9 -82 -59 -82q-53 0 -68 45l-10 15q-33 46 -33 63l-41 43l19 21l-13 16l4 43l-4 14q-6 18 -6 33q0 12 6 27l-4 16l-2 66l6 8l-4 117l17 98l-9 102l7 11l-11 6l13 41v14l-15 2l10 45q-24 27 -30 80h26l25 61l4 -4l12 33l-10 -12v55h35l6 19l39 14
q51 -3 80 -16q31 -27 31 -68v-10zM619 1323l-27 -58l-14 -4l-2 -8l-17 -8q-11 -14 -16 -14h-4l-29 -15l-8 9l-37 -13q-8 18 -42 36.5t-38 41.5l-8 45l12 12l-4 11l25 24v4q1 1 2.5 3.5t4 5t5.5 4.5q1 2 4 3.5l8 4l9 4.5q10 16 34 16q15 0 25 -4l10 -6h37l25 -29l26 -12v-14
l15 -8l-7 -23zM295 1325l-12 -8l6 -23l-12 -6v-14l-29 -13l-25 -28l-34 -2l-19 -4l4 2q-21 -7 -30 -7q-22 0 -31 19q-5 0 -15 10l-14 8q4 4 4 6v5h-8l-8 4l-12 16l6 12l-17 23l11 33q15 36 49 49l8 8q1 1 4 3.5t9.5 8t13.5 11.5l32 -13l17 6l12 -12q19 0 33 -20l28 -15z" />
    <glyph glyph-name="Eth" unicode="&#xd0;" horiz-adv-x="1304" 
d="M989 729l47 4l19 -14l8 -31q46 -38 106 -110q2 -8 2 -15l33 -18v-49l-2 -2q0 -2 21 -19q0 -16 2 -20l4 -4q15 -15 18 -25q2 -4 2 -18v-11l-10 -20l-4 -31l-41 -55l-14 -31l-43 -18l-15 -19l-55 -16l-35 -21h-20l-11 -18l-45 -6q-6 1 -13.5 4.5t-8.5 3.5
q-11 -13 -16 -17.5t-15.5 -10t-23.5 -5.5h-7q-8 8 -10 8q-9 0 -26 -14l-35 4l-13 -6l-38 4l10 -6q-50 -12 -70 -12q-8 0 -12 2q-63 -19 -94 -19q-4 0 -11 1t-10 1l-33 -8l-26 10l-15 -6l-34 -24l-27 6l-20 8l-9 -2v-14l-26 -33l-13 -33l-59 -74l-29 25h-43l13 72l-2 24
l-13 10q-4 -3 -15 -8.5l-15 -7.5h-54l-39 27l-14 47l27 26q32 32 94 48v4q-4 12 -4 18q0 18 8 31l-6 94l8 25v43l10 22l-16 29q-14 -6 -33 -17l-47 19l-84 -17l-29 41l19 88l41 -10l51 21l100 4h7q-12 38 -15 63l6 47v31l-18 45v64l-23 28l-8 2l-41 -16l-71 -6h-3
q-14 0 -29 19t-24 50l-14 64q43 37 92 43q62 16 109 16q8 0 23.5 -7t25.5 -7q24 0 65 12l15 -12l16 -6l27 6l80 -18l26 -17l45 -4l35 -20l12 -2l35 -23l21 -2l22 -10h8q33 0 58 -19q48 -8 90 -53q17 -3 41.5 -18t38.5 -15h2l57 -41l53 -45zM932 291l16 18l37 4l12 6l31 21
h10l56 39v16l-7 39l-63 80h-18l-25 55q-42 18 -59 33l-7 25l-8 8l-63 18l-17 33l-141 80h-10q-44 0 -84 27l12 6l-41 8h-8l-25 6l7 -4q-30 0 -50 10v6l-24 17h-25q-24 18 -51 18h-4l-14 -31l-7 2q10 -28 21 -49l-10 -16q16 -40 16 -55q0 -4 -1 -9t-2.5 -11t-2.5 -9l18 -53
l-18 -6l2 -13v-20l37 4l16 -10q7 0 31 -4l10 22l35 -16l23 10l59 -16l43 6l43 -41l-10 -76l-49 -23l-54 17l-43 -8l-45 6l-35 -8l9 6q-35 -13 -78 -13l-8 -22l6 -45l-17 -39l17 -29l-4 -41l12 -24l-12 -29l2 -8l18 2l70 10q24 8 53 8q30 0 51 -8q37 0 90 29q15 1 40.5 3.5
t35.5 2.5q8 0 19 -2t14 -2q21 0 29 10l32 8q31 21 56 21q11 0 26 -6q12 6 25 6z" />
    <glyph glyph-name="Ntilde" unicode="&#xd1;" horiz-adv-x="1599" 
d="M1466 838l-6 -11q-16 -96 -35 -118l-4 -13v-96l-20 -41l6 -24l-21 -82l9 -23l-15 -72l2 -34l-14 -45l18 -54l-34 -47l8 -26l-17 -29l7 -6l6 -94l26 -48l-34 -26l-21 -33l-76 21l-12 92l-12 4q-8 71 -8 147l-7 10l-34 7l-11 -13l-30 35l-29 -8l-45 33q-51 4 -72 8l-18 16
l-8 -2l-148 88l-12 15l-45 16l-27 35l-22 10l-33 29l-96 39l-62 73l-33 4l-20 29q-44 25 -80 68v-19l-16 -88l18 -59l-31 -100l7 -31q8 -13 8 -37q0 -26 -8 -45l18 -4l-25 -72v-45l-8 -43l15 -27l-27 -34q6 -9 6 -23q-11 -41 -43 -84h-37q-62 0 -65 88l22 70l-10 33l12 30
q-2 10 -2 29q0 14 2 20l-14 19v14q0 10 1 25t1 22q0 21 -16 62l16 24l10 35l-10 57l16 60l-12 39l16 96l-4 70l9 59l-9 18l4 119q-4 20 -4 29q0 15 6 27q5 31 50 34l18 -4l16 21q48 -23 66 -70h18l7 -63l26 -19l2 -24l31 -19l16 -57l11 -10l57 -39q21 -10 24 -37l5 -8
l49 -31l55 -55l147 -115q45 -8 70 -51l62 -19l51 -41l24 -6l62 -28l59 -19q33 -31 62 -43l6 31l20 41l-8 8l10 113l19 34v7l-25 32l25 84l-8 70l18 123l-27 26l27 80l-16 19l20 26l-6 23l98 47l10 -23l62 -10q-16 -39 -16 -59q0 -11 2 -17q15 -22 18 -40l-12 -33zM1163 1368
q-4 -25 -10 -31v-10q0 -11 -9 -23l-37 -26l-40 -8l-13 -15l-12 -16l-51 -14l-62 -11l-84 31q-8 8 -8 10v2l-55 31l-2 29l-15 -6v24q-12 6 -30 6l-45 -28q-21 -14 -29 -27q-25 -41 -44 -54.5t-52 -13.5q-1 0 -37 4q-33 38 -33 56q0 29 45 55l27 29l22 10q13 15 45 35l15 2
q26 10 49 37l45 8l22 -4l9 2q23 -30 53 -39l24 -14l31 -41l37 -19l4 -10l62 10l8 33v27l20 36q4 7 21 16t33 9q30 0 61 -28t35 -64z" />
    <glyph glyph-name="Ograve" unicode="&#xd2;" horiz-adv-x="1474" 
d="M1419 541l-20 -43l-8 -68l-21 -18q-12 -85 -63 -105l-15 -6l-123 -86l-36 -20l-60 -66l-37 6l-22 -16l-41 -15l-103 -53q-8 3 -32 19q-14 -21 -45 -27h-9l-41 -33l-8 4h-39l-18 -14l-78 2l-102 -16h-13q-14 0 -34 -4l-58 8l-10 10l-82 12l-35 17h-49v22l-39 41l-51 23
l-23 63l-2 47l-12 15l-2 92l27 82l-4 49l10 10v39l29 29v20l12 23v20l8 10l-10 23l33 22l38 82l84 121l21 10q9 15 18 27l21 16v33l31 6q32 26 67 37l10 13q18 7 36.5 11.5t29 5.5t24.5 2t17 1l55 8l66 -8l39 2h55l12 -2l6 -2h11l12 4l65 -2l-4 -12l31 -8q12 3 12 16
q11 -19 45 -19l17 -16h61l137 -59l17 -45l12 -19l37 -14l55 -90l33 -41q55 -128 55 -154v-22zM1266 528l-11 58l11 16l-15 35q2 4 2 12q0 6 -4 10l-37 25l-12 33l-16 6l-6 29l-52 47l-30 24l-13 -6q-17 16 -34.5 27t-39.5 19t-32 11t-37 8.5t-31 6.5q-16 0 -20 2l-10 -6
l-37 10l-21 -10q-30 10 -37 10q-2 0 -15 -4t-24 -4q-10 0 -16 2q-14 -28 -67 -47l-27 4l-29 -15l-37 5q-37 -29 -86 -60l-10 -14l-10 -45l-47 -21l-8 -10q-12 -24 -33 -45v-35l-29 -12l-6 -4l-18 -62l-29 -16q-6 -98 -35 -145q-15 -20 -18 -62l-9 -22l7 -15l6 -30l24 -27
l4 -27l21 -20q60 -32 102 -35l86 23l19 -19h24l4 4l62 10l65 -10q17 17 39 17q48 28 80 28l43 25l33 2l27 20l63 2q8 2 18 2l5 7q14 20 43 26l24 58l17 -11l16 9l29 26l10 -4l35 25l61 61l27 8l12 31l16 10l-4 19zM936 1231l-33 -47l-70 18l-14 10q-7 7 -17 15q-35 3 -43 20
q-5 0 -20 2.5t-27 3.5l-18 25q-16 12 -21 22q-11 4 -36 25q-33 13 -48 37l-20 20q-10 2 -17.5 7t-10 8t-8.5 12t-7 10l-2 6l-41 10l-4 43l14 17l19 31l32 10l29 28l45 -20l29 -8l22 -31l41 -43l21 -37l22 -16l13 -25l26 -10l15 -20l28 -13l8 -10q15 -9 31 -25l6 -4
q27 -13 33 -26z" />
    <glyph glyph-name="Oacute" unicode="&#xd3;" horiz-adv-x="1474" 
d="M1419 541l-20 -43l-8 -68l-21 -18q-12 -85 -63 -105l-15 -6l-123 -86l-36 -20l-60 -66l-37 6l-22 -16l-41 -15l-103 -53q-8 3 -32 19q-14 -21 -45 -27h-9l-41 -33l-8 4h-39l-18 -14l-78 2l-102 -16h-13q-14 0 -34 -4l-58 8l-10 10l-82 12l-35 17h-49v22l-39 41l-51 23
l-23 63l-2 47l-12 15l-2 92l27 82l-4 49l10 10v39l29 29v20l12 23v20l8 10l-10 23l33 22l38 82l84 121l21 10q9 15 18 27l21 16v33l31 6q32 26 67 37l10 13q18 7 36.5 11.5t29 5.5t24.5 2t17 1l55 8l66 -8l39 2h55l12 -2l6 -2h11l12 4l65 -2l-4 -12l31 -8q12 3 12 16
q11 -19 45 -19l17 -16h61l137 -59l17 -45l12 -19l37 -14l55 -90l33 -41q55 -128 55 -154v-22zM1266 528l-11 58l11 16l-15 35q2 4 2 12q0 6 -4 10l-37 25l-12 33l-16 6l-6 29l-52 47l-30 24l-13 -6q-17 16 -34.5 27t-39.5 19t-32 11t-37 8.5t-31 6.5q-16 0 -20 2l-10 -6
l-37 10l-21 -10q-30 10 -37 10q-2 0 -15 -4t-24 -4q-10 0 -16 2q-14 -28 -67 -47l-27 4l-29 -15l-37 5q-37 -29 -86 -60l-10 -14l-10 -45l-47 -21l-8 -10q-12 -24 -33 -45v-35l-29 -12l-6 -4l-18 -62l-29 -16q-6 -98 -35 -145q-15 -20 -18 -62l-9 -22l7 -15l6 -30l24 -27
l4 -27l21 -20q60 -32 102 -35l86 23l19 -19h24l4 4l62 10l65 -10q17 17 39 17q48 28 80 28l43 25l33 2l27 20l63 2q8 2 18 2l5 7q14 20 43 26l24 58l17 -11l16 9l29 26l10 -4l35 25l61 61l27 8l12 31l16 10l-4 19zM1091 1505l-10 -24l-10 -50h-8q-27 0 -42.5 -9.5
t-25.5 -33.5l-18 13l-68 -56h-6l-17 -18l5 -12l-37 -13v-12l-31 -10l-12 -17l-9 -24l-10 -4v-13l-37 -12l-53 -45l-76 49l29 56l10 34l47 21l29 43l14 2l11 14v21l26 26l23 -14q25 29 33 45q36 19 38 31q6 27 39 41l31 28l43 5l19 -5q66 -12 73 -57z" />
    <glyph glyph-name="Ocircumflex" unicode="&#xd4;" horiz-adv-x="1474" 
d="M1419 541l-20 -43l-8 -68l-21 -18q-12 -85 -63 -105l-15 -6l-123 -86l-36 -20l-60 -66l-37 6l-22 -16l-41 -15l-103 -53q-8 3 -32 19q-14 -21 -45 -27h-9l-41 -33l-8 4h-39l-18 -14l-78 2l-102 -16h-13q-14 0 -34 -4l-58 8l-10 10l-82 12l-35 17h-49v22l-39 41l-51 23
l-23 63l-2 47l-12 15l-2 92l27 82l-4 49l10 10v39l29 29v20l12 23v20l8 10l-10 23l33 22l38 82l84 121l21 10q9 15 18 27l21 16v33l31 6q32 26 67 37l10 13q18 7 36.5 11.5t29 5.5t24.5 2t17 1l55 8l66 -8l39 2h55l12 -2l6 -2h11l12 4l65 -2l-4 -12l31 -8q12 3 12 16
q11 -19 45 -19l17 -16h61l137 -59l17 -45l12 -19l37 -14l55 -90l33 -41q55 -128 55 -154v-22zM1266 528l-11 58l11 16l-15 35q2 4 2 12q0 6 -4 10l-37 25l-12 33l-16 6l-6 29l-52 47l-30 24l-13 -6q-17 16 -34.5 27t-39.5 19t-32 11t-37 8.5t-31 6.5q-16 0 -20 2l-10 -6
l-37 10l-21 -10q-30 10 -37 10q-2 0 -15 -4t-24 -4q-10 0 -16 2q-14 -28 -67 -47l-27 4l-29 -15l-37 5q-37 -29 -86 -60l-10 -14l-10 -45l-47 -21l-8 -10q-12 -24 -33 -45v-35l-29 -12l-6 -4l-18 -62l-29 -16q-6 -98 -35 -145q-15 -20 -18 -62l-9 -22l7 -15l6 -30l24 -27
l4 -27l21 -20q60 -32 102 -35l86 23l19 -19h24l4 4l62 10l65 -10q17 17 39 17q48 28 80 28l43 25l33 2l27 20l63 2q8 2 18 2l5 7q14 20 43 26l24 58l17 -11l16 9l29 26l10 -4l35 25l61 61l27 8l12 31l16 10l-4 19zM1147 1233l-39 -33l-41 -14l-70 10q-47 23 -78 65
q-35 6 -47 35l-12 8l-27 27l-33 18v19l-24 24l2 7l-6 10l-10 -21l-17 -4v-6l-8 -4v-6l-41 -31v-16l-33 -10l-8 -15l-10 -6l-6 -6l-29 -16l6 2q-12 -12 -20 -17l-13 -4l-22 -29l-21 -14l-37 -43l-75 51q0 52 43 70l4 12h6v6l10 2l17 9q20 33 73 77l4 11l13 4l4 6l24 20
q37 15 37 21q0 2 -10 2q0 21 35 33q8 6 14 28q11 9 31 47l18 -4q19 15 45 15h9l36 -4l25 -45l35 -41l4 -9l20 -12l7 -24l20 -17q3 -13 16 -29q17 -3 23 -18l41 -33v-22l16 -8l15 -15l30 -10z" />
    <glyph glyph-name="Otilde" unicode="&#xd5;" horiz-adv-x="1474" 
d="M1419 541l-20 -43l-8 -68l-21 -18q-12 -85 -63 -105l-15 -6l-123 -86l-36 -20l-60 -66l-37 6l-22 -16l-41 -15l-103 -53q-8 3 -32 19q-14 -21 -45 -27h-9l-41 -33l-8 4h-39l-18 -14l-78 2l-102 -16h-13q-14 0 -34 -4l-58 8l-10 10l-82 12l-35 17h-49v22l-39 41l-51 23
l-23 63l-2 47l-12 15l-2 92l27 82l-4 49l10 10v39l29 29v20l12 23v20l8 10l-10 23l33 22l38 82l84 121l21 10q9 15 18 27l21 16v33l31 6q32 26 67 37l10 13q18 7 36.5 11.5t29 5.5t24.5 2t17 1l55 8l66 -8l39 2h55l12 -2l6 -2h11l12 4l65 -2l-4 -12l31 -8q12 3 12 16
q11 -19 45 -19l17 -16h61l137 -59l17 -45l12 -19l37 -14l55 -90l33 -41q55 -128 55 -154v-22zM1266 528l-11 58l11 16l-15 35q2 4 2 12q0 6 -4 10l-37 25l-12 33l-16 6l-6 29l-52 47l-30 24l-13 -6q-17 16 -34.5 27t-39.5 19t-32 11t-37 8.5t-31 6.5q-16 0 -20 2l-10 -6
l-37 10l-21 -10q-30 10 -37 10q-2 0 -15 -4t-24 -4q-10 0 -16 2q-14 -28 -67 -47l-27 4l-29 -15l-37 5q-37 -29 -86 -60l-10 -14l-10 -45l-47 -21l-8 -10q-12 -24 -33 -45v-35l-29 -12l-6 -4l-18 -62l-29 -16q-6 -98 -35 -145q-15 -20 -18 -62l-9 -22l7 -15l6 -30l24 -27
l4 -27l21 -20q60 -32 102 -35l86 23l19 -19h24l4 4l62 10l65 -10q17 17 39 17q48 28 80 28l43 25l33 2l27 20l63 2q8 2 18 2l5 7q14 20 43 26l24 58l17 -11l16 9l29 26l10 -4l35 25l61 61l27 8l12 31l16 10l-4 19zM1114 1368q-4 -25 -10 -31v-10q0 -11 -9 -23l-37 -26
l-40 -8l-13 -15l-12 -16l-51 -14l-62 -11l-84 31q-8 8 -8 10v2l-55 31l-2 29l-15 -6v24q-12 6 -30 6l-45 -28q-21 -14 -29 -27q-25 -41 -44 -54.5t-52 -13.5q-1 0 -37 4q-33 38 -33 56q0 29 45 55l27 29l22 10q13 15 45 35l15 2q26 10 49 37l45 8l22 -4l9 2q23 -30 53 -39
l24 -14l31 -41l37 -19l4 -10l62 10l8 33v27l20 36q4 7 21 16t33 9q30 0 61 -28t35 -64z" />
    <glyph glyph-name="Odieresis" unicode="&#xd6;" horiz-adv-x="1474" 
d="M1419 541l-20 -43l-8 -68l-21 -18q-12 -85 -63 -105l-15 -6l-123 -86l-36 -20l-60 -66l-37 6l-22 -16l-41 -15l-103 -53q-8 3 -32 19q-14 -21 -45 -27h-9l-41 -33l-8 4h-39l-18 -14l-78 2l-102 -16h-13q-14 0 -34 -4l-58 8l-10 10l-82 12l-35 17h-49v22l-39 41l-51 23
l-23 63l-2 47l-12 15l-2 92l27 82l-4 49l10 10v39l29 29v20l12 23v20l8 10l-10 23l33 22l38 82l84 121l21 10q9 15 18 27l21 16v33l31 6q32 26 67 37l10 13q18 7 36.5 11.5t29 5.5t24.5 2t17 1l55 8l66 -8l39 2h55l12 -2l6 -2h11l12 4l65 -2l-4 -12l31 -8q12 3 12 16
q11 -19 45 -19l17 -16h61l137 -59l17 -45l12 -19l37 -14l55 -90l33 -41q55 -128 55 -154v-22zM1266 528l-11 58l11 16l-15 35q2 4 2 12q0 6 -4 10l-37 25l-12 33l-16 6l-6 29l-52 47l-30 24l-13 -6q-17 16 -34.5 27t-39.5 19t-32 11t-37 8.5t-31 6.5q-16 0 -20 2l-10 -6
l-37 10l-21 -10q-30 10 -37 10q-2 0 -15 -4t-24 -4q-10 0 -16 2q-14 -28 -67 -47l-27 4l-29 -15l-37 5q-37 -29 -86 -60l-10 -14l-10 -45l-47 -21l-8 -10q-12 -24 -33 -45v-35l-29 -12l-6 -4l-18 -62l-29 -16q-6 -98 -35 -145q-15 -20 -18 -62l-9 -22l7 -15l6 -30l24 -27
l4 -27l21 -20q60 -32 102 -35l86 23l19 -19h24l4 4l62 10l65 -10q17 17 39 17q48 28 80 28l43 25l33 2l27 20l63 2q8 2 18 2l5 7q14 20 43 26l24 58l17 -11l16 9l29 26l10 -4l35 25l61 61l27 8l12 31l16 10l-4 19zM1067 1323l-27 -58l-14 -4l-2 -8l-17 -8q-11 -14 -16 -14
h-4l-29 -15l-8 9l-37 -13q-8 18 -42 36.5t-38 41.5l-8 45l12 12l-4 11l25 24v4q1 1 2.5 3.5t4 5t5.5 4.5q1 2 4 3.5l8 4l9 4.5q10 16 34 16q15 0 25 -4l10 -6h37l25 -29l26 -12v-14l15 -8l-7 -23zM743 1325l-12 -8l6 -23l-12 -6v-14l-29 -13l-25 -28l-34 -2l-19 -4l4 2
q-21 -7 -30 -7q-22 0 -31 19q-5 0 -15 10l-14 8q4 4 4 6v5h-8l-8 4l-12 16l6 12l-17 23l11 33q15 36 49 49l8 8q1 1 4 3.5t9.5 8t13.5 11.5l32 -13l17 6l12 -12q19 0 33 -20l28 -15z" />
    <glyph glyph-name="multiply" unicode="&#xd7;" horiz-adv-x="1705" 
d="M391 1178l469 -469l469 469l98 -99l-469 -469l469 -469l-98 -96l-469 467l-469 -467l-98 96l469 469l-469 469z" />
    <glyph glyph-name="Oslash" unicode="&#xd8;" horiz-adv-x="1474" 
d="M1389 578l-17 -33v-49l-41 -99l-26 -90l-37 -37l-33 -55q-35 -26 -62.5 -59t-43.5 -54t-27 -26l-66 -47l-73 -58q-45 -28 -66 -28h-10l-21 -19l-53 -16q-16 0 -22 4q-18 -12 -56 -21l-4 -12l-80 -6l-20 8l-8 -8q-2 0 -8 -1t-9 -1t-9 1t-9 1l4 -2q0 -2 -29 -8l-31 14h-34
l-29 12l-12 -2l-27 -24l-33 -70l-10 -47l-47 -84l-55 -113l-74 -120q-40 0 -60 14t-24 47l33 68v47l45 39l12 49l8 4l6 47l45 57v33l21 31l6 33l14 2l7 30l-7 4l-6 7l-30 24l-54 37l-63 59l-19 35l-18 47l-6 39l-17 68v88l-4 29l19 65l-2 12l28 29l5 53l-15 52l25 16
q3 29 10 61l33 37q3 22 18 31l-18 31l28 28l13 43h43q-13 16 -13 45l31 21v37l45 6l10 24q25 28 80 46q11 45 66 51q15 1 23.5 2.5t19 5.5t17.5 13t14 24q19 5 70 16t85 19q15 -5 19 -5q14 0 30 13l41 -13l58 15l39 -8q13 30 47 88q0 22 16 41l4 22l25 15l4 8l8 18l-6 43
l35 17l4 6v4q0 47 11 65.5t44 18.5h12l66 -15l74 -61l-21 -45v-37l-33 -16l-2 -4q-17 -46 -43 -62v-6q0 -40 -28 -68l-6 -24l-15 -6l-8 -13q-1 -2 -6 -7t-11.5 -13.5t-11.5 -18.5h21l43 -26l49 -60l57 -47l25 -55q74 -74 88 -158l2 -75l16 -37l-2 -27zM1255 639l-28 88
l-2 18l-8 5l-33 69l-74 92l-78 56h-12l-23 -45l-53 -88l-24 -33l-23 -53l-49 -84l-6 -5l-21 -47l-41 -88l-24 -24l-13 -72l-26 -22l-21 -48l-16 -10q-12 -20 -16 -24l14 -19l-31 -24v-21l-41 -59l-18 -41l-25 -15l-12 -36l-37 -60l-8 -29h6l35 9q27 -9 45 -9q5 0 20 5
q40 4 58 4q4 0 8 -1t6 -1q7 0 13 3t15.5 10.5t14.5 10.5q36 8 57 8h13l4 2q28 8 61 25l4 -4l-2 18l19 6l12 21l45 14l14 13q27 3 33 32l19 9q27 34 61 53l27 57l26 -8q6 6 6 16q6 36 33 54v12l17 6q0 40 26 61v31l23 58l26 88zM844 987q-24 0 -39 6l-8 -2h-17l-18 -16
q-13 0 -19 14l-32 -26l-6 2l-46 -50l-61 -30l-29 -11l-20 7l-37 -35v12l-12 -6l-6 -23l-35 -22l-15 -45l-51 -29l-35 -76l-26 -39l-15 -24l-28 -100l-15 -43l5 -56l-19 -30l-4 -33l-8 -8l10 -129l4 -5l14 -55l25 -12q10 -36 24.5 -48t53.5 -18l10 -6l8 55l29 25l6 37l25 41
v27l49 53l8 41l29 35l6 34l2 -10q0 45 24 82l11 2l2 43l24 4q1 24 25.5 50.5t24.5 45.5q0 2 -1 4.5t-2 7t-2 7.5l41 31l17 67l57 90l10 76l39 16l15 62z" />
    <glyph glyph-name="Ugrave" unicode="&#xd9;" horiz-adv-x="1509" 
d="M1595 -6l-28 -53l-58 -17q-37 -21 -65 -24l-25 -17q-5 0 -15 -1t-15 -1q-79 0 -121 51l-13 15l-14 2q-23 3 -39.5 13t-23.5 20t-16.5 27.5t-14.5 25.5l-10 14l-15 51l-24 35l-17 53l-18 37l-33 185v63l-12 -12l-31 -21q-3 -34 -31 -34l-20 -23l-29 -16l-20 -21
q-9 -26 -37 -39l-25 -26l-32 -15l-25 -30l-166 -117l-72 -43l-45 -33l-28 -8l-51 -41l-41 -19l-68 2l-39 43l-29 19v37l-16 14l-20 125l-7 16l-8 88l12 39l-6 25l6 31l-8 90l-10 16q4 32 23 49l-7 9l9 43l-15 26v43l15 21l-7 30l15 58l-10 71l8 29l-8 39l20 23q11 22 39 22
h16l49 -14q21 -9 31 -35q18 -12 33 -53l-21 -29q-26 -99 -26 -129v-6q4 -29 22 -45q-28 -121 -28 -197v-14l18 -25l-8 -45l-4 -61l12 -37l-31 -27q9 -21 23 -49q10 -20 10 -57h56q8 15 12 18l31 2l24 29q22 19 41 29q12 15 37 22l53 33l-2 20l47 9l35 36l2 4l4 3l15 16
l16 -8l20 16l17 41l16 -2q22 18 45 31l6 8l13 12v33l34 10l23 27l23 10l4 29h14q8 10 27 18v21l26 8l35 65l16 50l7 47l22 34l4 25l4 53l15 37l51 43l59 -31l15 -16q32 -20 59 -47l-19 -33l3 -26q-6 -39 -37 -54l-15 -26v-33l-14 -33l2 -55q-9 -12 -18 -12q-5 0 -7 2
q31 -19 31 -60q0 -14 -2 -20l-16 -2l6 -21l-6 -53l14 -33l-6 -45q2 -8 2 -26q16 -19 16 -41q0 -3 -1 -8.5t-1 -8.5l9 -24q15 -70 49 -144l20 -30l6 -13l21 -20l47 -45l33 -6l12 20l33 -12l8 4q24 18 55 18q15 0 80 -10zM891 1231l-33 -47l-70 18l-14 10q-7 7 -17 15
q-35 3 -43 20q-5 0 -20 2.5t-27 3.5l-18 25q-16 12 -21 22q-11 4 -36 25q-33 13 -48 37l-20 20q-10 2 -17.5 7t-10 8t-8.5 12t-7 10l-2 6l-41 10l-4 43l14 17l19 31l32 10l29 28l45 -20l29 -8l22 -31l41 -43l21 -37l22 -16l13 -25l26 -10l15 -20l28 -13l8 -10q15 -9 31 -25
l6 -4q27 -13 33 -26z" />
    <glyph glyph-name="Uacute" unicode="&#xda;" horiz-adv-x="1509" 
d="M1595 -6l-28 -53l-58 -17q-37 -21 -65 -24l-25 -17q-5 0 -15 -1t-15 -1q-79 0 -121 51l-13 15l-14 2q-23 3 -39.5 13t-23.5 20t-16.5 27.5t-14.5 25.5l-10 14l-15 51l-24 35l-17 53l-18 37l-33 185v63l-12 -12l-31 -21q-3 -34 -31 -34l-20 -23l-29 -16l-20 -21
q-9 -26 -37 -39l-25 -26l-32 -15l-25 -30l-166 -117l-72 -43l-45 -33l-28 -8l-51 -41l-41 -19l-68 2l-39 43l-29 19v37l-16 14l-20 125l-7 16l-8 88l12 39l-6 25l6 31l-8 90l-10 16q4 32 23 49l-7 9l9 43l-15 26v43l15 21l-7 30l15 58l-10 71l8 29l-8 39l20 23q11 22 39 22
h16l49 -14q21 -9 31 -35q18 -12 33 -53l-21 -29q-26 -99 -26 -129v-6q4 -29 22 -45q-28 -121 -28 -197v-14l18 -25l-8 -45l-4 -61l12 -37l-31 -27q9 -21 23 -49q10 -20 10 -57h56q8 15 12 18l31 2l24 29q22 19 41 29q12 15 37 22l53 33l-2 20l47 9l35 36l2 4l4 3l15 16
l16 -8l20 16l17 41l16 -2q22 18 45 31l6 8l13 12v33l34 10l23 27l23 10l4 29h14q8 10 27 18v21l26 8l35 65l16 50l7 47l22 34l4 25l4 53l15 37l51 43l59 -31l15 -16q32 -20 59 -47l-19 -33l3 -26q-6 -39 -37 -54l-15 -26v-33l-14 -33l2 -55q-9 -12 -18 -12q-5 0 -7 2
q31 -19 31 -60q0 -14 -2 -20l-16 -2l6 -21l-6 -53l14 -33l-6 -45q2 -8 2 -26q16 -19 16 -41q0 -3 -1 -8.5t-1 -8.5l9 -24q15 -70 49 -144l20 -30l6 -13l21 -20l47 -45l33 -6l12 20l33 -12l8 4q24 18 55 18q15 0 80 -10zM1046 1505l-10 -24l-10 -50h-8q-27 0 -42.5 -9.5
t-25.5 -33.5l-18 13l-68 -56h-6l-17 -18l5 -12l-37 -13v-12l-31 -10l-12 -17l-9 -24l-10 -4v-13l-37 -12l-53 -45l-76 49l29 56l10 34l47 21l29 43l14 2l11 14v21l26 26l23 -14q25 29 33 45q36 19 38 31q6 27 39 41l31 28l43 5l19 -5q66 -12 73 -57z" />
    <glyph glyph-name="Ucircumflex" unicode="&#xdb;" horiz-adv-x="1509" 
d="M1595 -6l-28 -53l-58 -17q-37 -21 -65 -24l-25 -17q-5 0 -15 -1t-15 -1q-79 0 -121 51l-13 15l-14 2q-23 3 -39.5 13t-23.5 20t-16.5 27.5t-14.5 25.5l-10 14l-15 51l-24 35l-17 53l-18 37l-33 185v63l-12 -12l-31 -21q-3 -34 -31 -34l-20 -23l-29 -16l-20 -21
q-9 -26 -37 -39l-25 -26l-32 -15l-25 -30l-166 -117l-72 -43l-45 -33l-28 -8l-51 -41l-41 -19l-68 2l-39 43l-29 19v37l-16 14l-20 125l-7 16l-8 88l12 39l-6 25l6 31l-8 90l-10 16q4 32 23 49l-7 9l9 43l-15 26v43l15 21l-7 30l15 58l-10 71l8 29l-8 39l20 23q11 22 39 22
h16l49 -14q21 -9 31 -35q18 -12 33 -53l-21 -29q-26 -99 -26 -129v-6q4 -29 22 -45q-28 -121 -28 -197v-14l18 -25l-8 -45l-4 -61l12 -37l-31 -27q9 -21 23 -49q10 -20 10 -57h56q8 15 12 18l31 2l24 29q22 19 41 29q12 15 37 22l53 33l-2 20l47 9l35 36l2 4l4 3l15 16
l16 -8l20 16l17 41l16 -2q22 18 45 31l6 8l13 12v33l34 10l23 27l23 10l4 29h14q8 10 27 18v21l26 8l35 65l16 50l7 47l22 34l4 25l4 53l15 37l51 43l59 -31l15 -16q32 -20 59 -47l-19 -33l3 -26q-6 -39 -37 -54l-15 -26v-33l-14 -33l2 -55q-9 -12 -18 -12q-5 0 -7 2
q31 -19 31 -60q0 -14 -2 -20l-16 -2l6 -21l-6 -53l14 -33l-6 -45q2 -8 2 -26q16 -19 16 -41q0 -3 -1 -8.5t-1 -8.5l9 -24q15 -70 49 -144l20 -30l6 -13l21 -20l47 -45l33 -6l12 20l33 -12l8 4q24 18 55 18q15 0 80 -10zM1102 1233l-39 -33l-41 -14l-70 10q-47 23 -78 65
q-35 6 -47 35l-12 8l-27 27l-33 18v19l-24 24l2 7l-6 10l-10 -21l-17 -4v-6l-8 -4v-6l-41 -31v-16l-33 -10l-8 -15l-10 -6l-6 -6l-29 -16l6 2q-12 -12 -20 -17l-13 -4l-22 -29l-21 -14l-37 -43l-75 51q0 52 43 70l4 12h6v6l10 2l17 9q20 33 73 77l4 11l13 4l4 6l24 20
q37 15 37 21q0 2 -10 2q0 21 35 33q8 6 14 28q11 9 31 47l18 -4q19 15 45 15h9l36 -4l25 -45l35 -41l4 -9l20 -12l7 -24l20 -17q3 -13 16 -29q17 -3 23 -18l41 -33v-22l16 -8l15 -15l30 -10z" />
    <glyph glyph-name="Udieresis" unicode="&#xdc;" horiz-adv-x="1509" 
d="M1595 -6l-28 -53l-58 -17q-37 -21 -65 -24l-25 -17q-5 0 -15 -1t-15 -1q-79 0 -121 51l-13 15l-14 2q-23 3 -39.5 13t-23.5 20t-16.5 27.5t-14.5 25.5l-10 14l-15 51l-24 35l-17 53l-18 37l-33 185v63l-12 -12l-31 -21q-3 -34 -31 -34l-20 -23l-29 -16l-20 -21
q-9 -26 -37 -39l-25 -26l-32 -15l-25 -30l-166 -117l-72 -43l-45 -33l-28 -8l-51 -41l-41 -19l-68 2l-39 43l-29 19v37l-16 14l-20 125l-7 16l-8 88l12 39l-6 25l6 31l-8 90l-10 16q4 32 23 49l-7 9l9 43l-15 26v43l15 21l-7 30l15 58l-10 71l8 29l-8 39l20 23q11 22 39 22
h16l49 -14q21 -9 31 -35q18 -12 33 -53l-21 -29q-26 -99 -26 -129v-6q4 -29 22 -45q-28 -121 -28 -197v-14l18 -25l-8 -45l-4 -61l12 -37l-31 -27q9 -21 23 -49q10 -20 10 -57h56q8 15 12 18l31 2l24 29q22 19 41 29q12 15 37 22l53 33l-2 20l47 9l35 36l2 4l4 3l15 16
l16 -8l20 16l17 41l16 -2q22 18 45 31l6 8l13 12v33l34 10l23 27l23 10l4 29h14q8 10 27 18v21l26 8l35 65l16 50l7 47l22 34l4 25l4 53l15 37l51 43l59 -31l15 -16q32 -20 59 -47l-19 -33l3 -26q-6 -39 -37 -54l-15 -26v-33l-14 -33l2 -55q-9 -12 -18 -12q-5 0 -7 2
q31 -19 31 -60q0 -14 -2 -20l-16 -2l6 -21l-6 -53l14 -33l-6 -45q2 -8 2 -26q16 -19 16 -41q0 -3 -1 -8.5t-1 -8.5l9 -24q15 -70 49 -144l20 -30l6 -13l21 -20l47 -45l33 -6l12 20l33 -12l8 4q24 18 55 18q15 0 80 -10zM1022 1323l-27 -58l-14 -4l-2 -8l-17 -8
q-11 -14 -16 -14h-4l-29 -15l-8 9l-37 -13q-8 18 -42 36.5t-38 41.5l-8 45l12 12l-4 11l25 24v4q1 1 2.5 3.5t4 5t5.5 4.5q1 2 4 3.5l8 4l9 4.5q10 16 34 16q15 0 25 -4l10 -6h37l25 -29l26 -12v-14l15 -8l-7 -23zM698 1325l-12 -8l6 -23l-12 -6v-14l-29 -13l-25 -28l-34 -2
l-19 -4l4 2q-21 -7 -30 -7q-22 0 -31 19q-5 0 -15 10l-14 8q4 4 4 6v5h-8l-8 4l-12 16l6 12l-17 23l11 33q15 36 49 49l8 8q1 1 4 3.5t9.5 8t13.5 11.5l32 -13l17 6l12 -12q19 0 33 -20l28 -15z" />
    <glyph glyph-name="Yacute" unicode="&#xdd;" horiz-adv-x="1394" 
d="M1382 1085q7 -40 7 -53t-23 -31t-25 -40q-11 -20 -28 -33q-6 -25 -41 -31l-37 -29l-27 -49h-20q-15 -21 -37 -39q-9 -3 -35 -16l-43 -47l-57 -41l-19 -6l-18 -33l-45 -27l-23 -22l-20 -51l-76 -84l-24 -37l-11 -21l13 -20l-17 -37l10 -35l-16 -47l4 -29l14 -57
q-30 -38 -30 -68q0 -6 4.5 -33.5t5.5 -50.5l-16 -90l4 -51l-8 -18l14 -74l-17 -25l15 -36l-12 -19l8 -16q6 -12 6 -27v-10l-14 -51l12 -56l-19 -39l19 -24v-14q0 -81 -23.5 -115.5t-85.5 -34.5l-18 98l-19 60l-2 39l-26 16l18 41l-8 29l8 61l-12 66l6 51q0 5 -1 15.5
t-1 15.5t1 13.5t1 12.5l-10 94l10 45l-6 50l12 81l-18 33l10 49l-2 39l-16 37q16 37 16 58q0 12 -4 18l-8 37l-13 35l-20 16l-12 18q-34 16 -93 91l-32 20l-29 53l-82 74l-16 29l-33 41l-62 49v20l-30 21q-9 51 -43 51q-83 47 -86 143l10 54h25q14 12 45 12q27 0 86 -19
l14 -32l33 -11l37 -57l53 -39l2 -18l43 -68l31 -22l112 -156l37 -47q88 -93 115 -123v6q0 24 24 51l-2 -10q13 31 35 53q6 28 29 45q5 14 39 45l18 9l6 8q17 53 74 53l4 -8l19 35l10.5 3.5t9.5 2.5q21 25 31 37l14 26q36 46 88 54v24l14 17l21 16l12 43q5 -10 17 -10
q17 0 32 49l62 26l33 33l57 -4l43 12zM1007 1505l-10 -24l-10 -50h-8q-27 0 -42.5 -9.5t-25.5 -33.5l-18 13l-68 -56h-6l-17 -18l5 -12l-37 -13v-12l-31 -10l-12 -17l-9 -24l-10 -4v-13l-37 -12l-53 -45l-76 49l29 56l10 34l47 21l29 43l14 2l11 14v21l26 26l23 -14
q25 29 33 45q36 19 38 31q6 27 39 41l31 28l43 5l19 -5q66 -12 73 -57z" />
    </font>
</defs>
</svg>
